<svg id="Layer_1" data-name="Layer 1" xmlns="http://www.w3.org/2000/svg" xmlns:xlink="http://www.w3.org/1999/xlink" viewBox="0 0 615.01 392.28"><defs><style>.cls-1,.cls-6{fill:none;}.cls-2{fill:#cccfdf;}.cls-3{fill:#271f3e;}.cls-4{fill:#cdd0e0;}.cls-5{fill:#f1f2f2;}.cls-6{stroke-miterlimit:10;stroke-width:2px;stroke:url(#linear-gradient);}.cls-7{fill:url(#ReadiNow_Green_Gradient);}.cls-8{fill:#fff;}.cls-9{fill:url(#ReadiNow_Green_Gradient_copy);}.cls-10{fill:url(#ReadiNow_Green_Gradient_copy-2);}.cls-11{fill:url(#ReadiNow_Green_Gradient_copy-3);}.cls-12{fill:url(#ReadiNow_Green_Gradient_copy-4);}.cls-13{fill:url(#ReadiNow_Green_Gradient_copy-5);}.cls-14{clip-path:url(#clip-path);}.cls-15{fill:#f16b90;}.cls-16{fill:#f16c8f;}.cls-17{fill:#f16d8f;}.cls-18{fill:#f16e8e;}.cls-19{fill:#f26f8e;}.cls-20{fill:#f2708d;}.cls-21{fill:#f2718c;}.cls-22{fill:#f2728c;}.cls-23{fill:#f2738b;}.cls-24{fill:#f2748a;}.cls-25{fill:#f2758a;}.cls-26{fill:#f37689;}.cls-27{fill:#f37789;}.cls-28{fill:#f37888;}.cls-29{fill:#f37987;}.cls-30{fill:#f37a87;}.cls-31{fill:#f37b86;}.cls-32{fill:#f37c85;}.cls-33{fill:#f47d85;}.cls-34{fill:#f47e84;}.cls-35{fill:#f47f84;}.cls-36{fill:#f48083;}.cls-37{fill:#f48182;}.cls-38{fill:#f48282;}.cls-39{fill:#f48381;}.cls-40{fill:#f58581;}.cls-41{fill:#f58680;}.cls-42{fill:#f5877f;}.cls-43{fill:#f5887f;}.cls-44{fill:#f5897e;}.cls-45{fill:#f58a7d;}.cls-46{fill:#f58b7d;}.cls-47{fill:#f58c7c;}.cls-48{fill:#f68d7c;}.cls-49{fill:#f68e7b;}.cls-50{fill:#f68f7a;}.cls-51{fill:#f6907a;}.cls-52{fill:#f69179;}.cls-53{fill:#f69278;}.cls-54{fill:#f69378;}.cls-55{fill:#f79477;}.cls-56{fill:#f79577;}.cls-57{fill:#f79676;}.cls-58{fill:#f79775;}.cls-59{fill:#f79875;}.cls-60{fill:#f79974;}.cls-61{fill:#f79a73;}.cls-62{fill:#f89b73;}.cls-63{fill:#f89c72;}.cls-64{fill:#f89d72;}.cls-65{fill:#f89e71;}</style><linearGradient id="linear-gradient" x1="787.92" y1="246.2" x2="882.35" y2="246.2" gradientUnits="userSpaceOnUse"><stop offset="0" stop-color="#5bffce"/><stop offset="0.16" stop-color="#3febc1"/><stop offset="0.37" stop-color="#24d6b5"/><stop offset="0.58" stop-color="#10c8ac"/><stop offset="0.79" stop-color="#04bfa7"/><stop offset="1" stop-color="#00bca5"/></linearGradient><linearGradient id="ReadiNow_Green_Gradient" x1="375.99" y1="443.5" x2="464.06" y2="443.5" gradientUnits="userSpaceOnUse"><stop offset="0" stop-color="#5bffce"/><stop offset="0.2" stop-color="#4ff6c9"/><stop offset="0.55" stop-color="#30dfbb"/><stop offset="1" stop-color="#00bca5"/></linearGradient><linearGradient id="ReadiNow_Green_Gradient_copy" x1="771.31" y1="363.59" x2="781.15" y2="363.59" xlink:href="#ReadiNow_Green_Gradient"/><linearGradient id="ReadiNow_Green_Gradient_copy-2" x1="740.99" y1="316.84" x2="750.83" y2="316.84" xlink:href="#ReadiNow_Green_Gradient"/><linearGradient id="ReadiNow_Green_Gradient_copy-3" x1="478.2" y1="516.46" x2="488.05" y2="516.46" xlink:href="#ReadiNow_Green_Gradient"/><linearGradient id="ReadiNow_Green_Gradient_copy-4" x1="485.78" y1="463.4" x2="495.63" y2="463.4" xlink:href="#ReadiNow_Green_Gradient"/><linearGradient id="ReadiNow_Green_Gradient_copy-5" x1="517.37" y1="481.08" x2="527.21" y2="481.08" xlink:href="#ReadiNow_Green_Gradient"/><clipPath id="clip-path" transform="translate(-375.99 -188.61)"><path class="cls-1" d="M950.46,562.71a5.24,5.24,0,0,1-6.28,3.93L825.7,539.39a5.23,5.23,0,0,1-3.93-6.28L860.6,364.27a5.24,5.24,0,0,1,6.28-3.93l118.48,27.25a5.23,5.23,0,0,1,3.93,6.28Z"/></clipPath></defs><title>phone customer engagement 88</title><path class="cls-2" d="M483.12,517.46a1,1,0,0,1-.74-.33l-37.9-41.69a1,1,0,0,1,1.48-1.35l36.48,40.12,7.27-51a1,1,0,0,1,.55-.75,1,1,0,0,1,.93,0l30.65,17.17,88.95-188.31a1,1,0,0,1,1.81.85L523.19,481.51a1,1,0,0,1-.6.53,1,1,0,0,1-.79-.08l-30.31-17-7.38,51.62a1,1,0,0,1-.69.81A1,1,0,0,1,483.12,517.46Z" transform="translate(-375.99 -188.61)"/><path class="cls-2" d="M730.75,368.88a1.52,1.52,0,0,1-.42-.06,1.5,1.5,0,0,1-1-1.86l15-51.43a1.48,1.48,0,0,1,1.25-1.07,1.5,1.5,0,0,1,1.48.72l28.43,48.11,15.06-71.39a1.5,1.5,0,0,1,2.94.62l-15.86,75.17a1.5,1.5,0,0,1-2.76.45l-28.63-48.45-14,48.11A1.51,1.51,0,0,1,730.75,368.88Z" transform="translate(-375.99 -188.61)"/><path class="cls-3" d="M729.84,544.65a32.63,32.63,0,0,1-32.64,32.63h-124a32.63,32.63,0,0,1-32.63-32.63V224.85a32.63,32.63,0,0,1,32.63-32.63h124a32.63,32.63,0,0,1,32.64,32.63Z" transform="translate(-375.99 -188.61)"/><path class="cls-4" d="M697.2,580.89h-124A36.28,36.28,0,0,1,537,544.65V224.85a36.28,36.28,0,0,1,36.24-36.24h124a36.28,36.28,0,0,1,36.24,36.24v319.8A36.27,36.27,0,0,1,697.2,580.89Zm-124-385.06a29.06,29.06,0,0,0-29,29v319.8a29.06,29.06,0,0,0,29,29h124a29.06,29.06,0,0,0,29-29V224.85a29.06,29.06,0,0,0-29-29Z" transform="translate(-375.99 -188.61)"/><path class="cls-5" d="M713.14,540.07c0,11.79-10.15,21.34-22.67,21.34H579.94c-12.52,0-22.67-9.55-22.67-21.34v-312c0-11.77,10.15-21.32,22.67-21.32H690.47c12.52,0,22.67,9.55,22.67,21.32Z" transform="translate(-375.99 -188.61)"/><g id="_Group_" data-name="&lt;Group&gt;"><path class="cls-1" d="M797.34,280.89,801,261.32a37.27,37.27,0,1,1,14.2,16.3Z" transform="translate(-375.99 -188.61)"/></g><g id="_Group_2" data-name="&lt;Group&gt;"><g id="_Group_3" data-name="&lt;Group&gt;"><path class="cls-1" d="M832,235.69a4.5,4.5,0,1,1,3.16,1.29A4.29,4.29,0,0,1,832,235.69Zm6.42,28.62h-6.53a.52.52,0,0,1-.52-.53V243.7a.52.52,0,0,1,.52-.52h6.53a.52.52,0,0,1,.52.52v20.08A.52.52,0,0,1,838.4,264.31Z" transform="translate(-375.99 -188.61)"/></g></g><g id="_Group_4" data-name="&lt;Group&gt;"><path class="cls-1" d="M834.83,209.08a37,37,0,0,0-29.22,14.28,37.08,37.08,0,0,1,52,52.06,37.09,37.09,0,0,0-22.83-66.34Z" transform="translate(-375.99 -188.61)"/></g><g id="_Group_5" data-name="&lt;Group&gt;"><path class="cls-6" d="M797.34,280.89,801,261.32a37.27,37.27,0,1,1,14.2,16.3Zm37.8,11.52a46,46,0,0,0,27.54-9.1m5.14-4.43a46.11,46.11,0,0,0,12.93-25.19m.6-7.49A46.06,46.06,0,0,0,876.23,225m-3.65-5.93a46.9,46.9,0,0,0-4.76-5.58m0,0a46.22,46.22,0,0,0-78.9,32.68M835.14,237a4.41,4.41,0,1,0-3.16-1.29A4.32,4.32,0,0,0,835.14,237Zm3.78,26.8V243.7a.52.52,0,0,0-.52-.52h-6.53a.52.52,0,0,0-.52.52v20.08a.52.52,0,0,0,.52.53h6.53A.52.52,0,0,0,838.92,263.78Z" transform="translate(-375.99 -188.61)"/></g><g id="_Group_6" data-name="&lt;Group&gt;"><path class="cls-1" d="M797.34,280.89,801,261.32a37.27,37.27,0,1,1,14.2,16.3Z" transform="translate(-375.99 -188.61)"/></g><g id="_Group_7" data-name="&lt;Group&gt;"><g id="_Group_8" data-name="&lt;Group&gt;"><path class="cls-1" d="M832,235.69a4.5,4.5,0,1,1,3.16,1.29A4.29,4.29,0,0,1,832,235.69Zm6.42,28.62h-6.53a.52.52,0,0,1-.52-.53V243.7a.52.52,0,0,1,.52-.52h6.53a.52.52,0,0,1,.52.52v20.08A.52.52,0,0,1,838.4,264.31Z" transform="translate(-375.99 -188.61)"/></g></g><g id="_Group_9" data-name="&lt;Group&gt;"><path class="cls-1" d="M834.83,209.08a37,37,0,0,0-29.22,14.28,37.08,37.08,0,0,1,52,52.06,37.09,37.09,0,0,0-22.83-66.34Z" transform="translate(-375.99 -188.61)"/></g><g id="_Group_10" data-name="&lt;Group&gt;"><path class="cls-2" d="M834.83,284.81a38.39,38.39,0,0,1-20-5.61l-19.38,3.56,3.93-21.26a38.15,38.15,0,0,1-3.19-15.3,38.62,38.62,0,1,1,38.62,38.61ZM815.45,276l.49.31a35.61,35.61,0,1,0-13.62-15.64l.19.42L799.21,279Z" transform="translate(-375.99 -188.61)"/></g><g id="_Group_11" data-name="&lt;Group&gt;"><rect class="cls-1" x="19.06" y="209.82" width="51.04" height="90.13" rx="4.31" ry="4.31"/></g><g id="_Group_12" data-name="&lt;Group&gt;"><path class="cls-1" d="M401.43,484.25V402.74a4.31,4.31,0,0,1,4.31-4.31h-6.38a4.31,4.31,0,0,0-4.32,4.31v81.51a4.31,4.31,0,0,0,4.32,4.31h6.38A4.31,4.31,0,0,1,401.43,484.25Z" transform="translate(-375.99 -188.61)"/></g><g id="_Group_13" data-name="&lt;Group&gt;"><path class="cls-1" d="M428.73,442.64a8.17,8.17,0,1,1-8.17-8.16A8.17,8.17,0,0,1,428.73,442.64Z" transform="translate(-375.99 -188.61)"/></g><g id="_Group_14" data-name="&lt;Group&gt;"><path class="cls-7" d="M441.77,489.56H399.35a5.32,5.32,0,0,1-5.31-5.31v-17.4h2v7.86h49v-7.86h2v17.4A5.31,5.31,0,0,1,441.77,489.56ZM396,476.71v7.54a3.32,3.32,0,0,0,3.31,3.31h42.42a3.31,3.31,0,0,0,3.31-3.31v-7.54Zm58.68-2.65-1.65-1.12a53,53,0,0,0,4.85-8.95,51.65,51.65,0,0,0,3.07-9.88,53.19,53.19,0,0,0,0-21.23,51.87,51.87,0,0,0-3.07-9.88,53,53,0,0,0-4.85-8.95l1.65-1.12A54.56,54.56,0,0,1,463,432.48a55.21,55.21,0,0,1,0,22,54.56,54.56,0,0,1-8.23,19.55Zm-69.4,0a54.61,54.61,0,0,1,0-61.13l1.66,1.12a53,53,0,0,0-4.85,8.95,51.87,51.87,0,0,0-3.07,9.88,53.19,53.19,0,0,0,0,21.23,51.65,51.65,0,0,0,3.07,9.88,52.33,52.33,0,0,0,4.85,8.95Zm64.28-13.58-1.84-.78a41.6,41.6,0,0,0,0-32.41l1.84-.78a43.57,43.57,0,0,1,0,34Zm-59.16,0a43.64,43.64,0,0,1-3.43-17,43.86,43.86,0,0,1,.89-8.8,43.4,43.4,0,0,1,2.54-8.19l1.85.78a41.09,41.09,0,0,0-2.43,7.81,41.88,41.88,0,0,0,0,16.79,41.09,41.09,0,0,0,2.43,7.81Zm30.11-8.67a9.17,9.17,0,1,1,9.16-9.17A9.17,9.17,0,0,1,420.55,451.81Zm0-16.33a7.17,7.17,0,1,0,7.16,7.16A7.17,7.17,0,0,0,420.55,435.48ZM442,450.19l-2-.4a31.77,31.77,0,0,0,0-12.59l2-.4a33.79,33.79,0,0,1,0,13.39Zm-43.87,0a33.79,33.79,0,0,1,0-13.39l2,.4a31.77,31.77,0,0,0,0,12.59Zm49-29.31h-2v-8.43H396v8.43h-2V402.74a5.32,5.32,0,0,1,5.31-5.31h42.42a5.31,5.31,0,0,1,5.31,5.31Zm-51-10.43h49v-7.71a3.31,3.31,0,0,0-3.31-3.31H399.35a3.32,3.32,0,0,0-3.31,3.31Zm31.49-4.17-15.16,0v-2l15.16,0Z" transform="translate(-375.99 -188.61)"/></g><g id="_Group_15" data-name="&lt;Group&gt;"><path class="cls-1" d="M385,549.94v-81.5a4.31,4.31,0,0,1,4.31-4.31h-6.39a4.31,4.31,0,0,0-4.31,4.31v81.5a4.31,4.31,0,0,0,4.31,4.31h6.39A4.31,4.31,0,0,1,385,549.94Z" transform="translate(-375.99 -188.61)"/></g><g id="_Group_16" data-name="&lt;Group&gt;"><path class="cls-2" d="M442.09,490.06H398.92a5.88,5.88,0,0,1-5.92-5.81v-17.4h3.06v7.36H445v-7.36H448v17.4A5.87,5.87,0,0,1,442.09,490.06Zm-46-12.85v7a2.84,2.84,0,0,0,2.86,2.81h43.17a2.84,2.84,0,0,0,2.86-2.81v-7ZM448,420.88H445V413H396.06v7.93H393V402.74a5.88,5.88,0,0,1,5.92-5.81h43.17a5.87,5.87,0,0,1,5.91,5.81ZM396.06,410H445v-7.21a2.84,2.84,0,0,0-2.86-2.81H398.92a2.84,2.84,0,0,0-2.86,2.81Zm32.78-3.21H412.17v-3h16.67Z" transform="translate(-375.99 -188.61)"/></g><circle class="cls-8" cx="400.24" cy="174.98" r="4.42"/><path class="cls-9" d="M776.23,368.51a4.92,4.92,0,1,1,4.92-4.92A4.92,4.92,0,0,1,776.23,368.51Zm0-8.84a3.92,3.92,0,1,0,3.92,3.92A3.93,3.93,0,0,0,776.23,359.67Z" transform="translate(-375.99 -188.61)"/><circle class="cls-8" cx="369.92" cy="128.23" r="4.42"/><path class="cls-10" d="M745.91,321.77a4.93,4.93,0,1,1,4.92-4.93A4.93,4.93,0,0,1,745.91,321.77Zm0-8.85a3.93,3.93,0,1,0,3.92,3.92A3.93,3.93,0,0,0,745.91,312.92Z" transform="translate(-375.99 -188.61)"/><path class="cls-1" d="M412.38,500" transform="translate(-375.99 -188.61)"/><circle class="cls-8" cx="107.14" cy="327.85" r="4.42"/><path class="cls-11" d="M483.12,521.38a4.92,4.92,0,1,1,4.93-4.92A4.93,4.93,0,0,1,483.12,521.38Zm0-8.84a3.92,3.92,0,1,0,3.93,3.92A3.92,3.92,0,0,0,483.12,512.54Z" transform="translate(-375.99 -188.61)"/><circle class="cls-8" cx="114.72" cy="274.79" r="4.42"/><path class="cls-12" d="M490.7,468.32a4.93,4.93,0,1,1,4.93-4.92A4.93,4.93,0,0,1,490.7,468.32Zm0-8.85a3.93,3.93,0,1,0,3.93,3.93A3.93,3.93,0,0,0,490.7,459.47Z" transform="translate(-375.99 -188.61)"/><circle class="cls-8" cx="146.3" cy="292.47" r="4.42"/><path class="cls-13" d="M522.29,486a4.92,4.92,0,1,1,4.92-4.92A4.92,4.92,0,0,1,522.29,486Zm0-8.84a3.92,3.92,0,1,0,3.92,3.92A3.93,3.93,0,0,0,522.29,477.16Z" transform="translate(-375.99 -188.61)"/><g class="cls-14"><polygon class="cls-15" points="445.13 346.36 465.37 378.68 445.13 378.68 445.13 346.36"/><polygon class="cls-15" points="445.13 338.27 470.43 378.68 465.37 378.68 445.13 346.36 445.13 338.27"/><polygon class="cls-16" points="445.13 330.18 475.5 378.68 470.43 378.68 445.13 338.27 445.13 330.18"/><polygon class="cls-17" points="445.13 322.08 480.56 378.68 475.5 378.68 445.13 330.18 445.13 322.08"/><polygon class="cls-18" points="445.13 313.99 485.63 378.68 480.56 378.68 445.13 322.08 445.13 313.99"/><polygon class="cls-19" points="445.13 305.9 490.69 378.68 485.63 378.68 445.13 313.99 445.13 305.9"/><polygon class="cls-20" points="445.13 297.81 495.75 378.68 490.69 378.68 445.13 305.9 445.13 297.81"/><polygon class="cls-21" points="445.13 289.72 500.82 378.68 495.75 378.68 445.13 297.81 445.13 289.72"/><polygon class="cls-22" points="445.13 281.63 505.88 378.68 500.82 378.68 445.13 289.72 445.13 281.63"/><polygon class="cls-23" points="445.13 273.54 510.95 378.68 505.88 378.68 445.13 281.63 445.13 273.54"/><polygon class="cls-24" points="445.13 265.45 516.01 378.68 510.95 378.68 445.13 273.54 445.13 265.45"/><polygon class="cls-25" points="445.13 257.36 521.08 378.68 516.01 378.68 445.13 265.45 445.13 257.36"/><polygon class="cls-26" points="445.13 249.27 526.15 378.68 521.08 378.68 445.13 257.36 445.13 249.27"/><polygon class="cls-27" points="445.13 241.18 531.21 378.68 526.15 378.68 445.13 249.27 445.13 241.18"/><polygon class="cls-28" points="445.13 233.08 536.28 378.68 531.21 378.68 445.13 241.18 445.13 233.08"/><polygon class="cls-29" points="445.13 224.99 541.34 378.68 536.28 378.68 445.13 233.08 445.13 224.99"/><polygon class="cls-30" points="445.13 216.9 546.41 378.68 541.34 378.68 445.13 224.99 445.13 216.9"/><polygon class="cls-31" points="445.13 208.81 551.47 378.68 546.41 378.68 445.13 216.9 445.13 208.81"/><polygon class="cls-32" points="445.13 200.72 556.54 378.68 551.47 378.68 445.13 208.81 445.13 200.72"/><polygon class="cls-33" points="445.13 195.6 446.47 194.76 561.6 378.68 556.54 378.68 445.13 200.72 445.13 195.6"/><polygon class="cls-34" points="446.47 194.76 450.11 192.49 566.67 378.68 561.6 378.68 446.47 194.76"/><polygon class="cls-35" points="450.11 192.49 453.74 190.21 571.73 378.68 566.67 378.68 450.11 192.49"/><polygon class="cls-36" points="453.74 190.21 457.38 187.93 576.23 377.78 574.78 378.68 571.73 378.68 453.74 190.21"/><rect class="cls-37" x="892.47" y="358.34" width="4.29" height="223.98" transform="translate(-489.22 357.76) rotate(-32.05)"/><rect class="cls-38" x="896.11" y="356.06" width="4.29" height="223.98" transform="translate(-487.46 359.34) rotate(-32.05)"/><rect class="cls-39" x="899.74" y="353.78" width="4.29" height="223.98" transform="translate(-485.69 360.93) rotate(-32.05)"/><rect class="cls-40" x="903.38" y="351.5" width="4.29" height="223.98" transform="translate(-483.93 362.51) rotate(-32.05)"/><rect class="cls-41" x="907.02" y="349.22" width="4.29" height="223.98" transform="translate(-482.17 364.09) rotate(-32.05)"/><rect class="cls-42" x="910.66" y="346.95" width="4.29" height="223.98" transform="translate(-480.41 365.68) rotate(-32.05)"/><rect class="cls-43" x="914.3" y="344.67" width="4.29" height="223.98" transform="translate(-478.64 367.26) rotate(-32.05)"/><polygon class="cls-44" points="482.86 171.98 484.31 171.08 487.35 171.08 605.34 359.55 601.7 361.83 482.86 171.98"/><polygon class="cls-45" points="492.42 171.08 608.98 357.27 605.34 359.55 487.35 171.08 492.42 171.08"/><polygon class="cls-46" points="497.48 171.08 612.62 355 608.98 357.27 492.42 171.08 497.48 171.08"/><polygon class="cls-47" points="502.55 171.08 613.96 349.04 613.96 354.16 612.62 355 497.48 171.08 502.55 171.08"/><polygon class="cls-48" points="507.61 171.08 613.96 340.95 613.96 349.04 502.55 171.08 507.61 171.08"/><polygon class="cls-49" points="512.68 171.08 613.96 332.86 613.96 340.95 507.61 171.08 512.68 171.08"/><polygon class="cls-50" points="517.74 171.08 613.96 324.77 613.96 332.86 512.68 171.08 517.74 171.08"/><polygon class="cls-51" points="522.81 171.08 613.96 316.68 613.96 324.77 517.74 171.08 522.81 171.08"/><polygon class="cls-52" points="527.87 171.08 613.96 308.58 613.96 316.68 522.81 171.08 527.87 171.08"/><polygon class="cls-53" points="532.94 171.08 613.96 300.49 613.96 308.58 527.87 171.08 532.94 171.08"/><polygon class="cls-54" points="538 171.08 613.96 292.4 613.96 300.49 532.94 171.08 538 171.08"/><polygon class="cls-55" points="543.07 171.08 613.96 284.31 613.96 292.4 538 171.08 543.07 171.08"/><polygon class="cls-56" points="548.13 171.08 613.96 276.22 613.96 284.31 543.07 171.08 548.13 171.08"/><polygon class="cls-57" points="553.2 171.08 613.96 268.13 613.96 276.22 548.13 171.08 553.2 171.08"/><polygon class="cls-58" points="558.26 171.08 613.96 260.04 613.96 268.13 553.2 171.08 558.26 171.08"/><polygon class="cls-59" points="563.33 171.08 613.96 251.95 613.96 260.04 558.26 171.08 563.33 171.08"/><polygon class="cls-60" points="568.39 171.08 613.96 243.86 613.96 251.95 563.33 171.08 568.39 171.08"/><polygon class="cls-61" points="573.46 171.08 613.96 235.77 613.96 243.86 568.39 171.08 573.46 171.08"/><polygon class="cls-62" points="578.52 171.08 613.96 227.68 613.96 235.77 573.46 171.08 578.52 171.08"/><polygon class="cls-63" points="583.59 171.08 613.96 219.58 613.96 227.68 578.52 171.08 583.59 171.08"/><polygon class="cls-64" points="588.65 171.08 613.96 211.49 613.96 219.58 583.59 171.08 588.65 171.08"/><polygon class="cls-65" points="593.72 171.08 613.96 203.4 613.96 211.49 588.65 171.08 593.72 171.08"/><polygon class="cls-65" points="613.96 203.4 593.72 171.08 613.96 171.08 613.96 203.4"/></g><path class="cls-4" d="M943.82,568.18,825.35,540.93a6.84,6.84,0,0,1-5.12-8.17l38.84-168.84a6.82,6.82,0,0,1,8.16-5.12l118.48,27.25a6.84,6.84,0,0,1,5.12,8.17L952,563.06A6.82,6.82,0,0,1,943.82,568.18ZM866.53,361.87a3.67,3.67,0,0,0-4.4,2.75L823.3,533.46a3.66,3.66,0,0,0,2.75,4.4l118.48,27.25a3.67,3.67,0,0,0,4.4-2.75l38.83-168.84a3.67,3.67,0,0,0-2.75-4.4Z" transform="translate(-375.99 -188.61)"/><path class="cls-4" d="M866.57,394.41a2.35,2.35,0,0,1-2.82,1.77l-21.45-4.93a2.37,2.37,0,0,1-1.77-2.83h0a2.36,2.36,0,0,1,2.83-1.77l21.44,4.93a2.35,2.35,0,0,1,1.77,2.83Z" transform="translate(-375.99 -188.61)"/><path class="cls-4" d="M864.22,404.62a2.34,2.34,0,0,1-2.82,1.77L840,401.46a2.36,2.36,0,0,1-1.77-2.83h0a2.37,2.37,0,0,1,2.83-1.77l21.45,4.94a2.34,2.34,0,0,1,1.76,2.82Z" transform="translate(-375.99 -188.61)"/><path class="cls-4" d="M861.87,414.84a2.35,2.35,0,0,1-2.82,1.77l-21.45-4.94a2.35,2.35,0,0,1-1.77-2.82h0a2.36,2.36,0,0,1,2.83-1.77L860.11,412a2.35,2.35,0,0,1,1.76,2.83Z" transform="translate(-375.99 -188.61)"/><path class="cls-4" d="M859.53,425.05a2.37,2.37,0,0,1-2.83,1.77l-21.45-4.93a2.36,2.36,0,0,1-1.77-2.83h0a2.36,2.36,0,0,1,2.83-1.77l21.45,4.94a2.35,2.35,0,0,1,1.77,2.82Z" transform="translate(-375.99 -188.61)"/><path class="cls-4" d="M857.18,435.27a2.37,2.37,0,0,1-2.83,1.77L832.9,432.1a2.35,2.35,0,0,1-1.77-2.82h0a2.36,2.36,0,0,1,2.83-1.77l21.45,4.93a2.36,2.36,0,0,1,1.77,2.83Z" transform="translate(-375.99 -188.61)"/><path class="cls-4" d="M854.83,445.48a2.37,2.37,0,0,1-2.83,1.77l-21.45-4.93a2.36,2.36,0,0,1-1.77-2.83h0a2.36,2.36,0,0,1,2.83-1.77l21.45,4.93a2.37,2.37,0,0,1,1.77,2.83Z" transform="translate(-375.99 -188.61)"/><path class="cls-4" d="M852.48,455.7a2.37,2.37,0,0,1-2.83,1.77l-21.45-4.94a2.36,2.36,0,0,1-1.77-2.82h0a2.35,2.35,0,0,1,2.83-1.77l21.45,4.93a2.36,2.36,0,0,1,1.77,2.83Z" transform="translate(-375.99 -188.61)"/><path class="cls-4" d="M850.13,465.91a2.36,2.36,0,0,1-2.83,1.77l-21.45-4.93a2.37,2.37,0,0,1-1.77-2.83h0a2.37,2.37,0,0,1,2.83-1.77l21.45,4.93a2.37,2.37,0,0,1,1.77,2.83Z" transform="translate(-375.99 -188.61)"/><path class="cls-4" d="M847.78,476.12a2.35,2.35,0,0,1-2.83,1.77L823.5,473a2.36,2.36,0,0,1-1.77-2.83h0a2.37,2.37,0,0,1,2.83-1.77L846,473.3a2.35,2.35,0,0,1,1.77,2.82Z" transform="translate(-375.99 -188.61)"/><path class="cls-4" d="M845.43,486.34a2.36,2.36,0,0,1-2.83,1.77l-21.45-4.93a2.37,2.37,0,0,1-1.77-2.83h0a2.37,2.37,0,0,1,2.83-1.77l21.45,4.93a2.36,2.36,0,0,1,1.77,2.83Z" transform="translate(-375.99 -188.61)"/><path class="cls-4" d="M843.08,496.55a2.36,2.36,0,0,1-2.83,1.77l-21.44-4.93a2.35,2.35,0,0,1-1.77-2.83h0a2.35,2.35,0,0,1,2.82-1.77l21.45,4.94a2.35,2.35,0,0,1,1.77,2.82Z" transform="translate(-375.99 -188.61)"/><path class="cls-4" d="M840.73,506.77a2.36,2.36,0,0,1-2.83,1.77l-21.44-4.94a2.34,2.34,0,0,1-1.77-2.82h0a2.35,2.35,0,0,1,2.82-1.77L839,503.94a2.36,2.36,0,0,1,1.77,2.83Z" transform="translate(-375.99 -188.61)"/><path class="cls-8" d="M946.26,448.94a5.26,5.26,0,0,1-6.29,3.94l-62-14.26a5.24,5.24,0,0,1-3.94-6.28l5.8-25.19a5.25,5.25,0,0,1,6.28-3.94l62,14.26a5.24,5.24,0,0,1,3.93,6.28Z" transform="translate(-375.99 -188.61)"/><path class="cls-4" d="M939.62,454.41l-62-14.25a6.83,6.83,0,0,1-5.11-8.17l5.8-25.2a6.81,6.81,0,0,1,8.16-5.11l62,14.25a6.83,6.83,0,0,1,5.11,8.17l-5.79,25.2A6.82,6.82,0,0,1,939.62,454.41ZM885.8,404.75a3.67,3.67,0,0,0-4.4,2.75l-5.79,25.19a3.66,3.66,0,0,0,2.75,4.4l62,14.25a3.66,3.66,0,0,0,4.39-2.75l5.8-25.19a3.67,3.67,0,0,0-2.76-4.4Z" transform="translate(-375.99 -188.61)"/><rect class="cls-8" x="502.7" y="263.01" width="8.89" height="108"/><path class="cls-4" d="M888.67,560.49H878V450.75h10.63Zm-8.9-1.74h7.17V452.49h-7.17Z" transform="translate(-375.99 -188.61)"/><path class="cls-3" d="M887.8,484.33V451.62h-8.89v32.73Z" transform="translate(-375.99 -188.61)"/><path class="cls-4" d="M878,485.22V450.75h10.63v34.44h-.87l-8.89,0Zm1.73-32.73v31l7.17,0v-31Z" transform="translate(-375.99 -188.61)"/><rect class="cls-3" x="504.61" y="371.01" width="5.97" height="6.38"/><path class="cls-4" d="M887.44,566.86h-7.7v-8.11h7.7Zm-6-1.73h4.24v-4.64h-4.24Z" transform="translate(-375.99 -188.61)"/><rect class="cls-4" x="498.44" y="265.43" width="3.6" height="1.73"/><rect class="cls-4" x="498.44" y="292.36" width="3.6" height="1.73"/><rect class="cls-4" x="497.86" y="265.43" width="1.73" height="28.66"/></svg>