<svg xmlns="http://www.w3.org/2000/svg" xmlns:xlink="http://www.w3.org/1999/xlink" viewBox="0 0 415.18 584"><defs><style>.cls-1{fill:#fff;}.cls-2,.cls-4{fill:#00bca5;}.cls-2,.cls-3{opacity:0.19;}.cls-5{fill:url(#New_Gradient_Swatch_1);}</style><linearGradient id="New_Gradient_Swatch_1" x1="27.71" y1="232.96" x2="389.25" y2="232.96" gradientUnits="userSpaceOnUse"><stop offset="0" stop-color="#5bffce"/><stop offset="1" stop-color="#00bca5"/></linearGradient></defs><title>4 pillars</title><g id="Layer_1" data-name="Layer 1"><rect class="cls-1" width="415.18" height="584"/><path d="M52.74,504.14V474.66h10c3,0,7.91.4,11.71,4.07a14.38,14.38,0,0,1,4.11,10.74c0,3.89-1,7.34-3.84,10.21a16,16,0,0,1-11.32,4.46Zm7.65-6.49h1.55c1.86,0,4.46-.18,6.45-2.12a8.06,8.06,0,0,0,2.26-6.06,8.8,8.8,0,0,0-2.3-6.45c-1.81-1.68-4.2-1.86-6.1-1.86H60.39Z"/><path d="M91.11,474.66v29.48H83.46V474.66Z"/><path d="M111.44,487.44h15.21c0,5.83-1.2,10-4.73,13.26a14.41,14.41,0,0,1-10.39,3.71A15.24,15.24,0,0,1,100.21,500,14.85,14.85,0,0,1,96,489.38a15.39,15.39,0,0,1,4.42-11.05,17.13,17.13,0,0,1,19.4-2.34,14.44,14.44,0,0,1,5.26,6.05l-7.29,3a7.23,7.23,0,0,0-2.12-3,6.18,6.18,0,0,0-4.11-1.46,7.12,7.12,0,0,0-5,2,10,10,0,0,0-2.56,6.77,9.22,9.22,0,0,0,2.34,6.36,7,7,0,0,0,5.39,2.25,6.33,6.33,0,0,0,4.25-1.37,5.27,5.27,0,0,0,1.81-3.27h-6.28Z"/><path d="M139.15,474.66v29.48H131.5V474.66Z"/><path d="M156.48,481.16v23h-7.65v-23h-6.28v-6.5h20.2v6.5Z"/><path d="M182.82,499.19h-10.7l-2,4.95h-8.08l11.31-29.48h8.36l11.09,29.48h-8.18Zm-2-5.83-3.32-9.55-3.23,9.55Z"/><path d="M203.86,474.66v23h9.19v6.49H196.21V474.66Z"/><path d="M61.55,540v19.21H55.16V540H49.91v-5.43H66.8V540Z"/><path d="M79.62,534.57a7.93,7.93,0,0,1,6,2.18,8.12,8.12,0,0,1,2.11,5.54,7.09,7.09,0,0,1-2,5.13,6.86,6.86,0,0,1-3.4,1.7l7.72,10.09H82.17L76,549.75v9.46H69.64V534.57Zm-3.59,11h1.22a4.82,4.82,0,0,0,3.11-1,3.08,3.08,0,0,0,.81-2.07,2.93,2.93,0,0,0-.85-2.07,4.34,4.34,0,0,0-3.07-1H76Z"/><path d="M107.85,555.07H98.91l-1.67,4.14H90.48l9.46-24.64h7l9.27,24.64h-6.84Zm-1.7-4.87-2.77-8-2.7,8Z"/><path d="M119.05,559.21V534.57h6.39l11.79,15.07V534.57h6.39v24.64h-6.39l-11.79-15.07v15.07Z"/><path d="M150.42,551.82a8.61,8.61,0,0,0,5.65,2.51,3.22,3.22,0,0,0,2.48-.85,2.18,2.18,0,0,0,.63-1.55,1.94,1.94,0,0,0-.71-1.48,8.83,8.83,0,0,0-3.17-1.29l-1.67-.52a8,8,0,0,1-3.54-2,6.19,6.19,0,0,1-1.41-4.36,8.06,8.06,0,0,1,2.26-5.95,8.65,8.65,0,0,1,6.32-2.33,17.34,17.34,0,0,1,7.61,2l-2.55,5a6.5,6.5,0,0,0-4.21-1.67,3.09,3.09,0,0,0-2.11.74,1.83,1.83,0,0,0-.63,1.33,1.63,1.63,0,0,0,.33,1.11,4.07,4.07,0,0,0,2.15,1.11l2,.59a9.39,9.39,0,0,1,4.48,2.44,5.84,5.84,0,0,1,1.58,4.4,8.34,8.34,0,0,1-2.32,6.2c-2.11,2.11-4.66,2.52-7.28,2.52a13.09,13.09,0,0,1-4.84-.82,16.68,16.68,0,0,1-3.73-2Z"/><path d="M184,540h-7.72v4.1h7v5.43h-7v9.68h-6.4V534.57H184Z"/><path d="M210,556.11a14.72,14.72,0,0,1-19.43,0,12.89,12.89,0,0,1,0-18.44,14.72,14.72,0,0,1,19.43,0,12.89,12.89,0,0,1,0,18.44Zm-14.7-13.93a6.75,6.75,0,0,0-2,4.84,6.24,6.24,0,0,0,2,4.58,7,7,0,0,0,5,2,6.68,6.68,0,0,0,6.95-6.65,6.68,6.68,0,0,0-2-4.73,7.37,7.37,0,0,0-5-2A7.09,7.09,0,0,0,195.32,542.18Z"/><path d="M228,534.57a7.94,7.94,0,0,1,6,2.18,8.11,8.11,0,0,1,2.1,5.54,7.08,7.08,0,0,1-1.95,5.13,6.86,6.86,0,0,1-3.4,1.7l7.72,10.09h-7.95l-6.13-9.46v9.46H218V534.57Zm-3.59,11h1.22a4.77,4.77,0,0,0,3.1-1,3.09,3.09,0,0,0,.82-2.07,2.93,2.93,0,0,0-.85-2.07,4.36,4.36,0,0,0-3.07-1h-1.22Z"/><path d="M240,559.21l4.18-24.64h6.31l5,13.15,5.29-13.15h6.39l3.69,24.64h-6.39L262.68,545l-5.95,14.19h-2.55L248.49,545l-2.1,14.19Z"/><path d="M290,555.07h-8.94l-1.67,4.14h-6.76l9.46-24.64h7l9.28,24.64H291.5Zm-1.7-4.87-2.77-8-2.7,8Z"/><path d="M309.39,540v19.21H303V540h-5.25v-5.43h16.89V540Z"/><path d="M323.87,534.57v24.64h-6.39V534.57Z"/><path d="M351.25,556.11a14.72,14.72,0,0,1-19.43,0,12.89,12.89,0,0,1,0-18.44,14.72,14.72,0,0,1,19.43,0,12.89,12.89,0,0,1,0,18.44Zm-14.7-13.93a6.75,6.75,0,0,0-2,4.84,6.28,6.28,0,0,0,2,4.58,7,7,0,0,0,5,2,6.68,6.68,0,0,0,6.94-6.65,6.68,6.68,0,0,0-2-4.73,7.35,7.35,0,0,0-4.95-2A7.09,7.09,0,0,0,336.55,542.18Z"/><path d="M359.2,559.21V534.57h6.39l11.79,15.07V534.57h6.39v24.64h-6.39l-11.79-15.07v15.07Z"/><g id="_Group_" data-name="&lt;Group&gt;"><rect id="_Rectangle_" data-name="&lt;Rectangle&gt;" class="cls-1" x="32.25" y="164.81" width="351.57" height="112.02" rx="0.24" ry="0.24"/><rect id="_Rectangle_2" data-name="&lt;Rectangle&gt;" class="cls-1" x="271.33" y="157.5" width="112.49" height="114.98" rx="0.24" ry="0.24"/><rect id="_Rectangle_3" data-name="&lt;Rectangle&gt;" class="cls-1" x="140.15" y="75.15" width="133.81" height="109.06" rx="0.24" ry="0.24"/><path id="_Path_" data-name="&lt;Path&gt;" class="cls-2" d="M272.14,75.15H142A1.83,1.83,0,0,0,140.15,77V98.11h109A1.81,1.81,0,0,1,251,99.93v84.28h21.14a1.83,1.83,0,0,0,1.82-1.83V77A1.83,1.83,0,0,0,272.14,75.15Z"/><path id="_Path_2" data-name="&lt;Path&gt;" class="cls-1" d="M330.46,285.17h-1.23a44.4,44.4,0,0,0-66.66-25,60.83,60.83,0,0,0-118.21-8.75,46,46,0,0,0-5.27-1.08,21.76,21.76,0,0,0-4.81-.57l.25.25c-.35,0-.68-.07-1-.07a41.77,41.77,0,0,0-41.24,35.24H85.45a31.3,31.3,0,0,0-31.21,31.21H361.67A31.3,31.3,0,0,0,330.46,285.17Z"/><g id="_Group_2" data-name="&lt;Group&gt;" class="cls-3"><path id="_Path_3" data-name="&lt;Path&gt;" class="cls-4" d="M330.46,285.17h-1.23a44.46,44.46,0,0,0-42.68-32.07,43.93,43.93,0,0,0-15.22,2.81,44.56,44.56,0,0,1,27.3,29.26h1.22a31.3,31.3,0,0,1,31.21,31.21h30.61A31.3,31.3,0,0,0,330.46,285.17Z"/></g><path class="cls-5" d="M198,396.21a56.25,56.25,0,1,1,27.26-105.45l-5.27,9.5A45.38,45.38,0,1,0,243.41,340h10.87A56.31,56.31,0,0,1,198,396.21ZM200,362.88l-38.19-38.19,7.69-7.69L200,347.51l64.87-64.86,7.68,7.68Zm185.17-48.35H350.36v-5.44A24.1,24.1,0,0,0,326.28,285H321l-1.13-3.92a36.56,36.56,0,0,0-54.9-20.6L258,265l-1.28-8.26a52.09,52.09,0,0,0-100.12-10.7,25.89,25.89,0,0,1,10.09,20.52H155.8A15.08,15.08,0,0,0,144.62,252a32.81,32.81,0,0,0-4.61-.33,33.9,33.9,0,0,0-33.63,28.74l-.73,4.59H94.57a24.1,24.1,0,0,0-24.08,24.08v5.44H31.86V303.66H60a35,35,0,0,1,34.53-29.52h2A44.73,44.73,0,0,1,116,247.72H103.68V236.86H122.3V208l-37.49-.24v39.94H55.9V236.86h18v-40l59.23.39v44.1a45.19,45.19,0,0,1,7.58-.51v-.18a25.88,25.88,0,0,1,6,.71h0a63.67,63.67,0,0,1,20.8-27.08,62.91,62.91,0,0,1,78.87,2.83,63.14,63.14,0,0,1,19.43,30.65,47.23,47.23,0,0,1,18.89-3.94,47.75,47.75,0,0,1,44.31,30.44,35,35,0,0,1,31.75,29.41h24.33ZM54.58,285.22H35a7.31,7.31,0,0,1-7.3-7.31V166.68a7.3,7.3,0,0,1,7.3-7.3h90.23v10.86H38.58V274.35h16ZM382,277.91H356.56V267h21.82V246.61H331.76l-22.88-20-11.12,11.64-7.85-7.51,18.3-19.15,27.63,24.14h42.54V162.94H291.72V152.07H382a7.32,7.32,0,0,1,7.3,7.3V270.61A7.31,7.31,0,0,1,382,277.91ZM238.19,254.22a42.51,42.51,0,0,0-57.31-13.47l-5.55-9.35a53.38,53.38,0,0,1,72,16.9ZM356.56,194.9H332V184h24.54Zm-82.77-5.26H140.32a5.6,5.6,0,0,1-5.6-5.6V75.32a5.6,5.6,0,0,1,5.6-5.6H273.79a5.61,5.61,0,0,1,5.61,5.6V184A5.61,5.61,0,0,1,273.79,189.64ZM145.58,178.77H268.53V80.58H145.58Zm36.64-13.61a6.75,6.75,0,0,1-3.4-.91,6.83,6.83,0,0,1-3.41-5.9V101a6.82,6.82,0,0,1,10.22-5.89l49.66,28.67,0,0a6.82,6.82,0,0,1,3.38,5.68v.2a6.85,6.85,0,0,1-3.41,5.9l-49.66,28.67A6.78,6.78,0,0,1,182.22,165.16ZM186.28,108v43.3l37.49-21.65Z"/></g></g></svg>