<svg xmlns="http://www.w3.org/2000/svg" xmlns:xlink="http://www.w3.org/1999/xlink" viewBox="0 0 415.18 584"><defs><style>.cls-1{fill:#fff;}.cls-2{opacity:0.39;fill:url(#linear-gradient);}.cls-3{fill:#00bca5;opacity:0.19;}.cls-4{fill:url(#New_Gradient_Swatch_1);}</style><linearGradient id="linear-gradient" x1="266.69" y1="304.04" x2="320.55" y2="304.04" gradientUnits="userSpaceOnUse"><stop offset="0" stop-color="#5bffce"/><stop offset="1" stop-color="#00bca5"/></linearGradient><linearGradient id="New_Gradient_Swatch_1" x1="14.47" y1="218.47" x2="402.48" y2="218.47" xlink:href="#linear-gradient"/></defs><title>4 pillars</title><g id="Layer_1" data-name="Layer 1"><rect class="cls-1" width="415.18" height="584"/><path d="M69.89,433.09H85.1c0,5.84-1.2,10-4.73,13.26A14.38,14.38,0,0,1,70,450.07a15.24,15.24,0,0,1-11.32-4.38A14.85,14.85,0,0,1,54.42,435,15.37,15.37,0,0,1,58.84,424a15.77,15.77,0,0,1,11.45-4.33,15.73,15.73,0,0,1,7.95,2,14.38,14.38,0,0,1,5.26,6.05l-7.29,3a7.16,7.16,0,0,0-2.12-3A6.13,6.13,0,0,0,70,426.29a7.12,7.12,0,0,0-5,2,9.94,9.94,0,0,0-2.56,6.76,9.23,9.23,0,0,0,2.34,6.37,7,7,0,0,0,5.39,2.25,6.33,6.33,0,0,0,4.25-1.37,5.27,5.27,0,0,0,1.81-3.27H69.89Z"/><path d="M116.52,446.09a17.62,17.62,0,0,1-23.25,0,15.43,15.43,0,0,1,0-22.06,17.65,17.65,0,0,1,23.25,0,15.43,15.43,0,0,1,0,22.06ZM98.93,429.43a8.07,8.07,0,0,0-2.34,5.79,7.48,7.48,0,0,0,2.34,5.48,8.35,8.35,0,0,0,6,2.34,8,8,0,0,0,8.31-8,7.93,7.93,0,0,0-2.39-5.65,8.83,8.83,0,0,0-5.92-2.35A8.45,8.45,0,0,0,98.93,429.43Z"/><path d="M130.18,420.32l7.07,17.95,7.16-17.95h8.31L140.17,449.8h-6l-12.38-29.48Z"/><path d="M172.56,426.82h-9.1v4.9h8.62v6.5h-8.62v5.08h9.1v6.5H155.81V420.32h16.75Z"/><path d="M189.36,420.32a9.49,9.49,0,0,1,7.2,2.61,9.7,9.7,0,0,1,2.52,6.63,8.48,8.48,0,0,1-2.34,6.14,8.28,8.28,0,0,1-4.07,2l9.24,12.06h-9.5l-7.34-11.31V449.8h-7.65V420.32Zm-4.29,13.22h1.46a5.71,5.71,0,0,0,3.71-1.2,3.62,3.62,0,0,0,1-2.47,3.49,3.49,0,0,0-1-2.48,5.19,5.19,0,0,0-3.67-1.15h-1.46Z"/><path d="M205.14,449.8V420.32h7.64l14.1,18v-18h7.65V449.8h-7.65l-14.1-18v18Z"/><path d="M258.71,444.85H248l-2,4.95h-8.09l11.32-29.48h8.35l11.1,29.48h-8.18Zm-2-5.83-3.31-9.55L250.13,439Z"/><path d="M272.1,449.8V420.32h7.64l14.1,18v-18h7.65V449.8h-7.65l-14.1-18v18Z"/><path d="M328.85,449a18.32,18.32,0,0,1-6.63,1.46A16,16,0,0,1,310.81,446a15.46,15.46,0,0,1-4.46-10.74A15.47,15.47,0,0,1,322,419.83a18.15,18.15,0,0,1,6.9,1.51v9.15a8.22,8.22,0,0,0-6.68-3.23,7.45,7.45,0,0,0-5.3,1.94,7.86,7.86,0,0,0,5.3,13.84,8.66,8.66,0,0,0,6.68-3.09Z"/><path d="M350.46,426.82h-9.11v4.9H350v6.5h-8.62v5.08h9.11v6.5H333.71V420.32h16.75Z"/><path d="M67.68,475.39a9.55,9.55,0,0,1,7.21,2.6,9.76,9.76,0,0,1,2.51,6.63,8.52,8.52,0,0,1-2.34,6.15,8.24,8.24,0,0,1-4.06,2l9.23,12.07h-9.5l-7.34-11.32v11.32H55.75V475.39ZM63.39,488.6h1.46a5.74,5.74,0,0,0,3.71-1.19,3.67,3.67,0,0,0,1-2.48,3.49,3.49,0,0,0-1-2.47,5.19,5.19,0,0,0-3.67-1.15H63.39Z"/><path d="M91.11,475.39v29.48H83.46V475.39Z"/><path d="M99.24,496a10.29,10.29,0,0,0,6.76,3,3.86,3.86,0,0,0,3-1,2.65,2.65,0,0,0,.75-1.86,2.31,2.31,0,0,0-.84-1.77c-.75-.66-1.9-1-3.8-1.54l-2-.62a9.58,9.58,0,0,1-4.24-2.39,7.43,7.43,0,0,1-1.68-5.22,9.6,9.6,0,0,1,2.7-7.11,10.38,10.38,0,0,1,7.55-2.79,20.69,20.69,0,0,1,9.11,2.39l-3,6a7.79,7.79,0,0,0-5-2,3.7,3.7,0,0,0-2.52.88,2.19,2.19,0,0,0-.75,1.59,2,2,0,0,0,.4,1.33,4.78,4.78,0,0,0,2.56,1.33l2.34.7a11.27,11.27,0,0,1,5.35,2.92,6.94,6.94,0,0,1,1.9,5.26,10,10,0,0,1-2.78,7.43c-2.52,2.52-5.57,3-8.71,3a15.66,15.66,0,0,1-5.79-1A20.49,20.49,0,0,1,96,502.22Z"/><path d="M130.18,487.54l9.37-12.15H149l-11.72,14,12.78,15.52h-9.9l-10-12.78v12.78h-7.65V475.39h7.65Z"/><path d="M76.92,559.14a18.11,18.11,0,0,1-6.63,1.46,16,16,0,0,1-11.41-4.42,15.48,15.48,0,0,1-4.46-10.74A15.45,15.45,0,0,1,70,530a18.28,18.28,0,0,1,6.9,1.5v9.15a8.22,8.22,0,0,0-6.68-3.23,7.46,7.46,0,0,0-5.3,2,7.85,7.85,0,0,0,5.3,13.83,8.66,8.66,0,0,0,6.68-3.09Z"/><path d="M108.34,556.22a17.62,17.62,0,0,1-23.25,0,15.42,15.42,0,0,1,0-22.05,17.62,17.62,0,0,1,23.25,0,15.42,15.42,0,0,1,0,22.05ZM90.75,539.56a8.08,8.08,0,0,0-2.34,5.79,7.5,7.5,0,0,0,2.34,5.48,8.37,8.37,0,0,0,6,2.34,7.94,7.94,0,0,0,5.92-13.61,8.8,8.8,0,0,0-5.92-2.34A8.5,8.5,0,0,0,90.75,539.56Z"/><path d="M115.94,559.94l5-29.49h7.56l6,15.74,6.33-15.74h7.64l4.42,29.49h-7.64L143,543l-7.12,17h-3l-6.8-17-2.52,17Z"/><path d="M165.36,550.17v9.77h-7.65V530.45h12.2a10.13,10.13,0,0,1,7.47,2.66,9.12,9.12,0,0,1,2.74,7.16c0,2.34-.31,5.08-2.61,7.33a9.77,9.77,0,0,1-7.33,2.57Zm0-6.19h2.56a5,5,0,0,0,3.23-.93,3.36,3.36,0,0,0,1-2.7,3.61,3.61,0,0,0-.88-2.65,4.49,4.49,0,0,0-3.27-1.06h-2.61Z"/><path d="M191.83,530.45v23H201v6.5H184.19V530.45Z"/><path d="M212.61,530.45v29.49H205V530.45Z"/><path d="M236.78,555H226.09l-2,5H216l11.31-29.49h8.36l11.09,29.49H238.6Zm-2-5.84-3.32-9.55-3.22,9.55Z"/><path d="M250.17,559.94V530.45h7.65l14.1,18v-18h7.65v29.49h-7.65l-14.1-18v18Z"/><path d="M306.93,559.14a18.11,18.11,0,0,1-6.63,1.46,16,16,0,0,1-11.41-4.42,15.48,15.48,0,0,1-4.46-10.74,15.81,15.81,0,0,1,4.46-10.88A15.65,15.65,0,0,1,300,530a18.36,18.36,0,0,1,6.9,1.5v9.15a8.23,8.23,0,0,0-6.68-3.23,7.46,7.46,0,0,0-5.3,2,8.21,8.21,0,0,0-2.57,6,8.12,8.12,0,0,0,2.39,5.75,8.25,8.25,0,0,0,5.48,2,8.66,8.66,0,0,0,6.68-3.09Z"/><path d="M328.54,537h-9.11v4.91h8.62v6.5h-8.62v5.08h9.11v6.5H311.79V530.45h16.75Z"/><g id="_Group_" data-name="&lt;Group&gt;"><path id="_Path_" data-name="&lt;Path&gt;" class="cls-1" d="M401.36,280.37l-66.24-66.25a1.09,1.09,0,0,0-.94-.27,1.07,1.07,0,0,0-.93.27L267,280.37a1.1,1.1,0,0,0,.78,1.87H297v99h74.31v-99h29.24A1.1,1.1,0,0,0,401.36,280.37Z"/><path id="_Path_2" data-name="&lt;Path&gt;" class="cls-2" d="M267,280.37a1.1,1.1,0,0,0,.78,1.87H297v99h23.52V226.82Z"/><path id="_Path_3" data-name="&lt;Path&gt;" class="cls-3" d="M331.08,145.34l-92-91.95a2.38,2.38,0,0,0-2.58,0l-92,92a1.52,1.52,0,0,0,1.08,2.6h40.6V381.25H289.4V147.94H330A1.52,1.52,0,0,0,331.08,145.34Z"/><rect id="_Rectangle_" data-name="&lt;Rectangle&gt;" class="cls-1" x="98.28" y="198.41" width="104.72" height="185.54"/><path id="_Path_4" data-name="&lt;Path&gt;" class="cls-1" d="M117.91,123.24,47.06,92.87A1.22,1.22,0,0,0,45.36,94V384h73.29V124.36A1.22,1.22,0,0,0,117.91,123.24Z"/><path class="cls-4" d="M402.48,389.38h-388V378.51H38.9V94a6.66,6.66,0,0,1,9.28-6.12L119,118.25a6.65,6.65,0,0,1,4,6.11v68.38h78.65a6.74,6.74,0,0,1,6.73,6.73v179h72.9V209.24h10.87V378.51h67V276.28H385.3l-59.84-59.85-14.93,14.94-7.69-7.69,17.93-17.93a6.64,6.64,0,0,1,9.38,0l70.13,70.13a6.6,6.6,0,0,1-4.66,11.27H370.09v91.36h32.39ZM123.06,378.51h74.51V203.61H123.06Zm-41.9,0h31V159.1h-31Zm-31.39,0H70.3V159.1H49.77Zm0-230.28h62.42V127.14L49.77,100.38Zm123.32,217H130.63V354.39h42.46Zm0-32.33H130.63V322.06h42.46Zm0-29.82H131.83V292.24h41.26Zm0-31.42H131.83V260.82h41.26Zm0-31.42H131.83V229.4h41.26Zm119.12-41.86H281.34V141.09h35.91L236.19,60l-81.06,81.06H191V180H180.17V152H145.64a6.94,6.94,0,0,1-4.91-11.84L231.25,49.6a7,7,0,0,1,9.87,0l90.53,90.52A6.94,6.94,0,0,1,326.74,152H292.21Z"/></g></g></svg>