<svg xmlns="http://www.w3.org/2000/svg" xmlns:xlink="http://www.w3.org/1999/xlink" viewBox="0 0 398.18 584"><defs><style>.cls-1{fill:#fff;}.cls-2,.cls-3{fill:#5bffce;}.cls-2{opacity:0.3;}.cls-3{opacity:0.22;}.cls-4{fill:url(#New_Gradient_Swatch_1);}</style><linearGradient id="New_Gradient_Swatch_1" x1="1.71" y1="223.42" x2="398.18" y2="223.42" gradientUnits="userSpaceOnUse"><stop offset="0" stop-color="#5bffce"/><stop offset="1" stop-color="#00bca5"/></linearGradient></defs><title>4 pillars</title><g id="Layer_1" data-name="Layer 1"><rect class="cls-1" width="398.18" height="584"/><path d="M82.21,500.43a17.62,17.62,0,0,1-23.25,0,15.43,15.43,0,0,1,0-22.06,17.65,17.65,0,0,1,23.25,0,15.43,15.43,0,0,1,0,22.06ZM64.62,483.77a8,8,0,0,0-2.35,5.79A7.47,7.47,0,0,0,64.62,495a8.34,8.34,0,0,0,6,2.34,8,8,0,0,0,8.31-7.95,7.94,7.94,0,0,0-2.38-5.66,8.83,8.83,0,0,0-5.93-2.35A8.49,8.49,0,0,0,64.62,483.77Z"/><path d="M99.36,494.38v9.76H91.71V474.66h12.2a10.19,10.19,0,0,1,7.47,2.65,9.14,9.14,0,0,1,2.74,7.16c0,2.35-.31,5.09-2.61,7.34a9.81,9.81,0,0,1-7.34,2.57Zm0-6.19h2.56a5,5,0,0,0,3.23-.93,3.41,3.41,0,0,0,1-2.7,3.57,3.57,0,0,0-.89-2.65,4.47,4.47,0,0,0-3.27-1.06h-2.6Z"/><path d="M134.94,481.16h-9.11v4.91h8.62v6.49h-8.62v5.09h9.11v6.49H118.18V474.66h16.76Z"/><path d="M151.73,474.66a9.56,9.56,0,0,1,7.21,2.61,9.7,9.7,0,0,1,2.52,6.63,8.49,8.49,0,0,1-2.35,6.14,8.25,8.25,0,0,1-4.06,2l9.23,12.06h-9.5l-7.34-11.31v11.31H139.8V474.66Zm-4.29,13.22h1.46a5.74,5.74,0,0,0,3.72-1.2,3.66,3.66,0,0,0,1-2.47,3.51,3.51,0,0,0-1-2.48,5.23,5.23,0,0,0-3.67-1.15h-1.46Z"/><path d="M185.5,499.19H174.8l-2,4.95h-8.09L176,474.66h8.35l11.1,29.48h-8.18Zm-2-5.83-3.32-9.55-3.23,9.55Z"/><path d="M208.7,481.16v23h-7.64v-23h-6.28v-6.5H215v6.5Z"/><path d="M226,474.66v29.48h-7.65V474.66Z"/><path d="M258.78,500.43a17.62,17.62,0,0,1-23.25,0,15.43,15.43,0,0,1,0-22.06,17.65,17.65,0,0,1,23.25,0,15.43,15.43,0,0,1,0,22.06Zm-17.59-16.66a8.08,8.08,0,0,0-2.35,5.79,7.47,7.47,0,0,0,2.35,5.48,8.34,8.34,0,0,0,6,2.34,8,8,0,0,0,8.31-7.95,7.94,7.94,0,0,0-2.38-5.66,8.83,8.83,0,0,0-5.93-2.35A8.49,8.49,0,0,0,241.19,483.77Z"/><path d="M268.28,504.14V474.66h7.65l14.1,18v-18h7.64v29.48H290l-14.1-18v18Z"/><path d="M321.85,499.19h-10.7l-2,4.95h-8.09l11.32-29.48h8.35l11.1,29.48h-8.18Zm-2-5.83-3.32-9.55-3.23,9.55Z"/><path d="M342.89,474.66v23h9.19v6.49H335.24V474.66Z"/><path d="M72.4,536.23H63.29v4.9h8.62v6.5H63.29v5.08H72.4v6.5H55.64V529.73H72.4Z"/><path d="M85.7,543.48l-9.46-13.75H85.7l4.37,7.65,4.56-7.65H104l-9.59,13.75,11.14,15.73H96.31L90,549.62l-6.63,9.59H74.16Z"/><path d="M127.64,558.42a18.27,18.27,0,0,1-6.63,1.45,16,16,0,0,1-11.4-4.42,15.46,15.46,0,0,1-4.46-10.74,15.47,15.47,0,0,1,15.6-15.47,18.15,18.15,0,0,1,6.89,1.51v9.15a8.2,8.2,0,0,0-6.67-3.23,7.45,7.45,0,0,0-5.3,1.94,7.86,7.86,0,0,0,5.3,13.84,8.62,8.62,0,0,0,6.67-3.1Z"/><path d="M149.26,536.23h-9.11v4.9h8.62v6.5h-8.62v5.08h9.11v6.5H132.5V529.73h16.76Z"/><path d="M161.76,529.73v23H171v6.5H154.12V529.73Z"/><path d="M182.54,529.73v23h9.19v6.5H174.89V529.73Z"/><path d="M212.42,536.23h-9.11v4.9h8.62v6.5h-8.62v5.08h9.11v6.5H195.66V529.73h16.76Z"/><path d="M217.28,559.21V529.73h7.64l14.1,18v-18h7.65v29.48H239l-14.1-18v18Z"/><path d="M274,558.42a18.27,18.27,0,0,1-6.63,1.45A16,16,0,0,1,256,555.45a15.46,15.46,0,0,1-4.46-10.74,15.47,15.47,0,0,1,15.6-15.47,18.15,18.15,0,0,1,6.9,1.51v9.15a8.22,8.22,0,0,0-6.68-3.23,7.45,7.45,0,0,0-5.3,1.94,7.86,7.86,0,0,0,5.3,13.84,8.65,8.65,0,0,0,6.68-3.1Z"/><path d="M295.64,536.23h-9.11v4.9h8.62v6.5h-8.62v5.08h9.11v6.5H278.89V529.73h16.75Z"/><g id="_Group_" data-name="&lt;Group&gt;"><path id="_Path_" data-name="&lt;Path&gt;" class="cls-2" d="M361.34,78.75a28.27,28.27,0,1,1-8.28-20A28.17,28.17,0,0,1,361.34,78.75Z"/><path id="_Path_2" data-name="&lt;Path&gt;" class="cls-1" d="M197.92,58.85a81.06,81.06,0,0,0-46.36,73.25v171h92.72v-171A81.06,81.06,0,0,0,197.92,58.85Z"/><path id="_Path_3" data-name="&lt;Path&gt;" class="cls-1" d="M197.92,58.85a81.06,81.06,0,0,0-46.36,73.25v171h92.72v-171A81.06,81.06,0,0,0,197.92,58.85Z"/><path id="_Path_4" data-name="&lt;Path&gt;" class="cls-3" d="M197.92,58.85A80.93,80.93,0,0,0,185.8,66.1a81,81,0,0,1,34.24,66v171h24.24v-171A81.06,81.06,0,0,0,197.92,58.85Z"/><path id="_Path_5" data-name="&lt;Path&gt;" class="cls-2" d="M278.79,343.87v28.76a25.57,25.57,0,0,0,14.62,23.1A25.56,25.56,0,0,0,308,372.63V343.87Z"/><path id="_Path_6" data-name="&lt;Path&gt;" class="cls-2" d="M183.3,343.87v28.76a25.56,25.56,0,0,0,14.62,23.1,25.56,25.56,0,0,0,14.62-23.1V343.87Z"/><path id="_Path_7" data-name="&lt;Path&gt;" class="cls-2" d="M87.81,343.87v28.76a25.56,25.56,0,0,0,14.62,23.1,25.56,25.56,0,0,0,14.62-23.1V343.87Z"/><path id="_Path_8" data-name="&lt;Path&gt;" class="cls-1" d="M313.54,327.51H273.28V253.25a35.19,35.19,0,0,1,20.13-31.8h0a35.17,35.17,0,0,1,20.13,31.8Z"/><path id="_Path_9" data-name="&lt;Path&gt;" class="cls-1" d="M218.66,327.51H178.4V253.25a35.19,35.19,0,0,1,20.13-31.8h0a35.19,35.19,0,0,1,20.13,31.8Z"/><path id="_Path_10" data-name="&lt;Path&gt;" class="cls-1" d="M122.9,327.51H82.64V253.25a35.17,35.17,0,0,1,20.13-31.8h0a35.19,35.19,0,0,1,20.13,31.8Z"/><circle id="_Path_11" data-name="&lt;Path&gt;" class="cls-2" cx="199.75" cy="156.09" r="18.91"/><path class="cls-4" d="M293.41,402.37l-2.57-1.21a31.73,31.73,0,0,1-18-28.53V343.87h12v28.76a19.67,19.67,0,0,0,8.61,16.21A19.68,19.68,0,0,0,302,372.63V343.87h12v28.76A31.72,31.72,0,0,1,296,401.16Zm-95.32,0-2.57-1.21a31.71,31.71,0,0,1-18.05-28.53V343.87h12v28.76a19.68,19.68,0,0,0,8.62,16.21,19.68,19.68,0,0,0,8.62-16.21V343.87h12v28.76a31.72,31.72,0,0,1-18.06,28.53Zm-95.32,0-2.57-1.21a31.72,31.72,0,0,1-18.06-28.53V343.87h12v28.76a19.68,19.68,0,0,0,8.62,16.21,19.67,19.67,0,0,0,8.61-16.21V343.87h12v28.76a31.71,31.71,0,0,1-18,28.53Zm216.44-68.86H266.94V304.87L250.89,288v21.15H232.07v-12h6.81v-165a74.5,74.5,0,0,0-4.51-25.51H162.69a74.74,74.74,0,0,0-4.51,25.51v165h6.19v12h-18.2V288L128.9,306.15v27.36H76.63V253.25A41.38,41.38,0,0,1,100.2,216l2.57-1.22,2.57,1.22a41.39,41.39,0,0,1,23.56,37.23v6.18l17.27-18.2V132.1A87.44,87.44,0,0,1,196,53.42l2.57-1.21,2.57,1.21a87.44,87.44,0,0,1,49.79,78.68V241.23l16.05,16.91v-4.89A41.39,41.39,0,0,1,290.5,216l2.57-1.22,2.57,1.22a41.38,41.38,0,0,1,23.57,37.23ZM279,321.5H307.2v-35H279Zm-190.31,0h28.25v-35H88.64Zm40.26-44.63v11.84l17.27-18.2V258.68Zm122-6.36,16.05,16.91V275.59l-16.05-16.91Zm28.06,4H307.2V253.25a29.31,29.31,0,0,0-14.13-25,29.33,29.33,0,0,0-14.12,25Zm-190.31,0h28.25V253.25a29.33,29.33,0,0,0-14.12-25,29.31,29.31,0,0,0-14.13,25ZM168.3,94.58h60.46a75.12,75.12,0,0,0-30.23-29A75.12,75.12,0,0,0,168.3,94.58Zm55.75,238.93H171.79V253.25A41.39,41.39,0,0,1,195.35,216l2.57-1.22,2.57,1.22a41.39,41.39,0,0,1,23.56,37.23Zm-40.25-12H212v-35H183.8Zm0-47H212V253.25a29.3,29.3,0,0,0-14.12-25,29.33,29.33,0,0,0-14.12,25Zm198.83-3L374.14,263a41.07,41.07,0,0,0-22.57-69.59,36.07,36.07,0,0,1-10.5,22.43l-8.49-8.49a24.32,24.32,0,1,0-41.53-17.2v6H263.89v-12h15.65a36.35,36.35,0,0,1,71.07-3,53.07,53.07,0,0,1,32,90.31ZM198.53,181a24.92,24.92,0,1,1,24.91-24.92A24.94,24.94,0,0,1,198.53,181Zm0-37.82a12.91,12.91,0,1,0,12.9,12.9A12.92,12.92,0,0,0,198.53,143.19ZM52.5,169.5,44,161a17.74,17.74,0,1,0-30.29-12.54h-12a29.75,29.75,0,0,1,48.8-22.86A38.19,38.19,0,0,1,123.59,134h13.95v12H112.05v-6a26.18,26.18,0,0,0-52.34-1A29.82,29.82,0,0,1,52.5,169.5ZM333.07,113a34.28,34.28,0,1,1,24.24-10A34.06,34.06,0,0,1,333.07,113Zm0-56.55A22.26,22.26,0,1,0,348.82,63,22.12,22.12,0,0,0,333.07,56.48Z"/></g></g></svg>