<svg xmlns="http://www.w3.org/2000/svg" xmlns:xlink="http://www.w3.org/1999/xlink" viewBox="0 0 415.18 584"><defs><style>.cls-1{fill:#fff;}.cls-2,.cls-4{opacity:0.19;}.cls-3,.cls-4{fill:#00bca5;}.cls-5{fill:url(#New_Gradient_Swatch_1);}</style><linearGradient id="New_Gradient_Swatch_1" y1="228.31" x2="406.65" y2="228.31" gradientUnits="userSpaceOnUse"><stop offset="0" stop-color="#5bffce"/><stop offset="1" stop-color="#00bca5"/></linearGradient></defs><title>4 pillars</title><g id="Layer_1" data-name="Layer 1"><rect class="cls-1" width="415.18" height="584"/><path d="M76.09,502.62a18.11,18.11,0,0,1-6.63,1.46,16,16,0,0,1-11.4-4.42,15.43,15.43,0,0,1-4.47-10.74A15.48,15.48,0,0,1,69.2,473.45a18.28,18.28,0,0,1,6.89,1.5v9.15a8.19,8.19,0,0,0-6.67-3.22,7.5,7.5,0,0,0-5.31,1.94,8.24,8.24,0,0,0-2.56,6.06,8.1,8.1,0,0,0,2.39,5.74,8.19,8.19,0,0,0,5.48,2,8.67,8.67,0,0,0,6.67-3.1Z"/><path d="M88.6,473.94V491.4A6,6,0,0,0,90.1,496a5.44,5.44,0,0,0,7.16.13C99,494.54,99,492.37,99,490.73V473.94h7.64v16.93c0,3.09-.13,6.32-3.31,9.54-2.48,2.52-5.57,3.67-9.73,3.67-4.64,0-8-1.59-9.77-3.53C81.26,497.76,81,494,81,490.87V473.94Z"/><path d="M114.76,494.58a10.33,10.33,0,0,0,6.77,3,3.9,3.9,0,0,0,3-1,2.65,2.65,0,0,0,.75-1.86,2.31,2.31,0,0,0-.84-1.77c-.75-.66-1.9-1-3.8-1.54l-2-.62a9.66,9.66,0,0,1-4.25-2.39,7.4,7.4,0,0,1-1.67-5.21,9.64,9.64,0,0,1,2.69-7.12,10.41,10.41,0,0,1,7.56-2.79,20.72,20.72,0,0,1,9.11,2.39l-3.05,6a7.81,7.81,0,0,0-5-2,3.7,3.7,0,0,0-2.52.88,2.2,2.2,0,0,0-.75,1.59,2,2,0,0,0,.39,1.33,4.78,4.78,0,0,0,2.57,1.33l2.34.7a11.31,11.31,0,0,1,5.35,2.92,7,7,0,0,1,1.9,5.26,10,10,0,0,1-2.79,7.43c-2.52,2.52-5.57,3-8.7,3a15.63,15.63,0,0,1-5.79-1,20.47,20.47,0,0,1-4.47-2.34Z"/><path d="M149.19,480.44v23h-7.64v-23h-6.28v-6.5h20.2v6.5Z"/><path d="M185.44,499.71a17.65,17.65,0,0,1-23.25,0,15.43,15.43,0,0,1,0-22.06,17.62,17.62,0,0,1,23.25,0,15.43,15.43,0,0,1,0,22.06ZM167.85,483a8.07,8.07,0,0,0-2.35,5.79,7.47,7.47,0,0,0,2.35,5.48,8.35,8.35,0,0,0,6,2.35,8,8,0,0,0,8.31-8,8,8,0,0,0-2.38-5.66,8.87,8.87,0,0,0-5.93-2.34A8.48,8.48,0,0,0,167.85,483Z"/><path d="M193,503.42l5-29.48h7.56l6,15.73,6.32-15.73h7.65L230,503.42H222.3l-2.17-17-7.11,17H210l-6.81-17-2.52,17Z"/><path d="M251.56,480.44h-9.11v4.9h8.62v6.5h-8.62v5.08h9.11v6.5H234.81V473.94h16.75Z"/><path d="M268.35,473.94a9.52,9.52,0,0,1,7.21,2.61,9.68,9.68,0,0,1,2.52,6.63,8.49,8.49,0,0,1-2.35,6.14,8.19,8.19,0,0,1-4.06,2l9.24,12.07H271.4l-7.33-11.32v11.32h-7.65V473.94Zm-4.28,13.21h1.45a5.79,5.79,0,0,0,3.72-1.19,3.69,3.69,0,0,0,1-2.48,3.45,3.45,0,0,0-1-2.47,5.17,5.17,0,0,0-3.67-1.15h-1.45Z"/><path d="M71.67,535.5h-9.1v4.91h8.61v6.5H62.57V552h9.1v6.5H54.92V529H71.67Z"/><path d="M76.53,558.49V529h7.65l14.1,18V529h7.65v29.49H98.28l-14.1-18v18Z"/><path d="M126.26,541.78h15.2c0,5.83-1.19,10-4.73,13.26a14.4,14.4,0,0,1-10.39,3.71A15.23,15.23,0,0,1,115,554.38a14.86,14.86,0,0,1-4.25-10.66,15.35,15.35,0,0,1,4.43-11.05,17.13,17.13,0,0,1,19.4-2.34,14.41,14.41,0,0,1,5.26,6.06l-7.29,3a7.15,7.15,0,0,0-2.13-3,6.18,6.18,0,0,0-4.11-1.46,7.14,7.14,0,0,0-5,2,10,10,0,0,0-2.56,6.77,9.22,9.22,0,0,0,2.34,6.36,7,7,0,0,0,5.4,2.26,6.31,6.31,0,0,0,4.24-1.37,5.23,5.23,0,0,0,1.81-3.27h-6.27Z"/><path d="M162.63,553.54h-10.7l-2,5h-8.08L153.17,529h8.36l11.09,29.49h-8.18Zm-2-5.84-3.32-9.55-3.22,9.55Z"/><path d="M189.28,541.78h15.21c0,5.83-1.2,10-4.73,13.26a14.41,14.41,0,0,1-10.39,3.71c-5.3,0-8.93-1.94-11.31-4.37a14.82,14.82,0,0,1-4.25-10.66,15.39,15.39,0,0,1,4.42-11.05,17.15,17.15,0,0,1,19.41-2.34,14.41,14.41,0,0,1,5.26,6.06l-7.3,3a7.23,7.23,0,0,0-2.12-3,6.18,6.18,0,0,0-4.11-1.46,7.12,7.12,0,0,0-5,2,10,10,0,0,0-2.56,6.77,9.22,9.22,0,0,0,2.34,6.36,7,7,0,0,0,5.39,2.26,6.32,6.32,0,0,0,4.25-1.37,5.33,5.33,0,0,0,1.81-3.27h-6.28Z"/><path d="M226.1,535.5H217v4.91h8.62v6.5H217V552h9.11v6.5H209.35V529H226.1Z"/><path d="M229.63,558.49l5-29.49h7.56l6,15.74L254.48,529h7.64l4.42,29.49H258.9l-2.17-17-7.12,17h-3.05l-6.8-17-2.52,17Z"/><path d="M288.15,535.5h-9.1v4.91h8.62v6.5h-8.62V552h9.1v6.5H271.4V529h16.75Z"/><path d="M293,558.49V529h7.65l14.1,18V529h7.65v29.49h-7.65l-14.1-18v18Z"/><path d="M339.73,535.5v23h-7.64v-23h-6.28V529H346v6.5Z"/><g id="_Group_" data-name="&lt;Group&gt;"><g id="_Group_2" data-name="&lt;Group&gt;" class="cls-2"><path id="_Path_" data-name="&lt;Path&gt;" class="cls-3" d="M117.58,237.64a36.37,36.37,0,1,0-72.73,0l3.5,43.67a17.06,17.06,0,0,0,9.11,13.86l17.6,11.58H86.72L105,295.17a17,17,0,0,0,9.11-13.86Z"/><path id="_Path_2" data-name="&lt;Path&gt;" class="cls-3" d="M150.36,342.2,102.3,325.83v-27H59.78v27L11.72,342.2a8.65,8.65,0,0,0-5.88,8.21v39.21h150.4V350.41A8.65,8.65,0,0,0,150.36,342.2Z"/></g><g id="_Group_3" data-name="&lt;Group&gt;" class="cls-2"><path id="_Path_3" data-name="&lt;Path&gt;" class="cls-3" d="M361.18,237.64a36.36,36.36,0,1,0-72.72,0l3.5,43.67a17,17,0,0,0,9.11,13.86l17.6,11.58h11.65l18.25-11.58a17,17,0,0,0,9.11-13.86Z"/><path id="_Path_4" data-name="&lt;Path&gt;" class="cls-3" d="M394,342.2,345.9,325.83v-27H303.38v27L255.32,342.2a8.66,8.66,0,0,0-5.87,8.21v39.21H399.84V350.41A8.66,8.66,0,0,0,394,342.2Z"/></g><g id="_Group_4" data-name="&lt;Group&gt;"><path id="_Path_5" data-name="&lt;Path&gt;" class="cls-1" d="M245.33,268.44a38.36,38.36,0,0,0-76.71,0l3.7,46.07a18,18,0,0,0,9.61,14.62l18.56,12.21h12.29L232,329.13a18,18,0,0,0,9.61-14.62Z"/><path id="_Path_6" data-name="&lt;Path&gt;" class="cls-1" d="M279.91,378.73l-50.69-17.27V333H184.37v28.45l-50.7,17.27a9.14,9.14,0,0,0-6.19,8.66v41.36H286.11V387.39A9.14,9.14,0,0,0,279.91,378.73Z"/></g><path id="_Path_7" data-name="&lt;Path&gt;" class="cls-1" d="M393.4,22.64H19a1.79,1.79,0,0,0-1.79,1.79V137.72A1.79,1.79,0,0,0,19,139.51H60.43L80.94,160a1.2,1.2,0,0,0,1.68,0l20.51-20.52h81.32L205,160a1.2,1.2,0,0,0,1.68,0l20.51-20.52h71.78L319.45,160a1.18,1.18,0,0,0,1.67,0l20.52-20.52H393.4a1.79,1.79,0,0,0,1.79-1.79V24.43A1.79,1.79,0,0,0,393.4,22.64Z"/><path id="_Path_8" data-name="&lt;Path&gt;" class="cls-4" d="M393.4,22.64H19a1.79,1.79,0,0,0-1.79,1.79V51.26H364.78a1.79,1.79,0,0,1,1.79,1.79v86.46H393.4a1.79,1.79,0,0,0,1.79-1.79V24.43A1.79,1.79,0,0,0,393.4,22.64Z"/><path class="cls-5" d="M319.7,440.56H96.14V423.41h22.13V390.63a17.71,17.71,0,0,1,12-16.78l44.88-15.29V338.71a26.36,26.36,0,0,1-12-20.33l-3.71-46.7a46.93,46.93,0,0,1,93.86,0l0,.69-3.69,46.07A26.32,26.32,0,0,1,237.16,339v19.61l44.89,15.29a17.71,17.71,0,0,1,12,16.78v32.78H319.7ZM135.43,423.41H276.9V390.63a.55.55,0,0,0-.38-.54l-44.62-15.2L219,389.6H194.24l-13.15-14.94-45.28,15.43a.55.55,0,0,0-.38.54Zm66.56-51h9.21l8.81-10V349.75l-5.37,3.41H197.29l-5-3.27v11.57Zm.44-36.43h7.23l17.77-11.25a9.29,9.29,0,0,0,5-7.63l3.68-45.77a29.78,29.78,0,0,0-59.56,0l3.67,45.71a9.33,9.33,0,0,0,5,7.69l.74.44Zm204.22,48.27H389.5V345.9L348.55,332l-11.93,13.56H313.13L301,331.81,259.39,346l-5.53-16.24,41.23-14V298.06a25,25,0,0,1-11.16-19.15l-3.45-43.38a44.17,44.17,0,1,1,88.33,0l0,.68L365.36,279a25,25,0,0,1-11.5,19.32v17.42l41.23,14a17,17,0,0,1,11.56,16.15Zm-85.77-55.87h8l7.83-8.9V309.1l-4.18,2.66H316.06l-3.82-2.51v9.36Zm.31-33.81h6.35l16.39-10.36a8,8,0,0,0,4.32-6.59l3.41-42.44a27,27,0,0,0-54,0l3.4,42.38a8.08,8.08,0,0,0,4.33,6.65l.75.44Zm-304,89.68H0V345.9a17.06,17.06,0,0,1,11.56-16.15l41.23-14V298.29a25.1,25.1,0,0,1-11.5-19.35l-3.45-43.41a44.17,44.17,0,0,1,88.34,0l0,.68L122.72,279a25,25,0,0,1-11.16,19.09v17.65l41.24,14L147.27,346l-41.63-14.18L93.52,345.57H70L58.1,332l-41,14Zm60.64-55.87h8l8.64-9.8v-9.36l-3.81,2.51H74.13L70,309.1v10.41Zm1.32-33.81h6.35l15.83-10.36a8.19,8.19,0,0,0,4.33-6.59l3.4-42.44a27,27,0,0,0-54,0l3.41,42.45a8,8,0,0,0,4.33,6.58l.63.36ZM205.8,170.94a9.7,9.7,0,0,1-6.9-2.86l-18-18H106.69l-18,18a9.77,9.77,0,0,1-13.8,0l-18-18H19A10.38,10.38,0,0,1,8.58,139.71V26.42A10.38,10.38,0,0,1,19,16.06H393.4a10.37,10.37,0,0,1,10.36,10.36V139.71a10.38,10.38,0,0,1-10.36,10.37H345.19l-18,18a9.77,9.77,0,0,1-13.81,0l-18-18H230.71l-18,18A9.74,9.74,0,0,1,205.8,170.94Zm17.8-38h78.89l17.79,17.8,17.8-17.8h48.53V33.21H25.73v99.72H64l17.8,17.8,17.8-17.8H188l17.8,17.8Zm91.33-43.07H291.71V72.7h23.22Zm-47.7,0H244V72.7h23.22Zm-47.71,0H196.31V72.7h23.21Zm-47.7,0H148.61V72.7h23.21Zm-47.7,0H100.91V72.7h23.21Z"/></g></g></svg>