<?xml version="1.0" encoding="utf-8"?>
<!-- Generator: Adobe Illustrator 22.1.0, SVG Export Plug-In . SVG Version: 6.00 Build 0)  -->
<svg version="1.1" id="Layer_1" xmlns="http://www.w3.org/2000/svg" xmlns:xlink="http://www.w3.org/1999/xlink" x="0px" y="0px"
	 viewBox="0 0 500 500" style="enable-background:new 0 0 500 500;" xml:space="preserve">
<style type="text/css">
	.st0{fill:#FFFFFF;}
	.st1{fill:#1E1E1E;}
</style>
<circle class="st0" cx="250" cy="250" r="250"/>
<g>
	<g>
		<path class="st1" d="M144.4,304c0,7.1-2.7,12.5-8.1,16.3s-13,5.7-22.9,5.7c-10.6,0-18.9-1.6-25.1-4.9v-7.8c7.9,4,16.3,6,25.1,6
			c7.8,0,13.7-1.3,17.8-3.9c4-2.6,6.1-6,6.1-10.4c0-4-1.6-7.3-4.8-10c-3.2-2.7-8.5-5.4-15.9-8c-7.9-2.9-13.4-5.3-16.6-7.4
			c-3.2-2.1-5.6-4.4-7.2-7c-1.6-2.6-2.4-5.8-2.4-9.5c0-5.9,2.5-10.6,7.4-14c5-3.4,11.9-5.2,20.8-5.2c8.5,0,16.6,1.6,24.3,4.8
			l-2.7,6.5c-7.8-3.2-14.9-4.8-21.6-4.8c-6.4,0-11.6,1.1-15.3,3.2c-3.8,2.1-5.7,5.1-5.7,8.9c0,4.1,1.5,7.4,4.4,9.9
			c2.9,2.5,8.7,5.2,17.2,8.3c7.1,2.6,12.3,4.9,15.5,6.9c3.2,2.1,5.7,4.4,7.3,7C143.6,297.4,144.4,300.5,144.4,304z"/>
		<path class="st1" d="M171,245.6v51.2c0,7.9,1.7,13.7,5,17.3c3.3,3.6,8.5,5.4,15.5,5.4c9.4,0,16.3-2.4,20.7-7.1s6.6-12.5,6.6-23.2
			v-43.6h7.1v79h-6.1l-1.3-10.9h-0.4c-5.1,8.2-14.3,12.4-27.4,12.4c-18,0-27-9.6-27-28.8v-51.6H171z"/>
		<path class="st1" d="M251.5,223.7c0-4.6,1.5-7,4.6-7c1.5,0,2.7,0.6,3.5,1.8c0.8,1.2,1.3,2.9,1.3,5.2c0,2.2-0.4,3.9-1.3,5.2
			c-0.8,1.3-2,1.9-3.5,1.9C253,230.7,251.5,228.4,251.5,223.7z M259.7,324.6h-7.2v-79h7.2V324.6z"/>
		<path class="st1" d="M307,319.7c4.6,0,8.5-0.4,11.9-1.2v5.8c-3.5,1.2-7.5,1.7-12.1,1.7c-7,0-12.1-1.9-15.4-5.6
			c-3.3-3.7-5-9.6-5-17.6v-51h-11.7v-4.2l11.7-3.3l3.6-17.9h3.7v19.1h23.2v6.2h-23.2v50c0,6.1,1.1,10.5,3.2,13.4
			C299.1,318.2,302.4,319.7,307,319.7z"/>
		<path class="st1" d="M367.9,326c-11.5,0-20.4-3.5-26.8-10.6c-6.4-7.1-9.6-17-9.6-29.7c0-12.6,3.1-22.7,9.3-30.3
			c6.2-7.6,14.6-11.4,25.1-11.4c9.3,0,16.6,3.2,22,9.7c5.4,6.5,8.1,15.3,8.1,26.4v5.8h-56.9c0.1,10.9,2.6,19.1,7.6,24.8
			s12.1,8.6,21.3,8.6c4.5,0,8.5-0.3,11.9-0.9c3.4-0.6,7.7-2,13-4.1v6.5c-4.5,1.9-8.6,3.3-12.4,4C376.6,325.7,372.4,326,367.9,326z
			 M365.8,250.5c-7.6,0-13.7,2.5-18.3,7.5c-4.6,5-7.3,12.2-8.1,21.7h48.8c0-9.2-2-16.3-6-21.5C378.3,253.1,372.8,250.5,365.8,250.5z
			"/>
	</g>
	<g>
		<path d="M106.5,194.6l-9,0l-1.7,4.2l-6.8,0l9.6-24.8l7,0l9.3,24.8l-6.9,0L106.5,194.6z M104.8,189.7l-2.8-8l-2.7,8L104.8,189.7z"
			/>
		<path d="M137.1,174.1l-0.1,19.3l7.7,0l0,5.5l-14.2,0l0.1-24.8L137.1,174.1z"/>
		<path d="M167.5,174.2l-0.1,19.3l7.7,0l0,5.5l-14.2,0l0.1-24.8L167.5,174.2z"/>
		<path d="M191.7,186.6l9.4,0l0,4.9l-9.4,0L191.7,186.6z"/>
		<path d="M224.9,174.4l-0.1,24.8l-6.4,0l0.1-24.8L224.9,174.4z"/>
		<path d="M242.8,199.3l0.1-24.8l6.4,0l11.8,15.2l0.1-15.2l6.4,0l-0.1,24.8l-6.4,0l-11.8-15.2l-0.1,15.2L242.8,199.3z"/>
		<path d="M284.9,186.9l9.4,0l0,4.9l-9.4,0L284.9,186.9z"/>
		<path d="M333.9,196.4c-2.5,2.4-6.1,3.7-9.8,3.7c-3.7,0-7.3-1.3-9.8-3.7c-2.6-2.5-3.9-6-3.9-9.3c0-3.3,1.3-6.8,3.9-9.3
			c2.5-2.4,6.1-3.7,9.8-3.6c3.7,0,7.3,1.3,9.8,3.7c2.6,2.5,3.9,6,3.9,9.3C337.9,190.5,336.6,193.9,333.9,196.4z M319.2,182.4
			c-1.3,1.3-2,3.1-2,4.9c0,2.2,1,3.7,2,4.6c1.2,1.2,2.9,2,5,2c2.2,0,3.8-0.8,5-1.9c1.2-1.1,2-2.9,2-4.8c0-1.9-0.8-3.6-2-4.8
			c-1.4-1.3-3.3-2-5-2C322.4,180.4,320.5,181,319.2,182.4z"/>
		<path d="M354.8,199.6l0.1-24.8l6.4,0l11.8,15.2l0.1-15.2l6.4,0l-0.1,24.8l-6.4,0l-11.8-15.2l-0.1,15.2L354.8,199.6z"/>
		<path d="M411.7,180.5l-7.7,0l0,4.1l7.3,0l0,5.5l-7.3,0l0,4.3l7.7,0l0,5.5l-14.1,0l0.1-24.8l14.1,0L411.7,180.5z"/>
	</g>
</g>
</svg>
