<?xml version="1.0" encoding="UTF-8"?>
<svg width="899px" height="632px" viewBox="0 0 899 632" version="1.1" xmlns="http://www.w3.org/2000/svg" xmlns:xlink="http://www.w3.org/1999/xlink">
    <!-- Generator: Sketch 46.2 (44496) - http://www.bohemiancoding.com/sketch -->
    <title>Circles Copy</title>
    <desc>Created with Sketch.</desc>
    <defs></defs>
    <g id="Homepage" stroke="none" stroke-width="1" fill="none" fill-rule="evenodd" fill-opacity="0.4">
        <g id="Homepage---Desktop" transform="translate(-541.000000, -2022.000000)" fill="#F2F5F8">
            <g id="Marketing" transform="translate(0.000000, 2022.000000)">
                <g id="Circles-Copy">
                    <g transform="translate(1093.763047, 407.209798) rotate(-300.000000) translate(-1093.763047, -407.209798) translate(511.263047, 11.709798)">
                        <path d="M109.374076,373.053801 C4.35390595,435.191289 -31.228528,572.095593 29.9084028,678.844763 C91.0335845,785.593934 225.726344,821.76218 330.746514,759.624692 C435.76081,697.487204 471.33737,560.5829 410.212188,453.83373 C349.087006,347.084559 214.394247,310.922285 109.374076,373.053801 M196.999565,526.07468 C218.841316,513.146786 246.957138,520.700498 259.67564,542.901841 C272.388268,565.103185 264.956903,593.681891 243.121026,606.603813 C221.2734,619.531707 193.157578,611.983967 180.444951,589.776652 C167.732323,567.575308 175.151939,538.996602 196.999565,526.07468" id="Fill-1"></path>
                        <path d="M576.906598,357.089209 C513.895343,394.368043 492.544665,476.510582 529.224789,540.560603 C565.904913,604.610625 646.71526,626.313277 709.726515,589.034444 C772.73777,551.749633 794.088448,469.601117 757.402444,405.551095 C720.7282,341.507051 639.917853,319.810375 576.906598,357.089209 M587.972964,376.412997 C640.400022,345.398107 707.87428,363.514533 738.392049,416.805872 C768.903938,470.091234 751.081326,538.683811 698.654268,569.698701 C646.233091,600.719568 578.752953,582.603142 548.241064,529.311803 C517.729175,476.020464 535.551787,407.433865 587.972964,376.412997" id="Fill-4"></path>
                        <path d="M599.503071,395.181846 C556.149881,420.827162 541.469342,477.33896 566.699863,521.404885 C591.930384,565.46483 647.522259,580.3927 690.869565,554.747384 C734.222755,529.096088 748.909178,472.58429 723.678657,428.524345 C698.442252,384.464401 642.844493,369.536531 599.503071,395.181846 M610.576727,414.523486 C643.362283,395.122039 685.562212,406.455499 704.649855,439.780055 C723.731613,473.110593 712.587348,516.004298 679.795908,535.399764 C647.010353,554.79523 604.810424,543.467751 585.722781,510.143195 C566.641023,476.812657 577.791172,433.924933 610.576727,414.523486" id="Fill-6"></path>
                        <path d="M838.429432,43.9962953 C862.619148,86.2434714 848.54057,140.422332 806.981634,165.009192 C765.416863,189.601982 712.118972,175.292264 687.923421,133.045088 C663.733705,90.8038417 677.812283,36.6190512 719.377053,12.0262607 C760.935989,-12.5605995 814.239715,1.75504946 838.429432,43.9962953" id="Fill-9"></path>
                    </g>
                </g>
            </g>
        </g>
    </g>
</svg>