<svg xmlns="http://www.w3.org/2000/svg" xmlns:xlink="http://www.w3.org/1999/xlink" viewBox="0 0 558.9 330.64"><defs><style>.cls-1,.cls-2{fill:none;}.cls-1{stroke-miterlimit:10;stroke-width:11px;stroke:url(#New_Gradient_Swatch_1);}.cls-3{opacity:0.39;fill:url(#linear-gradient);}.cls-4{fill:#00bca5;opacity:0.19;}.cls-5{fill:url(#New_Gradient_Swatch_1-2);}</style><linearGradient id="New_Gradient_Swatch_1" y1="165.32" x2="558.9" y2="165.32" gradientUnits="userSpaceOnUse"><stop offset="0" stop-color="#5bffce"/><stop offset="1" stop-color="#00bca5"/></linearGradient><linearGradient id="linear-gradient" x1="340.72" y1="235.49" x2="374.12" y2="235.49" xlink:href="#New_Gradient_Swatch_1"/><linearGradient id="New_Gradient_Swatch_1-2" x1="184.34" y1="182.44" x2="424.92" y2="182.44" xlink:href="#New_Gradient_Swatch_1"/></defs><title>cloud icons</title><g id="Layer_1" data-name="Layer 1"><path class="cls-1" d="M498.72,168.44a125.5,125.5,0,0,0,3.3-29C502,65.32,439.27,5.5,361.84,5.5c-53.21,0-99.45,28.26-123.31,70.09a104.57,104.57,0,0,0-48.07-11.74C135.41,63.85,91,106.42,91,158.9v4h-.37c-47,0-85.14,36.34-85.14,81.11s38.17,81.1,85.14,81.1H468.26c47,0,85.14-36.33,85.14-81.1C553.4,209.91,530.65,180.18,498.72,168.44Z"/><g id="_Group_" data-name="&lt;Group&gt;"><path id="_Path_" data-name="&lt;Path&gt;" class="cls-2" d="M424.22,220.82l-41.07-41.08a1.07,1.07,0,0,0-1.16,0l-41.07,41.08a.68.68,0,0,0,.48,1.16h18.14v61.39h46.07V222h18.13A.68.68,0,0,0,424.22,220.82Z"/><path id="_Path_2" data-name="&lt;Path&gt;" class="cls-3" d="M340.92,220.82a.68.68,0,0,0,.48,1.16h18.14v61.39h14.58V187.62Z"/><path id="_Path_3" data-name="&lt;Path&gt;" class="cls-4" d="M380.64,137.1l-57-57a1.51,1.51,0,0,0-1.6,0l-57,57a1,1,0,0,0,.67,1.61h25.17V283.37H354.8V138.71H380A.94.94,0,0,0,380.64,137.1Z"/><rect id="_Rectangle_" data-name="&lt;Rectangle&gt;" class="cls-2" x="236.3" y="170" width="64.93" height="115.04"/><path id="_Path_4" data-name="&lt;Path&gt;" class="cls-2" d="M248.47,123.39l-43.92-18.83a.77.77,0,0,0-1.06.7V285h45.44v-161A.77.77,0,0,0,248.47,123.39Z"/><path class="cls-5" d="M424.92,288.41H184.34v-6.74h15.14V105.26a4.14,4.14,0,0,1,5.76-3.79l43.92,18.83a4.13,4.13,0,0,1,2.51,3.79v42.4h48.77a4.17,4.17,0,0,1,4.16,4.17v111h45.21v-105h6.73v105h41.55V218.28h16.18l-37.11-37.1-9.26,9.26-4.76-4.77,11.12-11.12a4.12,4.12,0,0,1,5.81,0L423.55,218a4.09,4.09,0,0,1-2.89,7H404.83v56.65h20.09Zm-173.25-6.74h46.19V173.23H251.67Zm-26,0h19.24v-136H225.69Zm-19.47,0H219v-136H206.22Zm0-142.78h38.71V125.81l-38.71-16.59Zm76.47,134.57H256.36v-6.74h26.33Zm0-20H256.36v-6.74h26.33Zm0-18.49H257.1v-6.74h25.59Zm0-19.48H257.1V208.7h25.59Zm0-19.48H257.1v-6.74h25.59Zm73.85-26h-6.73V134.46h22.26L321.81,84.2l-50.26,50.26h22.27v24.15h-6.74V141.2H265.67a4.29,4.29,0,0,1-3-7.34l56.12-56.13a4.35,4.35,0,0,1,6.12,0L381,133.86a4.3,4.3,0,0,1-3,7.34H356.54Z"/></g></g></svg>