<svg xmlns="http://www.w3.org/2000/svg" xmlns:xlink="http://www.w3.org/1999/xlink" viewBox="0 0 558.9 330.64"><defs><style>.cls-1,.cls-2{fill:none;}.cls-1{stroke-miterlimit:10;stroke-width:11px;stroke:url(#New_Gradient_Swatch_1);}.cls-3,.cls-5{fill:#00bca5;}.cls-3,.cls-4{opacity:0.19;}.cls-6{fill:url(#New_Gradient_Swatch_1-2);}</style><linearGradient id="New_Gradient_Swatch_1" y1="165.32" x2="558.9" y2="165.32" gradientUnits="userSpaceOnUse"><stop offset="0" stop-color="#5bffce"/><stop offset="1" stop-color="#00bca5"/></linearGradient><linearGradient id="New_Gradient_Swatch_1-2" x1="202.55" y1="198.97" x2="429.56" y2="198.97" xlink:href="#New_Gradient_Swatch_1"/></defs><title>cloud icons</title><g id="Layer_1" data-name="Layer 1"><path class="cls-1" d="M498.72,168.44a125.5,125.5,0,0,0,3.3-29C502,65.32,439.27,5.5,361.84,5.5c-53.21,0-99.45,28.26-123.31,70.09a104.57,104.57,0,0,0-48.07-11.74C135.41,63.85,91,106.42,91,158.9v4h-.37c-47,0-85.14,36.34-85.14,81.11s38.17,81.1,85.14,81.1H468.26c47,0,85.14-36.33,85.14-81.1C553.4,209.91,530.65,180.18,498.72,168.44Z"/><g id="_Group_" data-name="&lt;Group&gt;"><rect id="_Rectangle_" data-name="&lt;Rectangle&gt;" class="cls-2" x="205.4" y="156.18" width="220.74" height="70.33" rx="0.24" ry="0.24"/><rect id="_Rectangle_2" data-name="&lt;Rectangle&gt;" class="cls-2" x="355.52" y="151.59" width="70.63" height="72.19" rx="0.24" ry="0.24"/><rect id="_Rectangle_3" data-name="&lt;Rectangle&gt;" class="cls-2" x="273.15" y="99.88" width="84.02" height="68.48" rx="0.24" ry="0.24"/><path id="_Path_" data-name="&lt;Path&gt;" class="cls-3" d="M356,99.88H274.3a1.14,1.14,0,0,0-1.15,1.15V114.3h68.46a1.15,1.15,0,0,1,1.15,1.14v52.92H356a1.14,1.14,0,0,0,1.15-1.15V101A1.14,1.14,0,0,0,356,99.88Z"/><path id="_Path_2" data-name="&lt;Path&gt;" class="cls-2" d="M392.64,231.75h-.77A27.88,27.88,0,0,0,350,216a38.19,38.19,0,0,0-74.22-5.49,27.56,27.56,0,0,0-3.3-.68,13.73,13.73,0,0,0-3-.36l.16.16c-.22,0-.42,0-.64,0a26.23,26.23,0,0,0-25.9,22.13H238.8a19.65,19.65,0,0,0-19.59,19.59h193A19.66,19.66,0,0,0,392.64,231.75Z"/><g id="_Group_2" data-name="&lt;Group&gt;" class="cls-4"><path id="_Path_3" data-name="&lt;Path&gt;" class="cls-5" d="M392.64,231.75h-.77a27.91,27.91,0,0,0-26.8-20.14,27.49,27.49,0,0,0-9.55,1.77,28,28,0,0,1,17.14,18.37h.76A19.66,19.66,0,0,1,393,251.34h19.22A19.66,19.66,0,0,0,392.64,231.75Z"/></g><path class="cls-6" d="M309.49,301.47a35.32,35.32,0,1,1,17.12-66.21l-3.31,6A28.5,28.5,0,1,0,338,266.16h6.83A35.35,35.35,0,0,1,309.49,301.47Zm1.22-20.92-24-24,4.83-4.82,19.15,19.15,40.73-40.72,4.83,4.82ZM427,250.18H405.14v-3.41A15.13,15.13,0,0,0,390,231.65h-3.29l-.71-2.46a23,23,0,0,0-34.47-12.93l-4.42,2.83-.8-5.18a32.7,32.7,0,0,0-62.86-6.72,16.25,16.25,0,0,1,6.33,12.88H283a9.49,9.49,0,0,0-7-9.14,20.14,20.14,0,0,0-2.88-.21A21.28,21.28,0,0,0,252,228.77l-.46,2.88h-7a15.14,15.14,0,0,0-15.12,15.12v3.41H205.16v-6.82h17.69a22,22,0,0,1,21.68-18.53h1.28A28,28,0,0,1,258,208.24h-7.71v-6.83h11.69v-18.1l-23.54-.15v25.08H220.25v-6.83h11.33V176.29l37.18.24v27.69a30.1,30.1,0,0,1,4.77-.32v-.11a16.14,16.14,0,0,1,3.77.44h0a40,40,0,0,1,13.06-17A39.52,39.52,0,0,1,339.88,189a39.65,39.65,0,0,1,12.2,19.25A29.61,29.61,0,0,1,364,205.78a30,30,0,0,1,27.81,19.11,22,22,0,0,1,19.94,18.47H427Zm-207.55-18.4H207.14a4.6,4.6,0,0,1-4.59-4.59V157.35a4.59,4.59,0,0,1,4.59-4.58h56.65v6.82H209.37V225h10ZM425,227.19H409v-6.82h13.7V207.54H393.46L379.1,195l-7,7.31-4.93-4.71,11.49-12L396,200.72h26.71V155H368.32v-6.82H425a4.59,4.59,0,0,1,4.59,4.58v69.85A4.59,4.59,0,0,1,425,227.19Zm-90.26-14.87a26.69,26.69,0,0,0-36-8.46L295.24,198a33.52,33.52,0,0,1,45.19,10.61ZM409,175.07H393.62v-6.83H409Zm-52-3.3h-83.8a3.53,3.53,0,0,1-3.52-3.52V100a3.53,3.53,0,0,1,3.52-3.52h83.8a3.53,3.53,0,0,1,3.52,3.52v68.26A3.53,3.53,0,0,1,357.06,171.77ZM276.56,165h77.2V103.29h-77.2Zm23-8.55a4.27,4.27,0,0,1-4.28-4.28v-36a4.28,4.28,0,0,1,6.41-3.7l31.19,18h0A4.29,4.29,0,0,1,335,134v.13a4.28,4.28,0,0,1-2.14,3.7l-31.19,18A4.22,4.22,0,0,1,299.57,156.4Zm2.55-35.87v27.18l23.54-13.59Z"/></g></g></svg>