<svg xmlns="http://www.w3.org/2000/svg" xmlns:xlink="http://www.w3.org/1999/xlink" viewBox="0 0 558.9 330.64"><defs><style>.cls-1,.cls-4{fill:none;}.cls-1{stroke-miterlimit:10;stroke-width:11px;stroke:url(#New_Gradient_Swatch_1);}.cls-2,.cls-5{opacity:0.19;}.cls-3,.cls-5{fill:#00bca5;}.cls-6{fill:url(#New_Gradient_Swatch_1-2);}</style><linearGradient id="New_Gradient_Swatch_1" y1="165.32" x2="558.9" y2="165.32" gradientUnits="userSpaceOnUse"><stop offset="0" stop-color="#5bffce"/><stop offset="1" stop-color="#00bca5"/></linearGradient><linearGradient id="New_Gradient_Swatch_1-2" x1="208.15" y1="192.32" x2="390.75" y2="192.32" xlink:href="#New_Gradient_Swatch_1"/></defs><title>cloud icons</title><g id="Layer_1" data-name="Layer 1"><path class="cls-1" d="M498.72,168.44a125.5,125.5,0,0,0,3.3-29C502,65.32,439.27,5.5,361.84,5.5c-53.21,0-99.45,28.26-123.31,70.09a104.57,104.57,0,0,0-48.07-11.74C135.41,63.85,91,106.42,91,158.9v4h-.37c-47,0-85.14,36.34-85.14,81.11s38.17,81.1,85.14,81.1H468.26c47,0,85.14-36.33,85.14-81.1C553.4,209.91,530.65,180.18,498.72,168.44Z"/><g id="_Group_" data-name="&lt;Group&gt;"><g id="_Group_2" data-name="&lt;Group&gt;" class="cls-2"><path id="_Path_" data-name="&lt;Path&gt;" class="cls-3" d="M261,196.51a16.33,16.33,0,1,0-32.66,0l1.57,19.61a7.63,7.63,0,0,0,4.09,6.22l7.9,5.2h5.24l8.19-5.2a7.63,7.63,0,0,0,4.09-6.22Z"/><path id="_Path_2" data-name="&lt;Path&gt;" class="cls-3" d="M275.67,243.46l-21.59-7.35V224H235v12.11l-21.58,7.35a3.9,3.9,0,0,0-2.64,3.69v17.6h67.54v-17.6A3.9,3.9,0,0,0,275.67,243.46Z"/></g><g id="_Group_3" data-name="&lt;Group&gt;" class="cls-2"><path id="_Path_3" data-name="&lt;Path&gt;" class="cls-3" d="M370.33,196.51a16.33,16.33,0,1,0-32.65,0l1.57,19.61a7.63,7.63,0,0,0,4.09,6.22l7.9,5.2h5.24l8.19-5.2a7.63,7.63,0,0,0,4.09-6.22Z"/><path id="_Path_4" data-name="&lt;Path&gt;" class="cls-3" d="M385.06,243.46l-21.59-7.35V224H344.38v12.11l-21.58,7.35a3.9,3.9,0,0,0-2.64,3.69v17.6H387.7v-17.6A3.91,3.91,0,0,0,385.06,243.46Z"/></g><g id="_Group_4" data-name="&lt;Group&gt;"><path id="_Path_5" data-name="&lt;Path&gt;" class="cls-4" d="M318.31,210.34a17.22,17.22,0,0,0-34.44,0L285.53,231a8,8,0,0,0,4.31,6.56l8.34,5.49h5.52l8.64-5.49a8,8,0,0,0,4.31-6.56Z"/><path id="_Path_6" data-name="&lt;Path&gt;" class="cls-4" d="M333.84,259.86l-22.76-7.75V239.33H290.94v12.78l-22.77,7.75a4.11,4.11,0,0,0-2.78,3.89v18.57h71.23V263.75A4.11,4.11,0,0,0,333.84,259.86Z"/></g><path id="_Path_7" data-name="&lt;Path&gt;" class="cls-4" d="M384.8,100H216.66a.8.8,0,0,0-.81.8v50.87a.8.8,0,0,0,.81.8h18.62l9.21,9.22a.56.56,0,0,0,.76,0l9.21-9.22H291l9.22,9.22a.54.54,0,0,0,.75,0l9.21-9.22h32.23l9.21,9.22a.56.56,0,0,0,.76,0l9.21-9.22H384.8a.8.8,0,0,0,.8-.8V100.77A.8.8,0,0,0,384.8,100Z"/><path id="_Path_8" data-name="&lt;Path&gt;" class="cls-5" d="M384.8,100H216.66a.8.8,0,0,0-.81.8v12H372a.8.8,0,0,1,.8.8v38.82H384.8a.8.8,0,0,0,.8-.8V100.77A.8.8,0,0,0,384.8,100Z"/><path class="cls-6" d="M351.7,287.63H251.32v-7.7h9.94V265.21a8,8,0,0,1,5.39-7.54l20.15-6.86v-8.92a11.83,11.83,0,0,1-5.4-9.13l-1.67-21a21.08,21.08,0,1,1,42.15,0v.3l-1.66,20.69a11.82,11.82,0,0,1-5.57,9.21v8.81l20.16,6.86a8,8,0,0,1,5.39,7.54v14.72H351.7ZM269,279.93h63.53V265.21a.27.27,0,0,0-.17-.25l-20-6.82-5.81,6.6h-11.1l-5.91-6.7L269.13,265a.27.27,0,0,0-.17.25ZM298.85,257H303l3.95-4.49v-5.7l-2.41,1.53h-7.79l-2.23-1.47v5.2Zm.2-16.36h3.24l8-5.05a4.19,4.19,0,0,0,2.25-3.43l1.65-20.55a13.37,13.37,0,0,0-26.74,0l1.64,20.52a4.21,4.21,0,0,0,2.26,3.46l.34.2Zm91.7,21.68h-7.7V245.12l-18.39-6.23L359.3,245H348.76l-5.44-6.17-18.7,6.36-2.48-7.29,18.51-6.31v-7.92a11.26,11.26,0,0,1-5-8.6l-1.55-19.48a19.84,19.84,0,0,1,39.67,0v.31l-1.54,19.2a11.24,11.24,0,0,1-5.16,8.67v7.82l18.51,6.31a7.65,7.65,0,0,1,5.19,7.25Zm-38.51-25.09h3.58l3.52-4V228.6l-1.88,1.19h-7.39l-1.71-1.13v4.21Zm.14-15.18h2.85l7.36-4.66a3.6,3.6,0,0,0,1.94-3l1.53-19.06a12.13,12.13,0,0,0-24.26,0l1.52,19a3.64,3.64,0,0,0,1.95,3l.34.2ZM215.85,262.36h-7.7V245.12a7.65,7.65,0,0,1,5.19-7.25l18.51-6.31v-7.82a11.25,11.25,0,0,1-5.16-8.68l-1.55-19.5a19.84,19.84,0,0,1,39.67,0l0,.31-1.54,19.2a11.21,11.21,0,0,1-5,8.57v7.92l18.51,6.31-2.48,7.29-18.7-6.36L250.14,245H239.6l-5.36-6.08-18.42,6.27Zm27.23-25.09h3.58l3.88-4.4v-4.21l-1.71,1.13h-7.39l-1.88-1.19v4.67Zm.59-15.18h2.85l7.11-4.66a3.63,3.63,0,0,0,1.94-3l1.53-19.06a12.13,12.13,0,0,0-24.26,0l1.53,19.06a3.59,3.59,0,0,0,1.95,3l.28.17Zm56.89-55.53a4.4,4.4,0,0,1-3.1-1.28l-8.08-8.09H256.05L248,165.27a4.4,4.4,0,0,1-6.2,0l-8.08-8.09h-17a4.66,4.66,0,0,1-4.66-4.65V101.66A4.66,4.66,0,0,1,216.66,97H384.8a4.66,4.66,0,0,1,4.66,4.65v50.88a4.66,4.66,0,0,1-4.66,4.65H363.15l-8.08,8.08a4.4,4.4,0,0,1-6.2,0l-8.08-8.09h-29l-8.09,8.08A4.35,4.35,0,0,1,300.56,166.56Zm8-17.07H344l8,8,8-8h21.79V104.71h-162v44.78h17.18l8,8,8-8h39.71l8,8Zm41-19.34H339.14v-7.71h10.42Zm-21.42,0H317.72v-7.71h10.42Zm-21.42,0H296.3v-7.71h10.42Zm-21.42,0H274.88v-7.71H285.3Zm-21.42,0H253.46v-7.71h10.42Z"/></g></g></svg>