<svg xmlns="http://www.w3.org/2000/svg" viewBox="0 0 1632 615"><defs><style>.cls-1{fill:#fff;}</style></defs><title>CLOUD</title><g id="Layer_2" data-name="Layer 2"><path class="cls-1" d="M1572.16,290.17a97.11,97.11,0,0,1-10.81,107.09,131.5,131.5,0,0,1-146.2,199.14c-1.2.22-2.41.42-3.62.6a131.49,131.49,0,0,1-162.73-.68,131.86,131.86,0,0,1-84.47-12.68,132,132,0,0,1-88.23-10.83,131.52,131.52,0,0,1-149.42,4.61,134,134,0,0,1-16.25,1,131.44,131.44,0,0,1-42.24-6.93,131.61,131.61,0,0,1-128.26-25.15,130.92,130.92,0,0,1-89.66,32c-1.37,0-2.73-.1-4.09-.19a130.65,130.65,0,0,1-66.64,16c-3.52-.09-7-.32-10.45-.7a131.46,131.46,0,0,1-158.57-15.18,131.48,131.48,0,0,1-194-107.73q-4.78.24-9.66.1A131.45,131.45,0,0,1,80.27,357.13a131.45,131.45,0,1,1,168.14-184,131.67,131.67,0,0,1,44.73,30.17,131.5,131.5,0,0,1,171.12,17,132.22,132.22,0,0,1,19.06-.84c1,0,2,.06,3,.12a131.66,131.66,0,0,1,125.83-36.58,131.45,131.45,0,0,1,178.89,18.22,137.47,137.47,0,0,1,14.86-.82A131.19,131.19,0,0,1,843.79,206a37.65,37.65,0,0,1-2.51-13.46c0-27.69,30.72-50.14,68.62-50.14,34.69,0,63.36,18.81,68,43.23a131.78,131.78,0,0,1,20.72-4.85c0-.29,0-.6,0-.9a89.21,89.21,0,0,1,160.72-53.33c3.8.48,7.56,1.12,11.25,1.92a42.23,42.23,0,0,1,78.54,28.17q5.84-.51,11.83-.52a133.79,133.79,0,0,1,18.68,1.32,89.21,89.21,0,0,1,130.05-117.4,130.36,130.36,0,0,1,16.27-1.1,97.14,97.14,0,0,1,169.9,85.9,97.14,97.14,0,0,1-23.66,165.32Z"/><rect class="cls-1" y="245" width="1632" height="370"/><path class="cls-1" d="M1687,205l-123,5s-92,91-93,97,105,113,105,113l111-149Z"/></g></svg>