<?xml version="1.0" encoding="utf-8"?>
<!-- Generator: Adobe Illustrator 22.0.1, SVG Export Plug-In . SVG Version: 6.00 Build 0)  -->
<svg version="1.1" id="Layer_1" xmlns="http://www.w3.org/2000/svg" xmlns:xlink="http://www.w3.org/1999/xlink" x="0px" y="0px"
	 viewBox="0 0 142.4 41.5" style="enable-background:new 0 0 142.4 41.5;" xml:space="preserve">
<style type="text/css">
	.st0{fill:#414042;}
	.st1{fill:#38A38F;}
</style>
<g>
	<g>
		<path class="st0" d="M84.3,1.5l0.1-0.6c0.7,0,1.3,0,1.8,0c0.5,0,1,0,1.3,0c0.2,0,0.5,0,0.7,0c0.2,0,0.5,0,0.7,0l7.7,10.6
			c0.3,0.4,0.6,0.9,0.9,1.4L98,11l1.5-6.6c0.1-0.4,0.2-0.8,0.3-1.1c0.1-0.3,0.1-0.7,0.2-1c0-0.2-0.1-0.3-0.3-0.4l-1.8-0.4l0.1-0.7
			c0.7,0,1.3,0,1.8,0c0.5,0,1,0,1.5,0c0.4,0,0.9,0,1.5,0c0.5,0,1.2,0,1.8,0l-0.1,0.6L102.3,2c-0.2,0.1-0.4,0.2-0.4,0.4
			c-0.1,0.3-0.2,0.6-0.2,0.9c-0.1,0.3-0.2,0.7-0.3,1.1l-3.1,13.8l-1.6,0.1L88.5,7.2c-0.3-0.4-0.6-0.8-0.9-1.4
			c-0.1,0.3-0.1,0.6-0.2,0.9c-0.1,0.3-0.1,0.6-0.2,0.8l-1.5,6.8c-0.1,0.5-0.2,0.9-0.3,1.3c-0.1,0.4-0.2,0.8-0.2,1.1
			c0,0.2,0,0.4,0.3,0.4l1.8,0.4l-0.1,0.6c-1.3,0-2.4,0-3.2,0c-0.9,0-2,0-3.3,0l0.1-0.6l2.1-0.5c0.3-0.1,0.4-0.2,0.5-0.4
			c0.1-0.3,0.2-0.7,0.3-1.1c0.1-0.4,0.2-0.9,0.3-1.4L86,4.5c0.1-0.4,0.2-0.8,0.2-1.1c0.1-0.3,0.1-0.6,0.2-0.9c0-0.2,0-0.3-0.3-0.4
			L84.3,1.5z"/>
		<path class="st0" d="M111.3,6.6c2.1,0,3.8,0.5,5.1,1.4c1.3,0.9,1.9,2.2,1.9,3.8c0,2-0.8,3.6-2.3,4.9c-1.5,1.3-3.5,2-6,2
			c-2.2,0-3.9-0.5-5.1-1.4c-1.3-0.9-1.9-2.2-1.9-3.7c0-2,0.8-3.7,2.3-5C106.8,7.2,108.8,6.6,111.3,6.6z M111.2,7.8
			c-1.1,0-2,0.6-2.7,1.7c-0.7,1.1-1.1,2.5-1.1,4.1c0,1.2,0.3,2.1,0.8,2.8c0.5,0.7,1.2,1,2.1,1c1.1,0,2-0.6,2.7-1.7
			c0.7-1.2,1-2.5,1-4c0-1.2-0.3-2.1-0.8-2.8C112.7,8.2,112,7.8,111.2,7.8z"/>
		<path class="st0" d="M133.2,18.4l-2,0.2c-0.2-0.9-0.3-1.8-0.5-2.7c-0.2-0.9-0.3-1.7-0.5-2.6c-1.7,2.1-3.2,3.9-4.6,5.1l-2,0.2
			c-0.1-0.5-0.2-1-0.3-1.5c-0.1-0.5-0.2-1-0.3-1.5c-0.1-0.5-0.2-1-0.3-1.5c-0.1-0.5-0.2-1-0.3-1.5c0-0.2-0.1-0.6-0.2-0.9
			c-0.1-0.4-0.2-0.7-0.3-1.1c-0.1-0.4-0.2-0.8-0.3-1.1c-0.1-0.4-0.2-0.7-0.3-0.9c-0.1-0.1-0.1-0.3-0.2-0.4c-0.1-0.1-0.2-0.2-0.4-0.3
			c-0.2-0.1-0.4-0.1-0.7-0.2c-0.3,0-0.7-0.1-1.2-0.1l0.1-0.6c1.7-0.4,3-0.6,3.9-0.6c0.6,0,1.1,0.1,1.4,0.2c0.3,0.1,0.6,0.3,0.8,0.7
			c0.1,0.2,0.2,0.4,0.3,0.7c0.1,0.3,0.2,0.6,0.3,1c0.1,0.4,0.2,0.8,0.3,1.2c0.1,0.4,0.2,0.8,0.3,1.2c0.1,0.4,0.2,0.8,0.2,1.1
			c0.1,0.4,0.1,0.7,0.2,0.9l0.2,1.4c1.1-1.3,2.1-2.5,2.9-3.8c-0.1-0.6-0.3-1.3-0.5-2c-0.2-0.7-0.4-1.3-0.6-2
			c1.3-0.2,2.5-0.4,3.6-0.6l0.3,0.1c0.6,1.8,1.2,4.1,1.7,6.9l0.2,1.4c0.9-1.1,1.6-2.3,2.1-3.6c0.5-1.3,0.8-2.6,0.8-4
			c0.7-0.1,1.4-0.3,2.1-0.4c0.7-0.2,1.3-0.3,1.9-0.5l0.3,0.1c0,0.6-0.2,1.2-0.5,1.9c-0.3,0.7-0.7,1.4-1.2,2.2
			c-0.5,0.7-1,1.5-1.6,2.3c-0.6,0.8-1.2,1.5-1.8,2.2c-0.6,0.7-1.2,1.3-1.8,1.9C134.2,17.6,133.7,18,133.2,18.4z"/>
		<path class="st0" d="M5.5,1c0.8,0,1.6,0,2.4,0C8.7,1,9.4,1,10,1c0.3,0,0.9,0,1.7-0.1c0.8,0,1.5-0.1,1.8-0.1c2.4,0,4.2,0.3,5.4,1
			c1.2,0.7,1.8,1.6,1.8,2.9c0,2.4-1.8,4-5.4,5c0.1,0.2,0.3,0.5,0.4,0.7c0.1,0.3,0.3,0.5,0.4,0.7c0.1,0.2,0.2,0.4,0.3,0.7
			c0.1,0.2,0.2,0.5,0.3,0.7c0.2,0.4,0.4,0.9,0.6,1.3c0.2,0.4,0.4,0.9,0.7,1.3c0.2,0.4,0.4,0.7,0.6,1c0.2,0.3,0.4,0.5,0.7,0.8
			c0.3,0.2,0.6,0.4,0.9,0.5c0.4,0.1,0.8,0.2,1.3,0.3l-0.1,0.6c-0.9,0.1-1.7,0.1-2.5,0.1c-0.7,0-1.3,0-1.9-0.1
			c-0.5-0.1-1-0.2-1.4-0.3c-0.4-0.2-0.7-0.4-1-0.7c-0.3-0.3-0.6-0.7-0.8-1.2c-0.2-0.4-0.4-0.7-0.5-1.1c-0.2-0.4-0.4-0.8-0.5-1.2
			c-0.2-0.5-0.4-0.9-0.6-1.5c-0.2-0.5-0.5-1-0.7-1.5c-0.1-0.1-0.1-0.3-0.2-0.4c-0.1-0.1-0.3-0.2-0.5-0.2l-0.7,0l-0.9,4.2
			C9.1,15,9,15.4,8.9,15.8c-0.1,0.4-0.2,0.8-0.2,1.1c0,0.3,0.1,0.4,0.3,0.5l1.7,0.4l-0.1,0.6c-0.7,0-1.5,0-2.2,0c-0.7,0-1.4,0-2.1,0
			c-0.7,0-1.5,0-2.3,0c-0.8,0-1.5,0-2.3,0l0.1-0.6l2-0.5C4,17.3,4.2,17.2,4.3,17c0.1-0.3,0.2-0.7,0.3-1.1c0.1-0.4,0.2-0.9,0.3-1.4
			l2.3-9.9c0.1-0.4,0.2-0.8,0.3-1.1c0.1-0.3,0.1-0.6,0.2-0.9c0-0.2,0-0.4-0.3-0.4L5.4,1.6L5.5,1z M10.4,9.2c0.2,0,0.4,0,0.6,0
			c3.3,0,5-1.4,5-4.2c0-1-0.3-1.7-0.8-2.2c-0.5-0.5-1.3-0.8-2.3-0.8c-0.3,0-0.6,0-0.8,0.1L10.4,9.2z"/>
		<path class="st0" d="M34.3,16l0.5,0.6c-1.9,1.4-4,2.1-6.3,2.1c-1.8,0-3.2-0.4-4.4-1.2c-1.1-0.8-1.7-1.9-1.7-3.4
			c0-2.1,0.9-3.9,2.7-5.3c1.8-1.4,4-2.1,6.5-2.1c1.4,0,2.5,0.2,3.3,0.7c0.8,0.4,1.2,1.1,1.2,1.9c0,1-0.8,1.9-2.4,2.6
			c-1.6,0.7-3.9,1.1-7,1.2c0,0.2,0,0.4,0,0.6c0,1.1,0.3,2,0.8,2.6c0.5,0.6,1.4,0.9,2.4,0.9C31.5,17,32.9,16.7,34.3,16z M27,12
			c3.4-0.3,5.1-1.2,5.1-2.8c0-0.4-0.1-0.8-0.4-1c-0.2-0.2-0.6-0.3-0.9-0.3c-0.8,0-1.6,0.4-2.3,1.1C27.8,9.8,27.2,10.8,27,12z"/>
		<path class="st0" d="M52.8,6.8c-0.4,1-0.7,2.3-1.1,3.9l-1.3,5.5c0,0.2-0.1,0.3-0.1,0.5c0,0.2,0,0.3,0.1,0.4
			c0.1,0.1,0.2,0.2,0.4,0.2c0.2,0.1,0.4,0.1,0.7,0.1c0.3,0,0.6,0,1.1,0l-0.1,0.6c-1.7,0.3-3,0.5-3.9,0.5c-0.7,0-1.3-0.1-1.7-0.4
			s-0.6-0.7-0.6-1.2v-0.2c-1.8,1.3-3.1,2-3.9,2c-1.3,0-2.5-0.4-3.3-1.3c-0.9-0.9-1.3-2-1.3-3.3c0-2.1,0.9-3.9,2.6-5.3
			c1.7-1.4,3.9-2.2,6.4-2.2c1.1,0,2.4,0.2,3.7,0.5c0.7-0.1,1.5-0.3,2.2-0.4L52.8,6.8z M48.2,8.1c-0.5-0.2-1.1-0.3-1.8-0.3
			c-1.3,0-2.4,0.6-3.2,1.9c-0.8,1.2-1.3,2.6-1.3,4c0,0.8,0.2,1.6,0.5,2.2c0.3,0.6,0.7,1,1.1,1c0.6,0,1.5-0.4,2.9-1.3L48.2,8.1z"/>
		<path class="st0" d="M64.5,1.3l0-0.5c2.6-0.3,4.9-0.7,6.9-1.1l0.2,0.1c-0.1,0.3-0.2,0.7-0.3,1.1c-0.1,0.4-0.2,0.8-0.3,1.3
			c-0.1,0.5-0.3,1-0.4,1.5c-0.1,0.5-0.3,1.1-0.4,1.7l-1.7,7l-0.9,3.9c-0.1,0.2-0.1,0.3-0.1,0.5c0,0.2,0,0.3,0.1,0.4
			c0.1,0.1,0.2,0.2,0.4,0.2c0.2,0.1,0.4,0.1,0.7,0.1c0.3,0,0.6,0,1.1,0l-0.1,0.6c-1.7,0.3-3,0.5-3.9,0.5c-0.7,0-1.3-0.1-1.7-0.4
			c-0.4-0.3-0.6-0.7-0.6-1.2v-0.2c-1.8,1.3-3.1,2-4,2c-1.3,0-2.5-0.4-3.3-1.3s-1.3-2-1.3-3.3c0-2.1,0.8-3.9,2.5-5.3
			c1.7-1.4,3.8-2.2,6.4-2.2c0.6,0,1.3,0,2,0.1L67,1.6L64.5,1.3z M65.4,8.1c-0.6-0.2-1.2-0.3-2-0.3c-1.3,0-2.3,0.6-3.2,1.9
			c-0.8,1.2-1.2,2.6-1.2,4c0,0.8,0.2,1.6,0.5,2.2c0.3,0.6,0.7,1,1.1,1c0.6,0,1.6-0.4,3-1.3L65.4,8.1z"/>
		<path class="st0" d="M72.5,7.3c1.8-0.4,3.2-0.6,4.3-0.6c0.7,0,1.2,0.1,1.5,0.3c0.4,0.2,0.6,0.5,0.6,0.9c0,0.2,0,0.3-0.1,0.5
			l-1.9,7.8c-0.1,0.2-0.1,0.4-0.1,0.5c0,0.3,0.2,0.5,0.5,0.7c0.3,0.1,0.9,0.2,1.8,0.2L79,18.1c-1.7,0.3-3,0.5-4.1,0.5
			c-0.7,0-1.3-0.1-1.7-0.4c-0.4-0.2-0.6-0.6-0.6-1.1c0-0.2,0-0.5,0.1-0.9l1.8-7.2c0.1-0.3,0.1-0.5,0.1-0.6c0-0.2-0.1-0.4-0.3-0.5
			c-0.2-0.1-0.9-0.1-1.9-0.1L72.5,7.3z M79.9,2.3c0,0.6-0.2,1-0.6,1.4c-0.4,0.4-0.9,0.5-1.6,0.5c-0.6,0-1.1-0.2-1.5-0.5
			c-0.4-0.3-0.6-0.8-0.6-1.3c0-0.6,0.2-1,0.6-1.4c0.4-0.3,0.9-0.5,1.6-0.5c0.6,0,1.1,0.2,1.5,0.5C79.7,1.3,79.9,1.8,79.9,2.3z"/>
	</g>
	<polygon class="st1" points="1.1,21.4 30.4,28.6 133,21.4 30.4,34.4 	"/>
	<path class="st1" d="M56.4,34.5H58l-1.7,7.2h-1.6L56.4,34.5z"/>
	<path class="st1" d="M65.9,41.7c-0.3-0.8-0.6-1.6-1-2.5c-0.4-0.8-0.7-1.6-1.2-2.3l-1.1,4.8H61l1.7-7.2H64c0.2,0.2,0.3,0.5,0.5,0.9
		c0.2,0.3,0.4,0.7,0.6,1.1c0.2,0.4,0.4,0.8,0.6,1.2c0.2,0.4,0.4,0.8,0.6,1.2l1-4.3h1.6l-1.7,7.2H65.9z"/>
	<path class="st1" d="M76.7,41.7c-0.3-0.8-0.6-1.6-1-2.5c-0.4-0.8-0.7-1.6-1.2-2.3l-1.1,4.8h-1.6l1.7-7.2h1.2
		c0.2,0.2,0.3,0.5,0.5,0.9c0.2,0.3,0.4,0.7,0.6,1.1c0.2,0.4,0.4,0.8,0.6,1.2c0.2,0.4,0.4,0.8,0.6,1.2l1-4.3h1.6l-1.7,7.2H76.7z"/>
	<path class="st1" d="M85.7,41.7c-0.4,0-0.8-0.1-1.1-0.2c-0.3-0.1-0.6-0.3-0.9-0.6c-0.2-0.2-0.4-0.6-0.6-0.9
		c-0.1-0.4-0.2-0.8-0.2-1.2c0-0.5,0.1-1,0.3-1.5c0.2-0.5,0.4-1,0.8-1.4c0.3-0.4,0.7-0.7,1.2-1c0.5-0.3,1-0.4,1.6-0.4
		c0.4,0,0.8,0.1,1.1,0.2c0.3,0.1,0.6,0.3,0.9,0.6c0.2,0.3,0.4,0.6,0.6,0.9c0.1,0.4,0.2,0.8,0.2,1.2c0,0.5-0.1,1-0.3,1.5
		c-0.2,0.5-0.4,1-0.8,1.4c-0.3,0.4-0.7,0.7-1.2,1C86.8,41.5,86.3,41.7,85.7,41.7z M86.7,35.8c-0.3,0-0.6,0.1-0.9,0.2
		c-0.3,0.2-0.5,0.4-0.7,0.6c-0.2,0.3-0.3,0.6-0.5,0.9c-0.1,0.3-0.2,0.7-0.2,1.1c0,0.5,0.1,0.9,0.3,1.2s0.5,0.5,1,0.5
		c0.3,0,0.6-0.1,0.9-0.2c0.3-0.2,0.5-0.4,0.7-0.6c0.2-0.3,0.3-0.6,0.5-0.9c0.1-0.3,0.2-0.7,0.2-1.1c0-0.5-0.1-0.9-0.3-1.2
		C87.5,35.9,87.1,35.8,86.7,35.8z"/>
	<path class="st1" d="M95,41.7c-0.1-0.6-0.2-1.2-0.3-1.8c-0.1-0.6-0.2-1.3-0.3-1.9c-0.1-0.6-0.2-1.2-0.2-1.8
		C94,35.5,94,35,93.9,34.5h1.7c0,0.4,0,0.8,0.1,1.3c0,0.5,0.1,0.9,0.1,1.4c0,0.5,0.1,0.9,0.1,1.4c0,0.5,0.1,0.9,0.1,1.3
		c0.2-0.4,0.4-0.8,0.7-1.2c0.2-0.4,0.5-0.9,0.8-1.3c0.3-0.5,0.5-0.9,0.7-1.4c0.2-0.5,0.5-0.9,0.7-1.4h1.7c-0.3,0.5-0.6,1-0.9,1.6
		c-0.3,0.6-0.6,1.2-1,1.8c-0.4,0.6-0.7,1.2-1.1,1.9c-0.4,0.6-0.8,1.3-1.3,1.9H95z"/>
	<path class="st1" d="M120.3,34.5l-0.3,1.4h-2.1l-1.4,5.8h-1.6l1.4-5.8h-2.1l0.3-1.4H120.3z"/>
	<path class="st1" d="M123.4,41.7l1.7-7.2h4.9l-0.3,1.3h-3.3l-0.3,1.5h2.7l-0.3,1.3h-2.7l-0.4,1.8h3.3l-0.3,1.3H123.4z"/>
	<path class="st1" d="M109.5,39.9c-0.1-0.6-0.2-1.3-0.2-1.9c-0.1-0.6-0.2-1.3-0.3-1.9c-0.1-0.6-0.2-1.2-0.3-1.7h-1.4
		c-0.4,0.5-0.7,1-1.1,1.5c-0.3,0.5-0.7,1.1-1.1,1.7c-0.4,0.6-0.7,1.2-1.1,1.9c-0.4,0.7-0.8,1.4-1.3,2.2h1.7c0.1-0.3,0.3-0.5,0.4-0.8
		c0.2-0.3,0.3-0.5,0.4-0.8l0.5-1h2.1l0.1,1c0,0.3,0,0.5,0.1,0.8c0,0.3,0,0.5,0,0.8h1.6C109.6,41.1,109.5,40.5,109.5,39.9z M107.6,36
		c0.1,0.5,0.1,1,0.2,1.4c0,0.1,0,0.3,0,0.4h-1.3c0.1-0.2,0.2-0.3,0.3-0.5C107,37,107.3,36.5,107.6,36z"/>
</g>
</svg>
