<svg id="Layer_1" data-name="Layer 1" xmlns="http://www.w3.org/2000/svg" viewBox="0 0 207 312"><defs><style>.cls-1{opacity:0.55;}.cls-2{fill:#fff;}</style></defs><title>GRC 03</title><g class="cls-1"><path class="cls-2" d="M163.81,114.14c-16.27,0-35.49,3.4-50,17.83-10.35,10.18-17.75,26.87-19.52,42.72h43.77c.3-5.94,3-13.3,7.1-17.54,3.84-3.68,10-6.23,17.74-6.23,7.4,0,13.31,2.55,16.86,5.66a20.18,20.18,0,0,1,6.51,15.28c0,7.64-3.26,13.58-7.4,17-6.5,5.1-17.15,5.38-19.81,5.38h-2.66v30H160c6.81,0,17.16.56,24.26,5.94a23,23,0,0,1,8.57,18.11c0,7.63-3.25,15-8,19.23S172.68,274,165,274c-9.46,0-17.15-3.11-21.88-7.64-5.33-5.09-8.88-13.86-9.47-21.22H88.1c2.07,19,10.65,35.65,21.88,46.68,17.45,16.7,38.45,19.52,57.67,19.52,12.06,0,26-1,39.35-7.78V124.38C196.69,118.22,182.21,114.14,163.81,114.14Z"/></g></svg>