<svg xmlns="http://www.w3.org/2000/svg" xmlns:xlink="http://www.w3.org/1999/xlink" viewBox="0 0 406.65 424.5"><defs><style>.cls-1,.cls-4{opacity:0.19;}.cls-2,.cls-4{fill:#00bca5;}.cls-3{fill:none;}.cls-5{fill:url(#New_Gradient_Swatch_1);}</style><linearGradient id="New_Gradient_Swatch_1" y1="212.25" x2="406.65" y2="212.25" gradientUnits="userSpaceOnUse"><stop offset="0" stop-color="#5bffce"/><stop offset="1" stop-color="#00bca5"/></linearGradient></defs><title>icons for page</title><g id="Layer_1" data-name="Layer 1"><g id="_Group_" data-name="&lt;Group&gt;"><g id="_Group_2" data-name="&lt;Group&gt;" class="cls-1"><path id="_Path_" data-name="&lt;Path&gt;" class="cls-2" d="M117.58,221.58a36.37,36.37,0,1,0-72.73,0l3.5,43.68a17,17,0,0,0,9.11,13.85l17.6,11.59H86.72L105,279.11a17,17,0,0,0,9.11-13.85Z"/><path id="_Path_2" data-name="&lt;Path&gt;" class="cls-2" d="M150.36,326.14,102.3,309.77v-27H59.78v27L11.72,326.14a8.66,8.66,0,0,0-5.88,8.21v39.21h150.4V334.35A8.66,8.66,0,0,0,150.36,326.14Z"/></g><g id="_Group_3" data-name="&lt;Group&gt;" class="cls-1"><path id="_Path_3" data-name="&lt;Path&gt;" class="cls-2" d="M361.18,221.58a36.36,36.36,0,1,0-72.72,0l3.5,43.68a17,17,0,0,0,9.11,13.85l17.6,11.59h11.65l18.25-11.59a17,17,0,0,0,9.11-13.85Z"/><path id="_Path_4" data-name="&lt;Path&gt;" class="cls-2" d="M394,326.14,345.9,309.77v-27H303.38v27l-48.06,16.37a8.67,8.67,0,0,0-5.87,8.21v39.21H399.84V334.35A8.67,8.67,0,0,0,394,326.14Z"/></g><g id="_Group_4" data-name="&lt;Group&gt;"><path id="_Path_5" data-name="&lt;Path&gt;" class="cls-3" d="M245.33,252.38a38.36,38.36,0,0,0-76.71,0l3.7,46.07a18,18,0,0,0,9.61,14.62l18.56,12.22h12.29L232,313.07a18,18,0,0,0,9.61-14.62Z"/><path id="_Path_6" data-name="&lt;Path&gt;" class="cls-3" d="M279.91,362.67,229.22,345.4V317H184.37V345.4l-50.7,17.27a9.14,9.14,0,0,0-6.19,8.66v41.36H286.11V371.33A9.14,9.14,0,0,0,279.91,362.67Z"/></g><path id="_Path_7" data-name="&lt;Path&gt;" class="cls-3" d="M393.4,6.59H19a1.79,1.79,0,0,0-1.79,1.78V121.66A1.79,1.79,0,0,0,19,123.45H60.43L80.94,144a1.2,1.2,0,0,0,1.68,0l20.51-20.52h81.32L205,144a1.2,1.2,0,0,0,1.68,0l20.51-20.52h71.78L319.45,144a1.18,1.18,0,0,0,1.67,0l20.52-20.52H393.4a1.79,1.79,0,0,0,1.79-1.79V8.37A1.79,1.79,0,0,0,393.4,6.59Z"/><path id="_Path_8" data-name="&lt;Path&gt;" class="cls-4" d="M393.4,6.59H19a1.79,1.79,0,0,0-1.79,1.78V35.21H364.78A1.79,1.79,0,0,1,366.57,37v86.46H393.4a1.79,1.79,0,0,0,1.79-1.79V8.37A1.79,1.79,0,0,0,393.4,6.59Z"/><path class="cls-5" d="M319.7,424.5H96.14V407.35h22.13V374.57a17.72,17.72,0,0,1,12-16.78l44.88-15.29V322.65a26.36,26.36,0,0,1-12-20.33l-3.71-46.7a46.93,46.93,0,0,1,93.86,0l0,.69-3.69,46.07a26.32,26.32,0,0,1-12.4,20.51V342.5l44.89,15.29a17.72,17.72,0,0,1,12,16.78v32.78H319.7ZM135.43,407.35H276.9V374.57a.56.56,0,0,0-.38-.54l-44.62-15.2-13,14.71H194.24l-13.15-14.93L135.81,374a.56.56,0,0,0-.38.54Zm66.56-51h9.21l8.81-10V333.7l-5.37,3.4H197.29l-5-3.27V345.4Zm.44-36.43h7.23l17.77-11.24a9.3,9.3,0,0,0,5-7.64l3.68-45.77a29.78,29.78,0,0,0-59.56,0L180.24,301a9.36,9.36,0,0,0,5,7.7l.74.44Zm204.22,48.28H389.5V329.85L348.55,316l-11.93,13.56H313.13L301,315.75l-41.62,14.18-5.53-16.24,41.23-14V282a25.06,25.06,0,0,1-11.16-19.16l-3.45-43.38a44.17,44.17,0,1,1,88.33,0l0,.69-3.43,42.75a25,25,0,0,1-11.5,19.32v17.42l41.23,14a17.05,17.05,0,0,1,11.56,16.16Zm-85.77-55.88h8l7.83-8.89V293l-4.18,2.66H316.06l-3.82-2.51v9.36Zm.31-33.81h6.35l16.39-10.36a8,8,0,0,0,4.32-6.58l3.41-42.45a27,27,0,0,0-54,0l3.4,42.39a8.08,8.08,0,0,0,4.33,6.64l.75.44Zm-304,89.69H0V329.85a17.07,17.07,0,0,1,11.56-16.16l41.23-14V282.23a25.1,25.1,0,0,1-11.5-19.34l-3.45-43.42a44.17,44.17,0,0,1,88.34,0l0,.69-3.43,42.75A25,25,0,0,1,111.56,282v17.64l41.24,14-5.53,16.24-41.63-14.18L93.52,329.51H70L58.1,316l-41,14Zm60.64-55.88h8l8.64-9.8v-9.36L90.6,295.7H74.13L70,293v10.42Zm1.32-33.81h6.35l15.83-10.36a8.19,8.19,0,0,0,4.33-6.59l3.4-42.44a27,27,0,0,0-54,0L58.4,261.6a8,8,0,0,0,4.33,6.58l.63.36ZM205.8,154.88a9.73,9.73,0,0,1-6.9-2.85l-18-18H106.69l-18,18a9.77,9.77,0,0,1-13.8,0l-18-18H19A10.38,10.38,0,0,1,8.58,123.66V10.37A10.38,10.38,0,0,1,19,0H393.4a10.38,10.38,0,0,1,10.36,10.37V123.66A10.37,10.37,0,0,1,393.4,134H345.19l-18,18a9.78,9.78,0,0,1-13.81,0l-18-18H230.71l-18,18A9.74,9.74,0,0,1,205.8,154.88Zm17.8-38h78.89l17.79,17.8,17.8-17.8h48.53V17.15H25.73v99.72H64l17.8,17.8,17.8-17.8H188l17.8,17.8ZM314.93,73.8H291.71V56.64h23.22Zm-47.7,0H244V56.64h23.22Zm-47.71,0H196.31V56.64h23.21Zm-47.7,0H148.61V56.64h23.21Zm-47.7,0H100.91V56.64h23.21Z"/></g></g></svg>