<svg xmlns="http://www.w3.org/2000/svg" xmlns:xlink="http://www.w3.org/1999/xlink" viewBox="0 0 361.54 326.49"><defs><style>.cls-1{fill:none;}.cls-2,.cls-4{fill:#00bca5;}.cls-2,.cls-3{opacity:0.19;}.cls-5{fill:url(#New_Gradient_Swatch_1);}</style><linearGradient id="New_Gradient_Swatch_1" y1="163.25" x2="361.54" y2="163.25" gradientUnits="userSpaceOnUse"><stop offset="0" stop-color="#5bffce"/><stop offset="1" stop-color="#00bca5"/></linearGradient></defs><title>icons for page</title><g id="Layer_1" data-name="Layer 1"><g id="_Group_" data-name="&lt;Group&gt;"><rect id="_Rectangle_" data-name="&lt;Rectangle&gt;" class="cls-1" x="4.54" y="95.09" width="351.57" height="112.02" rx="0.24" ry="0.24"/><rect id="_Rectangle_2" data-name="&lt;Rectangle&gt;" class="cls-1" x="243.62" y="87.79" width="112.49" height="114.98" rx="0.24" ry="0.24"/><rect id="_Rectangle_3" data-name="&lt;Rectangle&gt;" class="cls-1" x="112.44" y="5.43" width="133.81" height="109.06" rx="0.24" ry="0.24"/><path id="_Path_" data-name="&lt;Path&gt;" class="cls-2" d="M244.43,5.43H114.27a1.83,1.83,0,0,0-1.83,1.83V28.39h109a1.83,1.83,0,0,1,1.83,1.82v84.28h21.13a1.81,1.81,0,0,0,1.82-1.82V7.26A1.82,1.82,0,0,0,244.43,5.43Z"/><path id="_Path_2" data-name="&lt;Path&gt;" class="cls-1" d="M302.75,215.45h-1.22a44.39,44.39,0,0,0-66.67-25,60.83,60.83,0,0,0-118.21-8.76,43.35,43.35,0,0,0-5.26-1.07,21.34,21.34,0,0,0-4.82-.58l.25.25c-.34,0-.68-.07-1-.07a41.78,41.78,0,0,0-41.24,35.24H57.74a31.3,31.3,0,0,0-31.21,31.21H334A31.3,31.3,0,0,0,302.75,215.45Z"/><g id="_Group_2" data-name="&lt;Group&gt;" class="cls-3"><path id="_Path_3" data-name="&lt;Path&gt;" class="cls-4" d="M302.75,215.45h-1.22a44.48,44.48,0,0,0-42.69-32.07,43.93,43.93,0,0,0-15.22,2.81,44.58,44.58,0,0,1,27.3,29.26h1.22a31.3,31.3,0,0,1,31.21,31.21H334A31.3,31.3,0,0,0,302.75,215.45Z"/></g><path class="cls-5" d="M170.33,326.49A56.24,56.24,0,1,1,197.59,221l-5.28,9.5a45.38,45.38,0,1,0,23.39,39.71h10.87A56.3,56.3,0,0,1,170.33,326.49Zm1.94-33.32L134.07,255l7.69-7.68,30.51,30.51,64.86-64.87,7.69,7.69Zm185.16-48.36H322.65v-5.44a24.11,24.11,0,0,0-24.08-24.08h-5.23l-1.14-3.92a36.55,36.55,0,0,0-54.9-20.59l-7,4.51L229,187a52.1,52.1,0,0,0-100.13-10.7A25.9,25.9,0,0,1,139,196.85H128.1a15.08,15.08,0,0,0-11.19-14.55,32.77,32.77,0,0,0-4.6-.33,33.9,33.9,0,0,0-33.64,28.74L78,215.29H66.87a24.12,24.12,0,0,0-24.09,24.08v5.44H4.15V233.94H32.34a35,35,0,0,1,34.53-29.52h2A44.65,44.65,0,0,1,88.26,178H76V167.14H94.59V138.31l-37.49-.25V178H28.2V167.14h18v-40l59.22.39v44.1a46.35,46.35,0,0,1,7.58-.51v-.17a25.88,25.88,0,0,1,6,.7h0a63.67,63.67,0,0,1,20.8-27.08,62.95,62.95,0,0,1,78.87,2.83A63.12,63.12,0,0,1,238.15,178a47.42,47.42,0,0,1,63.2,26.49,35,35,0,0,1,31.75,29.41h24.33ZM26.88,215.5H7.31A7.31,7.31,0,0,1,0,208.2V97a7.32,7.32,0,0,1,7.31-7.3H97.53v10.87H10.87v104.1h16Zm327.36-7.3H328.86V197.33h21.82V176.9H304.05l-22.87-20-11.12,11.64L262.2,161l18.3-19.15L308.13,166h42.55V93.22H264V82.35h90.23a7.31,7.31,0,0,1,7.3,7.31V200.89A7.31,7.31,0,0,1,354.24,208.2ZM210.48,184.5A42.51,42.51,0,0,0,153.17,171l-5.54-9.35a53.4,53.4,0,0,1,72,16.9Zm118.38-59.32H304.31V114.31h24.55Zm-82.78-5.25H112.62a5.61,5.61,0,0,1-5.61-5.61V5.61A5.61,5.61,0,0,1,112.62,0H246.08a5.62,5.62,0,0,1,5.61,5.61V114.32A5.62,5.62,0,0,1,246.08,119.93Zm-128.2-10.87H240.82V10.87H117.88Zm36.64-13.61a6.81,6.81,0,0,1-6.82-6.81V31.29a6.82,6.82,0,0,1,10.22-5.9l49.66,28.68h0A6.82,6.82,0,0,1,211,59.76V60a6.82,6.82,0,0,1-3.4,5.9L157.92,94.54A6.88,6.88,0,0,1,154.52,95.45Zm4-57.13V81.61L196.06,60Z"/></g></g></svg>