<svg xmlns="http://www.w3.org/2000/svg" xmlns:xlink="http://www.w3.org/1999/xlink" viewBox="0 0 396.47 357.9"><defs><style>.cls-1,.cls-3{fill:#5bffce;}.cls-1{opacity:0.3;}.cls-2{fill:none;}.cls-3{opacity:0.22;}.cls-4{fill:url(#New_Gradient_Swatch_1);}</style><linearGradient id="New_Gradient_Swatch_1" y1="178.95" x2="396.47" y2="178.95" gradientUnits="userSpaceOnUse"><stop offset="0" stop-color="#5bffce"/><stop offset="1" stop-color="#00bca5"/></linearGradient></defs><title>icons for page</title><g id="Layer_1" data-name="Layer 1"><g id="_Group_" data-name="&lt;Group&gt;"><path id="_Path_" data-name="&lt;Path&gt;" class="cls-1" d="M359.63,34.28a28.27,28.27,0,1,1-8.28-20A28.18,28.18,0,0,1,359.63,34.28Z"/><path id="_Path_2" data-name="&lt;Path&gt;" class="cls-2" d="M196.21,14.38a81.06,81.06,0,0,0-46.36,73.25v171h92.72v-171A81.06,81.06,0,0,0,196.21,14.38Z"/><path id="_Path_3" data-name="&lt;Path&gt;" class="cls-2" d="M196.21,14.38a81.06,81.06,0,0,0-46.36,73.25v171h92.72v-171A81.06,81.06,0,0,0,196.21,14.38Z"/><path id="_Path_4" data-name="&lt;Path&gt;" class="cls-3" d="M196.21,14.38a80.1,80.1,0,0,0-12.12,7.25,81,81,0,0,1,34.25,66v171h24.23v-171A81.06,81.06,0,0,0,196.21,14.38Z"/><path id="_Path_5" data-name="&lt;Path&gt;" class="cls-1" d="M277.08,299.4v28.75a25.59,25.59,0,0,0,14.62,23.11,25.57,25.57,0,0,0,14.62-23.11V299.4Z"/><path id="_Path_6" data-name="&lt;Path&gt;" class="cls-1" d="M181.59,299.4v28.75a25.57,25.57,0,0,0,14.62,23.11,25.57,25.57,0,0,0,14.62-23.11V299.4Z"/><path id="_Path_7" data-name="&lt;Path&gt;" class="cls-1" d="M86.1,299.4v28.75a25.57,25.57,0,0,0,14.62,23.11,25.57,25.57,0,0,0,14.62-23.11V299.4Z"/><path id="_Path_8" data-name="&lt;Path&gt;" class="cls-2" d="M311.83,283H271.58V208.78A35.2,35.2,0,0,1,291.7,177h0a35.2,35.2,0,0,1,20.13,31.81Z"/><path id="_Path_9" data-name="&lt;Path&gt;" class="cls-2" d="M217,283H176.69V208.78A35.21,35.21,0,0,1,196.82,177h0A35.21,35.21,0,0,1,217,208.78Z"/><path id="_Path_10" data-name="&lt;Path&gt;" class="cls-2" d="M121.19,283H80.93V208.78A35.21,35.21,0,0,1,101.06,177h0a35.21,35.21,0,0,1,20.13,31.81Z"/><circle id="_Path_11" data-name="&lt;Path&gt;" class="cls-1" cx="198.04" cy="111.62" r="18.91"/><path class="cls-4" d="M291.7,357.9l-2.57-1.22a31.71,31.71,0,0,1-18.05-28.53V299.4h12v28.75a19.66,19.66,0,0,0,8.61,16.21,19.64,19.64,0,0,0,8.62-16.21V299.4h12v28.75a31.71,31.71,0,0,1-18.05,28.53Zm-95.32,0-2.57-1.22a31.69,31.69,0,0,1-18.05-28.53V299.4h12v28.75a19.66,19.66,0,0,0,8.61,16.21A19.67,19.67,0,0,0,205,328.15V299.4h12v28.75A31.7,31.7,0,0,1,199,356.68Zm-95.32,0-2.57-1.22a31.7,31.7,0,0,1-18.06-28.53V299.4h12v28.75a19.67,19.67,0,0,0,8.62,16.21,19.66,19.66,0,0,0,8.61-16.21V299.4h12v28.75a31.69,31.69,0,0,1-18.05,28.53ZM317.5,289H265.23V260.39l-16.05-16.91v21.16H230.37v-12h6.8v-165a74.41,74.41,0,0,0-4.51-25.51H161a74.65,74.65,0,0,0-4.51,25.51v165h6.19v12h-18.2V243.48l-17.27,18.2V289H74.93V208.78a41.36,41.36,0,0,1,23.56-37.23l2.57-1.22,2.57,1.22a41.38,41.38,0,0,1,23.56,37.23V215l17.27-18.2V87.63A87.44,87.44,0,0,1,194.25,9l2.57-1.22L199.39,9a87.44,87.44,0,0,1,49.79,78.68V196.76l16.05,16.91v-4.89a41.38,41.38,0,0,1,23.56-37.23l2.57-1.22,2.57,1.22a41.37,41.37,0,0,1,23.57,37.23Zm-40.26-12h28.25v-35H277.24ZM86.93,277h28.25v-35H86.93Zm40.26-44.63v11.83L144.46,226V214.2Zm122-6.36L265.23,243V231.12L249.18,214.2Zm28.06,4h28.25V208.78a29.34,29.34,0,0,0-14.13-25,29.36,29.36,0,0,0-14.12,25Zm-190.31,0h28.25V208.78a29.36,29.36,0,0,0-14.12-25,29.34,29.34,0,0,0-14.13,25ZM166.59,50.11h60.46a75.15,75.15,0,0,0-30.23-29A75.27,75.27,0,0,0,166.59,50.11ZM222.34,289H170.08V208.78a41.38,41.38,0,0,1,23.56-37.23l2.57-1.22,2.57,1.22a41.36,41.36,0,0,1,23.56,37.23Zm-40.25-12h28.25v-35H182.09Zm0-47h28.25V208.78a29.34,29.34,0,0,0-14.13-25,29.36,29.36,0,0,0-14.12,25Zm198.84-3-8.5-8.5A41.06,41.06,0,0,0,349.86,149a36.07,36.07,0,0,1-10.5,22.43l-8.49-8.5a24.32,24.32,0,1,0-41.52-17.2v6H262.18v-12h15.65a36.36,36.36,0,0,1,71.07-3,53.08,53.08,0,0,1,32,90.32Zm-184.11-90.5a24.91,24.91,0,1,1,24.91-24.91A24.93,24.93,0,0,1,196.82,136.53Zm0-37.81a12.9,12.9,0,1,0,12.91,12.9A12.91,12.91,0,0,0,196.82,98.72ZM50.79,125l-8.49-8.49A17.74,17.74,0,1,0,12,104H0A29.76,29.76,0,0,1,48.8,81.12a38.19,38.19,0,0,1,73.08,8.42h14v12H110.35v-6a26.18,26.18,0,0,0-52.35-1,29.89,29.89,0,0,1,1.51,9.4A29.56,29.56,0,0,1,50.79,125ZM331.36,68.55a34.28,34.28,0,0,1-34.27-34.27,34.27,34.27,0,1,1,34.27,34.27Zm0-56.54a22.26,22.26,0,1,0,15.75,6.52A22.13,22.13,0,0,0,331.36,12Z"/></g></g></svg>