<svg xmlns="http://www.w3.org/2000/svg" xmlns:xlink="http://www.w3.org/1999/xlink" viewBox="0 0 388.01 341.82"><defs><style>.cls-1{fill:none;}.cls-2{opacity:0.39;fill:url(#linear-gradient);}.cls-3{fill:#00bca5;opacity:0.19;}.cls-4{fill:url(#New_Gradient_Swatch_1);}</style><linearGradient id="linear-gradient" x1="252.21" y1="256.48" x2="306.08" y2="256.48" gradientUnits="userSpaceOnUse"><stop offset="0" stop-color="#5bffce"/><stop offset="1" stop-color="#00bca5"/></linearGradient><linearGradient id="New_Gradient_Swatch_1" x1="0" y1="170.91" x2="388.01" y2="170.91" xlink:href="#linear-gradient"/></defs><title>icons for page</title><g id="Layer_1" data-name="Layer 1"><g id="_Group_" data-name="&lt;Group&gt;"><path id="_Path_" data-name="&lt;Path&gt;" class="cls-1" d="M386.89,232.81l-66.25-66.25a1.09,1.09,0,0,0-.93-.27,1.1,1.1,0,0,0-.93.27l-66.24,66.25a1.09,1.09,0,0,0,.77,1.87h29.25v99h74.3v-99h29.25A1.1,1.1,0,0,0,386.89,232.81Z"/><path id="_Path_2" data-name="&lt;Path&gt;" class="cls-2" d="M252.54,232.81a1.09,1.09,0,0,0,.77,1.87h29.25v99h23.52V179.26Z"/><path id="_Path_3" data-name="&lt;Path&gt;" class="cls-3" d="M316.6,97.78l-92-91.95a2.4,2.4,0,0,0-2.59,0l-91.95,92a1.53,1.53,0,0,0,1.08,2.61h40.6V333.7H274.93V100.39h40.6A1.53,1.53,0,0,0,316.6,97.78Z"/><rect id="_Rectangle_" data-name="&lt;Rectangle&gt;" class="cls-1" x="83.81" y="150.85" width="104.72" height="185.54"/><path id="_Path_4" data-name="&lt;Path&gt;" class="cls-1" d="M103.43,75.68,32.59,45.31a1.23,1.23,0,0,0-1.71,1.13v290h73.29V76.8A1.22,1.22,0,0,0,103.43,75.68Z"/><path class="cls-4" d="M388,341.82H0V331H24.42V46.44a6.66,6.66,0,0,1,9.28-6.12l70.85,30.37a6.64,6.64,0,0,1,4,6.12v68.38h78.66a6.72,6.72,0,0,1,6.72,6.72V331h72.91V161.69h10.86V331h67V228.72h26.09L311,168.88l-14.93,14.93-7.69-7.69,17.93-17.93a6.64,6.64,0,0,1,9.38,0l70.13,70.14a6.6,6.6,0,0,1-4.66,11.26H355.61V331H388ZM108.58,331h74.51V156.05H108.58Zm-41.89,0h31V111.54h-31Zm-31.4,0H55.82V111.54H35.29Zm0-230.28H97.72V79.58L35.29,52.82Zm123.32,217H116.15V306.84h42.46Zm0-32.33H116.15V274.5h42.46Zm0-29.82H117.36V244.68h41.25Zm0-31.42H117.36V213.26h41.25Zm0-31.42H117.36V181.84h41.25Zm119.12-41.86H266.87V93.53h35.9l-81-81L140.66,93.53h35.91v38.94H165.7V104.4H131.16a6.94,6.94,0,0,1-4.9-11.84L216.78,2a7,7,0,0,1,9.87,0l90.52,90.52a6.93,6.93,0,0,1-4.9,11.84H277.73Z"/></g></g></svg>