<svg xmlns="http://www.w3.org/2000/svg" viewBox="0 0 2966 793"><defs><style>.cls-1{fill:none;stroke:#1e1f26;stroke-linecap:round;stroke-miterlimit:10;stroke-width:5px;}.cls-2{fill:#fff;}</style></defs><title>intro title</title><g id="Layer_1" data-name="Layer 1"><rect class="cls-1" x="40" y="195" width="2891" height="578.5" rx="213.85" ry="213.85"/><rect class="cls-2" x="293" y="73" width="2385" height="253"/><path d="M575,157.68H543.44v27h30.42v9.59H543.44v45.21H533.31V148.09H575Z"/><path d="M581,211.25c0-17.26,12.74-30,30.14-30s30.14,12.74,30.14,30-12.88,29.86-30.14,29.86S581,228.51,581,211.25Zm10.14,0c0,14,9.86,21.1,20,21.1s20-7.27,20-21.1-9.59-21.24-20-21.24S591.12,197.41,591.12,211.25Z"/><path d="M666.19,215.77c0,4,0,8.63,2.74,12.19,1.51,1.92,4.52,4.39,10,4.39s8.5-2.47,10-4.39c2.74-3.56,2.74-8.22,2.74-12.19V182.62h9.87v34.25c0,7-.69,12.19-5.21,17.12a24.81,24.81,0,0,1-34.79,0c-4.52-4.93-5.21-10.14-5.21-17.12V182.62h9.86Z"/><path d="M720.17,182.62H730v6.16c1-1.51,5.21-7.53,12.88-7.53a20.73,20.73,0,0,1,8.77,2.33l-4.66,8.9a10.13,10.13,0,0,0-5.75-1.92,9.57,9.57,0,0,0-7.95,3.56c-1.64,2.2-3.29,6-3.29,15.35v30h-9.86Z"/><path d="M811.68,148.09c9.18,0,16.85,1.1,23,6.44,6.71,5.76,8.35,13.84,8.35,19.59,0,12.88-8.08,25.62-28.9,25.62h-8.91v39.73H795.11V148.09Zm-6.44,42.06h8.36c12.06,0,19.32-6,19.32-16.57,0-14.53-13.57-15.9-20.14-15.9h-7.54Z"/><path d="M860,154.12a7,7,0,1,1-7,7A7,7,0,0,1,860,154.12Zm4.94,28.5v56.85h-9.87V182.62Z"/><path d="M893.47,139.6v99.87h-9.86V139.6Z"/><path d="M922,139.6v99.87H912.1V139.6Z"/><path d="M984.16,182.62H994v56.85h-9.86v-7.95a24,24,0,0,1-19.45,9.59C950.32,241.11,937,231,937,211c0-19.59,13.16-29.72,27.68-29.72a23.49,23.49,0,0,1,19.45,9.45Zm-37,28.35c0,12.2,6.85,21.38,18.63,21.38,12.06,0,18.91-10,18.91-21.24,0-14.66-10.14-21.1-18.91-21.1C956.08,190,947.17,197.14,947.17,211Z"/><path d="M1012.66,182.62h9.86v6.16c1-1.51,5.21-7.53,12.88-7.53a20.77,20.77,0,0,1,8.77,2.33l-4.66,8.9a10.14,10.14,0,0,0-5.76-1.92,9.55,9.55,0,0,0-7.94,3.56c-1.65,2.2-3.29,6-3.29,15.35v30h-9.86Z"/><path d="M1075.13,195.77c-1.37-3.29-4.25-5.76-8-5.76s-6.85,2.06-6.85,6.44c0,4.11,2.74,5.35,9.18,8.09,8.22,3.42,12.06,6,14.25,8.76a13.5,13.5,0,0,1,3,9.18c0,11.92-8.63,18.63-19.59,18.63a20.32,20.32,0,0,1-19.86-14.52l8.49-3.56c1.1,3,4.39,9.32,11.51,9.32,6.44,0,9.31-4.8,9.31-9,0-5.34-3.83-7.12-9.17-9.45-6.85-3-11.24-5.2-13.84-8.35a12.37,12.37,0,0,1-2.6-8.36c0-10,7-15.89,16.57-15.89,3,0,11.1.54,15.62,10.27Z"/><path d="M1129.38,193.85c0-27.26,21.23-47.26,47.54-47.26s47.53,20,47.53,47.26-21.1,47.26-47.53,47.26S1129.38,221,1129.38,193.85Zm10.41,0a37.13,37.13,0,1,0,37.13-37.67A37.28,37.28,0,0,0,1139.79,193.85Z"/><path d="M1250.76,191.66v47.81h-9.87V191.66h-5.47v-9h5.47v-24.8c0-5.2.42-11.78,5.48-16a17.69,17.69,0,0,1,11.38-3.7,19,19,0,0,1,7,1.24v9.59a17.7,17.7,0,0,0-6.44-1.24c-2.19,0-4.79.55-6.3,3-1.23,2.05-1.23,5.2-1.23,8.22v23.7h14v9Z"/><path d="M1307.88,148.09h18.64c9.17,0,22.19,1,33.7,10.69,8.35,7,15.61,18.63,15.61,35.07,0,19.18-9.45,29.45-16,35.07-8.35,7.12-17.12,10.55-33.42,10.55h-18.5ZM1318,229.88h8.91c7.26,0,17.26-.82,26.16-8.22,6.85-5.75,12.33-14.8,12.33-27.81,0-21.92-15.34-36.17-38.49-36.17H1318Z"/><path d="M1396.93,154.12a7,7,0,1,1-7,7A7,7,0,0,1,1396.93,154.12Zm4.93,28.5v56.85H1392V182.62Z"/><path d="M1464.06,182.62h9.86V238.1c0,6.16,0,14.93-5.48,22.33-4.24,5.75-12,10.55-22.74,10.55-9.72,0-16.44-3.84-20.27-7.67A25.61,25.61,0,0,1,1418,245h9.73a17.88,17.88,0,0,0,4.38,11.78c4.11,4.52,9.32,5.48,13.7,5.48,7,0,11.78-2.47,15.07-7.95,2.88-4.65,3.15-9.72,3.15-14.52v-8.22a24,24,0,0,1-19.45,9.59,27.23,27.23,0,0,1-19.46-7.67c-3.83-3.83-8.22-11-8.22-22.47,0-11.09,4.11-17.94,8.22-22.05a28,28,0,0,1,19.46-7.67,23.65,23.65,0,0,1,19.45,9.45Zm-31.23,12.74c-4.8,4.93-5.76,11-5.76,15.61,0,4.94,1,11.65,6.44,16.72a17.23,17.23,0,0,0,12.19,4.66c5.21,0,9.32-1.65,12.47-4.8,3.83-3.7,6.44-9.73,6.44-16.44s-2.47-12.6-6-16A18.24,18.24,0,0,0,1445.7,190,17.6,17.6,0,0,0,1432.83,195.36Z"/><path d="M1497.49,154.12a7,7,0,1,1-7,7A7,7,0,0,1,1497.49,154.12Zm4.93,28.5v56.85h-9.86V182.62Z"/><path d="M1531.19,191.66v47.81h-9.86V191.66h-6v-9h6V162.07h9.86v20.55h9.86v9Z"/><path d="M1593.93,182.62h9.86v56.85h-9.86v-7.95a24,24,0,0,1-19.45,9.59c-14.39,0-27.67-10.13-27.67-30.14,0-19.59,13.15-29.72,27.67-29.72a23.49,23.49,0,0,1,19.45,9.45Zm-37,28.35c0,12.2,6.85,21.38,18.63,21.38,12.06,0,18.91-10,18.91-21.24,0-14.66-10.14-21.1-18.91-21.1C1565.85,190,1556.94,197.14,1556.94,211Z"/><path d="M1632.29,139.6v99.87h-9.86V139.6Z"/><path d="M1707.77,157.68v81.79h-10.13V157.68h-22.2v-9.59H1730v9.59Z"/><path d="M1731.34,182.62h9.86v6.16c1-1.51,5.21-7.53,12.88-7.53a20.77,20.77,0,0,1,8.77,2.33l-4.66,8.9a10.13,10.13,0,0,0-5.75-1.92,9.57,9.57,0,0,0-8,3.56c-1.64,2.2-3.29,6-3.29,15.35v30h-9.86Z"/><path d="M1812.58,182.62h9.86v56.85h-9.86v-7.95a24,24,0,0,1-19.45,9.59c-14.39,0-27.68-10.13-27.68-30.14,0-19.59,13.15-29.72,27.68-29.72a23.51,23.51,0,0,1,19.45,9.45Zm-37,28.35c0,12.2,6.85,21.38,18.63,21.38,12.06,0,18.91-10,18.91-21.24,0-14.66-10.14-21.1-18.91-21.1C1784.5,190,1775.59,197.14,1775.59,211Z"/><path d="M1841.07,182.62h9.87v6.57a20.05,20.05,0,0,1,16.3-7.94c6.71,0,12.88,2.74,16.3,7.81,2.88,4.24,3.29,8.9,3.29,15.2v35.21H1877V204.54c0-3.43-.28-7.4-2.61-10.42-1.91-2.46-4.93-4.11-9.31-4.11a12.41,12.41,0,0,0-10,4.39c-3.84,4.52-4.11,11.23-4.11,15.34v29.73h-9.87Z"/><path d="M1928.89,195.77c-1.37-3.29-4.25-5.76-8-5.76s-6.85,2.06-6.85,6.44c0,4.11,2.74,5.35,9.18,8.09,8.22,3.42,12.06,6,14.25,8.76a13.45,13.45,0,0,1,3,9.18c0,11.92-8.63,18.63-19.59,18.63a20.32,20.32,0,0,1-19.86-14.52l8.49-3.56c1.1,3,4.39,9.32,11.51,9.32,6.44,0,9.32-4.8,9.32-9,0-5.34-3.84-7.12-9.18-9.45-6.85-3-11.24-5.2-13.84-8.35a12.37,12.37,0,0,1-2.6-8.36c0-10,7-15.89,16.57-15.89,3,0,11.1.54,15.62,10.27Z"/><path d="M1963.82,191.66v47.81H1954V191.66h-5.48v-9H1954v-24.8c0-5.2.41-11.78,5.48-16a17.68,17.68,0,0,1,11.37-3.7,19.09,19.09,0,0,1,7,1.24v9.59a17.78,17.78,0,0,0-6.44-1.24c-2.19,0-4.8.55-6.3,3-1.24,2.05-1.24,5.2-1.24,8.22v23.7h14v9Z"/><path d="M1983,211.25c0-17.26,12.74-30,30.14-30s30.14,12.74,30.14,30-12.88,29.86-30.14,29.86S1983,228.51,1983,211.25Zm10.14,0c0,14,9.86,21.1,20,21.1s20-7.27,20-21.1-9.59-21.24-20-21.24S1993.14,197.41,1993.14,211.25Z"/><path d="M2058.35,182.62h9.86v6.16c1-1.51,5.21-7.53,12.88-7.53a20.77,20.77,0,0,1,8.77,2.33l-4.66,8.9a10.13,10.13,0,0,0-5.75-1.92,9.57,9.57,0,0,0-7.95,3.56c-1.64,2.2-3.29,6-3.29,15.35v30h-9.86Z"/><path d="M2098.9,182.62h9.86v6a16.54,16.54,0,0,1,14.11-7.39,17,17,0,0,1,15.48,9.18c5.48-8.64,13.29-9.18,17.13-9.18,16.85,0,18.49,14.11,18.49,22.19v36h-9.86V205c0-6.44-.82-14.94-10.14-14.94-11.37,0-12.6,11-12.6,17.81v31.65h-9.87v-33.7c0-4,.14-15.76-10.27-15.76-11.23,0-12.47,11.65-12.47,18.5v31h-9.86Z"/><path d="M2236.31,182.62h9.86v56.85h-9.86v-7.95a24,24,0,0,1-19.45,9.59c-14.39,0-27.68-10.13-27.68-30.14,0-19.59,13.15-29.72,27.68-29.72a23.49,23.49,0,0,1,19.45,9.45Zm-37,28.35c0,12.2,6.85,21.38,18.63,21.38,12.06,0,18.91-10,18.91-21.24,0-14.66-10.14-21.1-18.91-21.1C2208.23,190,2199.32,197.14,2199.32,211Z"/><path d="M2274.94,191.66v47.81h-9.86V191.66h-6v-9h6V162.07h9.86v20.55h9.87v9Z"/><path d="M2299.05,154.12a7,7,0,1,1-7,7A7,7,0,0,1,2299.05,154.12Zm4.94,28.5v56.85h-9.87V182.62Z"/><path d="M2319.05,211.25c0-17.26,12.75-30,30.14-30s30.14,12.74,30.14,30-12.87,29.86-30.14,29.86S2319.05,228.51,2319.05,211.25Zm10.14,0c0,14,9.87,21.1,20,21.1s20-7.27,20-21.1-9.59-21.24-20-21.24S2329.19,197.41,2329.19,211.25Z"/><path d="M2394.4,182.62h9.87v6.57a20.05,20.05,0,0,1,16.3-7.94c6.71,0,12.88,2.74,16.3,7.81,2.88,4.24,3.29,8.9,3.29,15.2v35.21h-9.87V204.54c0-3.43-.27-7.4-2.6-10.42-1.92-2.46-4.93-4.11-9.31-4.11a12.41,12.41,0,0,0-10,4.39c-3.84,4.52-4.11,11.23-4.11,15.34v29.73h-9.87Z"/></g></svg>