<?xml version="1.0" encoding="utf-8"?>
<!-- Generator: Adobe Illustrator 22.0.1, SVG Export Plug-In . SVG Version: 6.00 Build 0)  -->
<svg version="1.1" id="Layer_1" xmlns="http://www.w3.org/2000/svg" xmlns:xlink="http://www.w3.org/1999/xlink" x="0px" y="0px"
	 viewBox="0 0 278.4 561" style="enable-background:new 0 0 278.4 561;" xml:space="preserve">
<style type="text/css">
	.st0{fill:#A6A6A6;}
	.st1{fill:#F9F9F9;}
	.st2{fill:#1A1A1C;}
	.st3{fill-rule:evenodd;clip-rule:evenodd;}
	.st4{opacity:0.4;}
</style>
<path class="st0" d="M278.2,52.6c0-18.2-1.9-29.5-13.4-40.8C253.6,0.9,237.6,0.5,232.1,0.5H47.5C42,0.5,26,0.9,14.9,11.8
	C3.3,23.1,1.5,34.4,1.5,52.6v455.2c0,18.2,1.9,29.5,13.4,40.8C26,559.6,42,559.9,47.5,559.9h184.7c5.4,0,21.5-0.4,32.6-11.3
	c11.5-11.3,13.4-22.6,13.4-40.8V52.6z"/>
<path d="M47.5,557.7c-16.7,0-26.1-5.8-31-10.6C5.6,536.4,3.7,526,3.7,507.8V52.6c0-18.1,1.9-28.6,12.7-39.2
	c4.9-4.9,14.3-10.6,31-10.6h184.7c16.7,0,26.1,5.8,31,10.6C274,24,275.9,34.5,275.9,52.6v455.2c0,18.1-1.9,28.6-12.7,39.2
	c-4.9,4.8-14.3,10.6-31,10.6H47.5z"/>
<path class="st1" d="M253.1,23.7c-3-3-9.1-6.5-20.9-6.5h-21.1c-1.1,0.1-2.6,0.8-2.8,3.4c-0.2,3.5-0.6,8.2-4.1,11.8
	c-2.7,2.8-6.2,4.1-9.8,4.1c-7.8,0-100.7,0-108.5,0c-3.6,0-7.1-1.3-9.8-4.1c-3.5-3.6-3.9-8.2-4.1-11.8c-0.2-2.6-1.7-3.2-2.8-3.4H47.5
	c-11.8,0-17.9,3.5-20.9,6.5c-7.1,7-8.4,13.6-8.4,28.9v455.2c0,15.2,1.3,21.9,8.4,28.9c3,3,9.1,6.5,20.9,6.5h184.7
	c11.8,0,17.9-3.5,20.9-6.5c7.1-7,8.4-13.6,8.4-28.9V52.6C261.4,37.4,260.2,30.7,253.1,23.7z"/>
<g>
	<g>
		<g>
			<path class="st2" d="M174.2,22.5c0,2.4-1.9,4.3-4.3,4.3c-2.4,0-4.3-1.9-4.3-4.3c0-2.4,1.9-4.3,4.3-4.3
				C172.3,18.3,174.2,20.2,174.2,22.5z"/>
		</g>
	</g>
</g>
<g>
	<defs>
		<path id="SVGID_1_" d="M156.9,22.5c0,1.3-1,2.3-2.3,2.3h-29.8c-1.3,0-2.3-1-2.3-2.3l0,0c0-1.3,1-2.3,2.3-2.3h29.8
			C155.9,20.3,156.9,21.3,156.9,22.5L156.9,22.5z"/>
	</defs>
	<use xlink:href="#SVGID_1_"  style="overflow:visible;fill:#1A1A1C;"/>
	<clipPath id="SVGID_2_">
		<use xlink:href="#SVGID_1_"  style="overflow:visible;"/>
	</clipPath>
</g>
<g>
	<g>
		<g>
			<path d="M41.9,33.9c0.1,0.3,0.5,0.7,1.2,0.7c1.3,0,1.7-1.2,1.7-2.7h-0.1c-0.2,0.6-0.8,1.1-1.7,1.1c-1.3,0-2.3-0.9-2.3-2.4
				c0-1.5,1.1-2.4,2.5-2.4c1.3,0,2.6,0.8,2.6,3.6c0,2.5-0.9,3.8-2.7,3.8c-1.4,0-2.1-0.8-2.2-1.6H41.9z M43.1,29
				c-0.8,0-1.4,0.6-1.4,1.5c0,1,0.7,1.5,1.4,1.5c0.7,0,1.4-0.5,1.4-1.4S43.9,29,43.1,29z"/>
			<path d="M48.1,30.4c0.5,0,0.8,0.3,0.8,0.8c0,0.5-0.4,0.8-0.8,0.8c-0.4,0-0.8-0.3-0.8-0.8C47.3,30.7,47.7,30.4,48.1,30.4z
				 M48.1,33.9c0.5,0,0.8,0.3,0.8,0.8c0,0.5-0.4,0.8-0.8,0.8c-0.4,0-0.8-0.3-0.8-0.8C47.3,34.2,47.7,33.9,48.1,33.9z"/>
			<path d="M54.8,28.2V33h0.9v1h-0.9v1.4h-1V34h-3.5v-1c0.9-1.6,1.9-3.2,2.9-4.8H54.8z M53.8,33v-3.8h-0.1c-0.8,1.2-1.7,2.5-2.4,3.8
				v0H53.8z"/>
			<path d="M58.7,35.4v-6h-0.1L57,30.6v-1.1l1.7-1.2h1.1v7.1H58.7z"/>
		</g>
	</g>
	<g>
		<path d="M219.6,35.1c0,0.2-0.1,0.3-0.3,0.3h-1c-0.2,0-0.3-0.1-0.3-0.3v-6.5c0-0.2,0.1-0.3,0.3-0.3h1c0.2,0,0.3,0.1,0.3,0.3V35.1z"
			/>
		<path d="M216.7,35.1c0,0.2-0.1,0.3-0.3,0.3h-1c-0.2,0-0.3-0.1-0.3-0.3v-4.8c0-0.2,0.1-0.3,0.3-0.3h1c0.2,0,0.3,0.1,0.3,0.3V35.1z"
			/>
		<path d="M213.7,35.1c0,0.2-0.1,0.3-0.3,0.3h-1c-0.2,0-0.3-0.1-0.3-0.3v-3.3c0-0.2,0.1-0.3,0.3-0.3h1c0.2,0,0.3,0.1,0.3,0.3V35.1z"
			/>
		<path d="M210.8,35.1c0,0.2-0.1,0.3-0.3,0.3h-1c-0.2,0-0.3-0.1-0.3-0.3v-2.1c0-0.2,0.1-0.3,0.3-0.3h1c0.2,0,0.3,0.1,0.3,0.3V35.1z"
			/>
	</g>
	<g>
		<path class="st3" d="M224.5,31.5c-0.4-0.4-0.9-0.8-1.3-1.3c2.6-2.7,7.3-2.8,10,0c-0.4,0.4-0.8,0.8-1.3,1.3c-1-1-2.3-1.5-3.7-1.5
			C226.8,30,225.5,30.5,224.5,31.5z"/>
		<path class="st3" d="M226.3,33.4c-0.4-0.4-0.8-0.8-1.3-1.2c1.6-1.7,4.6-1.7,6.3,0c-0.4,0.4-0.8,0.8-1.2,1.3
			C228.8,32.4,227.6,32.4,226.3,33.4z"/>
		<path class="st3" d="M229.5,34c-0.4,0.4-0.8,0.8-1.2,1.3c-0.4-0.4-0.8-0.8-1.2-1.2C227.5,33.4,228.7,33.3,229.5,34z"/>
	</g>
	<g>
		<path class="st4" d="M249.3,28.1h-11c-0.9,0-1.6,0.7-1.6,1.6V34c0,0.9,0.7,1.6,1.6,1.6h11c0.9,0,1.6-0.7,1.6-1.6v-4.3
			C250.9,28.8,250.2,28.1,249.3,28.1z M250.2,34c0,0.5-0.4,1-1,1h-11c-0.5,0-1-0.4-1-1v-4.3c0-0.5,0.4-1,1-1h11c0.5,0,1,0.4,1,1V34z
			"/>
		<path d="M249.6,34c0,0.2-0.1,0.3-0.3,0.3h-11c-0.2,0-0.3-0.1-0.3-0.3v-4.3c0-0.2,0.1-0.3,0.3-0.3h11c0.2,0,0.3,0.1,0.3,0.3V34z"/>
		<path d="M252.4,31.8c0,0.5-0.4,0.9-0.9,0.9c0-0.6,0-1.2,0-1.7C252,30.9,252.4,31.3,252.4,31.8z"/>
	</g>
</g>
</svg>
