<svg id="Layer_1" data-name="Layer 1" xmlns="http://www.w3.org/2000/svg" viewBox="0 0 207 312"><defs><style>.cls-1{opacity:0.55;}.cls-2{fill:#fff;}</style></defs><title>pillars</title><g class="cls-1"><path class="cls-2" d="M41.34,259.07l18.28-17.49c11.22-10.7,20.35-19.57,27.92-30,8.35-11.75,13-23,13-38.37,0-18-6.78-32.36-16.18-41.76-6.26-6-19.84-16.44-45.15-16.44C21.5,115,8.83,119.68,0,125.6v51H13.42c0-6.78,2.61-16.18,7.31-21.4,3.39-3.65,8.35-6.26,15.92-6.26,6.78,0,12.52,1.82,15.92,5,4.17,3.91,6.78,10.7,6.78,17.22,0,12-6.52,23.23-10.44,29.5C43.43,209,29.6,225.92,20.46,236.1L0,258.4V293H101.38V259.07Z"/></g></svg>