<svg xmlns="http://www.w3.org/2000/svg" xmlns:xlink="http://www.w3.org/1999/xlink" viewBox="0 0 398.18 584"><defs><style>.cls-1{fill:#fff;}.cls-2,.cls-4{fill:#00bca5;}.cls-2,.cls-3{opacity:0.19;}.cls-5{fill:url(#New_Gradient_Swatch_1);}</style><linearGradient id="New_Gradient_Swatch_1" x1="19.78" y1="229.96" x2="381.32" y2="229.96" gradientUnits="userSpaceOnUse"><stop offset="0" stop-color="#5bffce"/><stop offset="1" stop-color="#00bca5"/></linearGradient></defs><title>updated operational excellence</title><g id="Layer_1" data-name="Layer 1"><rect class="cls-1" width="398.18" height="584"/><path d="M82.21,500.43a17.62,17.62,0,0,1-23.25,0,15.43,15.43,0,0,1,0-22.06,17.65,17.65,0,0,1,23.25,0,15.43,15.43,0,0,1,0,22.06ZM64.62,483.77a8,8,0,0,0-2.35,5.79A7.47,7.47,0,0,0,64.62,495a8.34,8.34,0,0,0,6,2.34,8,8,0,0,0,8.31-7.95,7.94,7.94,0,0,0-2.38-5.66,8.83,8.83,0,0,0-5.93-2.35A8.49,8.49,0,0,0,64.62,483.77Z"/><path d="M99.36,494.38v9.76H91.71V474.66h12.2a10.19,10.19,0,0,1,7.47,2.65,9.14,9.14,0,0,1,2.74,7.16c0,2.35-.31,5.09-2.61,7.34a9.81,9.81,0,0,1-7.34,2.57Zm0-6.19h2.56a5,5,0,0,0,3.23-.93,3.41,3.41,0,0,0,1-2.7,3.57,3.57,0,0,0-.89-2.65,4.47,4.47,0,0,0-3.27-1.06h-2.6Z"/><path d="M134.94,481.16h-9.11v4.91h8.62v6.49h-8.62v5.09h9.11v6.49H118.18V474.66h16.76Z"/><path d="M151.73,474.66a9.56,9.56,0,0,1,7.21,2.61,9.7,9.7,0,0,1,2.52,6.63,8.49,8.49,0,0,1-2.35,6.14,8.25,8.25,0,0,1-4.06,2l9.23,12.06h-9.5l-7.34-11.31v11.31H139.8V474.66Zm-4.29,13.22h1.46a5.74,5.74,0,0,0,3.72-1.2,3.66,3.66,0,0,0,1-2.47,3.51,3.51,0,0,0-1-2.48,5.23,5.23,0,0,0-3.67-1.15h-1.46Z"/><path d="M185.5,499.19H174.8l-2,4.95h-8.09L176,474.66h8.35l11.1,29.48h-8.18Zm-2-5.83-3.32-9.55-3.23,9.55Z"/><path d="M208.7,481.16v23h-7.64v-23h-6.28v-6.5H215v6.5Z"/><path d="M226,474.66v29.48h-7.65V474.66Z"/><path d="M258.78,500.43a17.62,17.62,0,0,1-23.25,0,15.43,15.43,0,0,1,0-22.06,17.65,17.65,0,0,1,23.25,0,15.43,15.43,0,0,1,0,22.06Zm-17.59-16.66a8.08,8.08,0,0,0-2.35,5.79,7.47,7.47,0,0,0,2.35,5.48,8.34,8.34,0,0,0,6,2.34,8,8,0,0,0,8.31-7.95,7.94,7.94,0,0,0-2.38-5.66,8.83,8.83,0,0,0-5.93-2.35A8.49,8.49,0,0,0,241.19,483.77Z"/><path d="M268.28,504.14V474.66h7.65l14.1,18v-18h7.64v29.48H290l-14.1-18v18Z"/><path d="M321.85,499.19h-10.7l-2,4.95h-8.09l11.32-29.48h8.35l11.1,29.48h-8.18Zm-2-5.83-3.32-9.55-3.23,9.55Z"/><path d="M342.89,474.66v23h9.19v6.49H335.24V474.66Z"/><path d="M72.4,536.23H63.29v4.9h8.62v6.5H63.29v5.08H72.4v6.5H55.64V529.73H72.4Z"/><path d="M85.7,543.48l-9.46-13.75H85.7l4.37,7.65,4.56-7.65H104l-9.59,13.75,11.14,15.73H96.31L90,549.62l-6.63,9.59H74.16Z"/><path d="M127.64,558.42a18.27,18.27,0,0,1-6.63,1.45,16,16,0,0,1-11.4-4.42,15.46,15.46,0,0,1-4.46-10.74,15.47,15.47,0,0,1,15.6-15.47,18.15,18.15,0,0,1,6.89,1.51v9.15a8.2,8.2,0,0,0-6.67-3.23,7.45,7.45,0,0,0-5.3,1.94,7.86,7.86,0,0,0,5.3,13.84,8.62,8.62,0,0,0,6.67-3.1Z"/><path d="M149.26,536.23h-9.11v4.9h8.62v6.5h-8.62v5.08h9.11v6.5H132.5V529.73h16.76Z"/><path d="M161.76,529.73v23H171v6.5H154.12V529.73Z"/><path d="M182.54,529.73v23h9.19v6.5H174.89V529.73Z"/><path d="M212.42,536.23h-9.11v4.9h8.62v6.5h-8.62v5.08h9.11v6.5H195.66V529.73h16.76Z"/><path d="M217.28,559.21V529.73h7.64l14.1,18v-18h7.65v29.48H239l-14.1-18v18Z"/><path d="M274,558.42a18.27,18.27,0,0,1-6.63,1.45A16,16,0,0,1,256,555.45a15.46,15.46,0,0,1-4.46-10.74,15.47,15.47,0,0,1,15.6-15.47,18.15,18.15,0,0,1,6.9,1.51v9.15a8.22,8.22,0,0,0-6.68-3.23,7.45,7.45,0,0,0-5.3,1.94,7.86,7.86,0,0,0,5.3,13.84,8.65,8.65,0,0,0,6.68-3.1Z"/><path d="M295.64,536.23h-9.11v4.9h8.62v6.5h-8.62v5.08h9.11v6.5H278.89V529.73h16.75Z"/><g id="_Group_" data-name="&lt;Group&gt;"><rect id="_Rectangle_" data-name="&lt;Rectangle&gt;" class="cls-1" x="24.32" y="161.81" width="351.57" height="112.02" rx="0.24" ry="0.24"/><rect id="_Rectangle_2" data-name="&lt;Rectangle&gt;" class="cls-1" x="263.4" y="154.5" width="112.49" height="114.98" rx="0.24" ry="0.24"/><rect id="_Rectangle_3" data-name="&lt;Rectangle&gt;" class="cls-1" x="132.22" y="72.15" width="133.81" height="109.06" rx="0.24" ry="0.24"/><path id="_Path_" data-name="&lt;Path&gt;" class="cls-2" d="M264.21,72.15H134A1.83,1.83,0,0,0,132.22,74V95.11h109a1.82,1.82,0,0,1,1.83,1.82v84.28h21.13a1.83,1.83,0,0,0,1.82-1.83V74A1.83,1.83,0,0,0,264.21,72.15Z"/><path id="_Path_2" data-name="&lt;Path&gt;" class="cls-1" d="M322.53,282.17H321.3a44.4,44.4,0,0,0-66.66-25,60.83,60.83,0,0,0-118.21-8.75,45.54,45.54,0,0,0-5.27-1.08,21.76,21.76,0,0,0-4.81-.57l.25.25c-.34,0-.68-.07-1-.07a41.77,41.77,0,0,0-41.24,35.24H77.52a31.3,31.3,0,0,0-31.21,31.21H353.74A31.3,31.3,0,0,0,322.53,282.17Z"/><g id="_Group_2" data-name="&lt;Group&gt;" class="cls-3"><path id="_Path_3" data-name="&lt;Path&gt;" class="cls-4" d="M322.53,282.17H321.3a44.46,44.46,0,0,0-42.68-32.07,43.93,43.93,0,0,0-15.22,2.81,44.56,44.56,0,0,1,27.3,29.26h1.22a31.3,31.3,0,0,1,31.21,31.21h30.61A31.3,31.3,0,0,0,322.53,282.17Z"/></g><path class="cls-5" d="M190.1,393.21a56.25,56.25,0,1,1,27.26-105.45l-5.27,9.5A45.38,45.38,0,1,0,235.48,337h10.87A56.31,56.31,0,0,1,190.1,393.21Zm2-33.33-38.2-38.19,7.69-7.69,30.51,30.51,64.86-64.86,7.68,7.68Zm185.16-48.35H342.43v-5.44A24.1,24.1,0,0,0,318.35,282h-5.24L312,278.09a36.56,36.56,0,0,0-54.9-20.6l-7,4.52-1.28-8.26a52.09,52.09,0,0,0-100.12-10.7,25.89,25.89,0,0,1,10.09,20.52H147.88A15.09,15.09,0,0,0,136.69,249a32.77,32.77,0,0,0-4.6-.33,33.9,33.9,0,0,0-33.64,28.74L97.72,282H86.64a24.1,24.1,0,0,0-24.08,24.08v5.44H23.93V300.66H52.11a35,35,0,0,1,34.53-29.52h2A44.73,44.73,0,0,1,108,244.72H95.75V233.86h18.62V205l-37.49-.24v39.94H48V233.86H66v-40l59.23.39v44.1a45.19,45.19,0,0,1,7.58-.51v-.18a25.88,25.88,0,0,1,6,.71h0a63.67,63.67,0,0,1,20.8-27.08,62.91,62.91,0,0,1,78.87,2.83,63.14,63.14,0,0,1,19.43,30.65,47.24,47.24,0,0,1,18.9-3.94,47.74,47.74,0,0,1,44.3,30.44,35,35,0,0,1,31.75,29.41h24.33ZM46.65,282.22H27.08a7.32,7.32,0,0,1-7.3-7.31V163.68a7.31,7.31,0,0,1,7.3-7.3h90.23v10.86H30.65V271.35h16ZM374,274.91H348.63V264h21.82V243.61H323.83l-22.87-20-11.13,11.64L282,227.76l18.3-19.15,27.63,24.14h42.54V159.94H283.79V149.07H374a7.31,7.31,0,0,1,7.3,7.3V267.61A7.3,7.3,0,0,1,374,274.91ZM230.26,251.22A42.51,42.51,0,0,0,173,237.75l-5.54-9.35a53.36,53.36,0,0,1,72,16.9ZM348.63,191.9H324.09V181h24.54Zm-82.77-5.26H132.39a5.6,5.6,0,0,1-5.6-5.6V72.32a5.6,5.6,0,0,1,5.6-5.6H265.86a5.61,5.61,0,0,1,5.61,5.6V181A5.61,5.61,0,0,1,265.86,186.64ZM137.65,175.77h123V77.58h-123Zm36.64-13.61a6.81,6.81,0,0,1-6.81-6.81V98a6.82,6.82,0,0,1,10.22-5.89l49.66,28.67,0,0a6.82,6.82,0,0,1,3.38,5.68v.2a6.83,6.83,0,0,1-3.41,5.9L177.7,161.25A6.78,6.78,0,0,1,174.29,162.16ZM178.35,105v43.3l37.49-21.65Z"/></g></g></svg>