<svg xmlns="http://www.w3.org/2000/svg" xmlns:xlink="http://www.w3.org/1999/xlink" viewBox="0 0 415.18 584"><defs><style>.cls-1{fill:#fff;}.cls-2,.cls-3{fill:#5bffce;}.cls-2{opacity:0.3;}.cls-3{opacity:0.22;}.cls-4{fill:url(#New_Gradient_Swatch_1);}</style><linearGradient id="New_Gradient_Swatch_1" x1="6.64" y1="204.42" x2="403.11" y2="204.42" gradientUnits="userSpaceOnUse"><stop offset="0" stop-color="#5bffce"/><stop offset="1" stop-color="#00bca5"/></linearGradient></defs><title>updated operational excellence</title><g id="Layer_1" data-name="Layer 1"><rect class="cls-1" width="415.18" height="584"/><g id="_Group_" data-name="&lt;Group&gt;"><path id="_Path_" data-name="&lt;Path&gt;" class="cls-2" d="M366.27,59.75a28.27,28.27,0,1,1-8.28-20A28.17,28.17,0,0,1,366.27,59.75Z"/><path id="_Path_2" data-name="&lt;Path&gt;" class="cls-1" d="M202.85,39.85a81.06,81.06,0,0,0-46.36,73.25v171h92.72v-171A81.06,81.06,0,0,0,202.85,39.85Z"/><path id="_Path_3" data-name="&lt;Path&gt;" class="cls-1" d="M202.85,39.85a81.06,81.06,0,0,0-46.36,73.25v171h92.72v-171A81.06,81.06,0,0,0,202.85,39.85Z"/><path id="_Path_4" data-name="&lt;Path&gt;" class="cls-3" d="M202.85,39.85a80.93,80.93,0,0,0-12.12,7.25,81,81,0,0,1,34.24,66v171h24.24v-171A81.06,81.06,0,0,0,202.85,39.85Z"/><path id="_Path_5" data-name="&lt;Path&gt;" class="cls-2" d="M283.72,324.87v28.76a25.56,25.56,0,0,0,14.62,23.1A25.56,25.56,0,0,0,313,353.63V324.87Z"/><path id="_Path_6" data-name="&lt;Path&gt;" class="cls-2" d="M188.23,324.87v28.76a25.56,25.56,0,0,0,14.62,23.1,25.56,25.56,0,0,0,14.62-23.1V324.87Z"/><path id="_Path_7" data-name="&lt;Path&gt;" class="cls-2" d="M92.74,324.87v28.76a25.56,25.56,0,0,0,14.62,23.1A25.56,25.56,0,0,0,122,353.63V324.87Z"/><path id="_Path_8" data-name="&lt;Path&gt;" class="cls-1" d="M318.47,308.51H278.21V234.25a35.19,35.19,0,0,1,20.13-31.8h0a35.19,35.19,0,0,1,20.13,31.8Z"/><path id="_Path_9" data-name="&lt;Path&gt;" class="cls-1" d="M223.59,308.51H183.33V234.25a35.19,35.19,0,0,1,20.13-31.8h0a35.19,35.19,0,0,1,20.13,31.8Z"/><path id="_Path_10" data-name="&lt;Path&gt;" class="cls-1" d="M127.82,308.51H87.57V234.25a35.17,35.17,0,0,1,20.13-31.8h0a35.18,35.18,0,0,1,20.12,31.8Z"/><circle id="_Path_11" data-name="&lt;Path&gt;" class="cls-2" cx="204.68" cy="137.09" r="18.91"/><path class="cls-4" d="M298.34,383.37l-2.57-1.21a31.71,31.71,0,0,1-18-28.53V324.87h12v28.76a19.67,19.67,0,0,0,8.61,16.21A19.68,19.68,0,0,0,307,353.63V324.87h12v28.76a31.72,31.72,0,0,1-18.06,28.53Zm-95.32,0-2.57-1.21a31.72,31.72,0,0,1-18.06-28.53V324.87h12v28.76A19.68,19.68,0,0,0,203,369.84a19.68,19.68,0,0,0,8.62-16.21V324.87h12v28.76a31.71,31.71,0,0,1-18,28.53Zm-95.32,0-2.57-1.21a31.72,31.72,0,0,1-18.06-28.53V324.87h12v28.76a19.65,19.65,0,0,0,8.62,16.21,19.67,19.67,0,0,0,8.61-16.21V324.87h12v28.76a31.73,31.73,0,0,1-18,28.53Zm216.44-68.86H271.87V285.87L255.82,269v21.15H237v-12h6.81v-165a74.5,74.5,0,0,0-4.51-25.51H167.62a74.5,74.5,0,0,0-4.51,25.51v165h6.19v12H151.1V269l-17.27,18.19v27.36H81.56V234.25A41.38,41.38,0,0,1,105.13,197l2.57-1.22,2.57,1.22a41.39,41.39,0,0,1,23.56,37.23v6.18l17.27-18.2V113.1a87.44,87.44,0,0,1,49.79-78.68l2.57-1.21L206,34.42a87.44,87.44,0,0,1,49.79,78.68V222.23l16.05,16.91v-4.89A41.39,41.39,0,0,1,295.43,197L298,195.8l2.57,1.22a41.38,41.38,0,0,1,23.57,37.23Zm-40.26-12h28.25v-35H283.88Zm-190.31,0h28.25v-35H93.57Zm40.26-44.63v11.84l17.27-18.2V239.68Zm122-6.36,16.05,16.91V256.59l-16.05-16.91Zm28.06,4h28.25V234.25a29.31,29.31,0,0,0-14.13-25,29.33,29.33,0,0,0-14.12,25Zm-190.31,0h28.25V234.25a29.33,29.33,0,0,0-14.12-25,29.31,29.31,0,0,0-14.13,25ZM173.23,75.58h60.46a75.12,75.12,0,0,0-30.23-29A75.12,75.12,0,0,0,173.23,75.58ZM229,314.51H176.72V234.25A41.39,41.39,0,0,1,200.28,197l2.57-1.22,2.57,1.22A41.39,41.39,0,0,1,229,234.25Zm-40.25-12H217v-35H188.73Zm0-47H217V234.25a29.33,29.33,0,0,0-14.12-25,29.3,29.3,0,0,0-14.12,25Zm198.83-3L379.07,244a41.07,41.07,0,0,0-22.57-69.59A36.07,36.07,0,0,1,346,196.85l-8.49-8.49A24.32,24.32,0,1,0,296,171.16v6H268.82v-12h15.65a36.34,36.34,0,0,1,71.06-3,53.06,53.06,0,0,1,32,90.31ZM203.46,162a24.92,24.92,0,1,1,24.91-24.92A24.94,24.94,0,0,1,203.46,162Zm0-37.82a12.91,12.91,0,1,0,12.9,12.9A12.91,12.91,0,0,0,203.46,124.19Zm-146,26.31L48.94,142a17.74,17.74,0,1,0-30.29-12.54h-12a29.75,29.75,0,0,1,48.8-22.86A38.19,38.19,0,0,1,128.52,115h13.94v12H117v-6a26.18,26.18,0,0,0-52.34-1,29.82,29.82,0,0,1-7.21,30.44ZM338,94a34.28,34.28,0,1,1,24.24-10A34.1,34.1,0,0,1,338,94Zm0-56.55A22.26,22.26,0,1,0,353.75,44,22.12,22.12,0,0,0,338,37.48Z"/></g><path d="M52.74,504.14V474.66h10c3,0,7.91.4,11.71,4.07a14.38,14.38,0,0,1,4.11,10.74c0,3.89-1,7.34-3.84,10.21a16,16,0,0,1-11.32,4.46Zm7.65-6.49h1.55c1.86,0,4.46-.18,6.45-2.12a8.06,8.06,0,0,0,2.26-6.06,8.8,8.8,0,0,0-2.3-6.45c-1.81-1.68-4.2-1.86-6.1-1.86H60.39Z"/><path d="M91.11,474.66v29.48H83.46V474.66Z"/><path d="M111.44,487.44h15.21c0,5.83-1.2,10-4.73,13.26a14.41,14.41,0,0,1-10.39,3.71A15.24,15.24,0,0,1,100.21,500,14.85,14.85,0,0,1,96,489.38a15.39,15.39,0,0,1,4.42-11.05,17.13,17.13,0,0,1,19.4-2.34,14.44,14.44,0,0,1,5.26,6.05l-7.29,3a7.23,7.23,0,0,0-2.12-3,6.18,6.18,0,0,0-4.11-1.46,7.12,7.12,0,0,0-5,2,10,10,0,0,0-2.56,6.77,9.22,9.22,0,0,0,2.34,6.36,7,7,0,0,0,5.39,2.25,6.33,6.33,0,0,0,4.25-1.37,5.27,5.27,0,0,0,1.81-3.27h-6.28Z"/><path d="M139.15,474.66v29.48H131.5V474.66Z"/><path d="M156.48,481.16v23h-7.65v-23h-6.28v-6.5h20.2v6.5Z"/><path d="M182.82,499.19h-10.7l-2,4.95h-8.08l11.31-29.48h8.36l11.09,29.48h-8.18Zm-2-5.83-3.32-9.55-3.23,9.55Z"/><path d="M203.86,474.66v23h9.19v6.49H196.21V474.66Z"/><path d="M61.55,540v19.21H55.16V540H49.91v-5.43H66.8V540Z"/><path d="M79.62,534.57a7.93,7.93,0,0,1,6,2.18,8.12,8.12,0,0,1,2.11,5.54,7.09,7.09,0,0,1-2,5.13,6.86,6.86,0,0,1-3.4,1.7l7.72,10.09H82.17L76,549.75v9.46H69.64V534.57Zm-3.59,11h1.22a4.82,4.82,0,0,0,3.11-1,3.08,3.08,0,0,0,.81-2.07,2.93,2.93,0,0,0-.85-2.07,4.34,4.34,0,0,0-3.07-1H76Z"/><path d="M107.85,555.07H98.91l-1.67,4.14H90.48l9.46-24.64h7l9.27,24.64h-6.84Zm-1.7-4.87-2.77-8-2.7,8Z"/><path d="M119.05,559.21V534.57h6.39l11.79,15.07V534.57h6.39v24.64h-6.39l-11.79-15.07v15.07Z"/><path d="M150.42,551.82a8.61,8.61,0,0,0,5.65,2.51,3.22,3.22,0,0,0,2.48-.85,2.18,2.18,0,0,0,.63-1.55,1.94,1.94,0,0,0-.71-1.48,8.83,8.83,0,0,0-3.17-1.29l-1.67-.52a8,8,0,0,1-3.54-2,6.19,6.19,0,0,1-1.41-4.36,8.06,8.06,0,0,1,2.26-5.95,8.65,8.65,0,0,1,6.32-2.33,17.34,17.34,0,0,1,7.61,2l-2.55,5a6.5,6.5,0,0,0-4.21-1.67,3.09,3.09,0,0,0-2.11.74,1.83,1.83,0,0,0-.63,1.33,1.63,1.63,0,0,0,.33,1.11,4.07,4.07,0,0,0,2.15,1.11l2,.59a9.39,9.39,0,0,1,4.48,2.44,5.84,5.84,0,0,1,1.58,4.4,8.34,8.34,0,0,1-2.32,6.2c-2.11,2.11-4.66,2.52-7.28,2.52a13.09,13.09,0,0,1-4.84-.82,16.68,16.68,0,0,1-3.73-2Z"/><path d="M184,540h-7.72v4.1h7v5.43h-7v9.68h-6.4V534.57H184Z"/><path d="M210,556.11a14.72,14.72,0,0,1-19.43,0,12.89,12.89,0,0,1,0-18.44,14.72,14.72,0,0,1,19.43,0,12.89,12.89,0,0,1,0,18.44Zm-14.7-13.93a6.75,6.75,0,0,0-2,4.84,6.24,6.24,0,0,0,2,4.58,7,7,0,0,0,5,2,6.68,6.68,0,0,0,6.95-6.65,6.68,6.68,0,0,0-2-4.73,7.37,7.37,0,0,0-5-2A7.09,7.09,0,0,0,195.32,542.18Z"/><path d="M228,534.57a7.94,7.94,0,0,1,6,2.18,8.11,8.11,0,0,1,2.1,5.54,7.08,7.08,0,0,1-1.95,5.13,6.86,6.86,0,0,1-3.4,1.7l7.72,10.09h-7.95l-6.13-9.46v9.46H218V534.57Zm-3.59,11h1.22a4.77,4.77,0,0,0,3.1-1,3.09,3.09,0,0,0,.82-2.07,2.93,2.93,0,0,0-.85-2.07,4.36,4.36,0,0,0-3.07-1h-1.22Z"/><path d="M240,559.21l4.18-24.64h6.31l5,13.15,5.29-13.15h6.39l3.69,24.64h-6.39L262.68,545l-5.95,14.19h-2.55L248.49,545l-2.1,14.19Z"/><path d="M290,555.07h-8.94l-1.67,4.14h-6.76l9.46-24.64h7l9.28,24.64H291.5Zm-1.7-4.87-2.77-8-2.7,8Z"/><path d="M309.39,540v19.21H303V540h-5.25v-5.43h16.89V540Z"/><path d="M323.87,534.57v24.64h-6.39V534.57Z"/><path d="M351.25,556.11a14.72,14.72,0,0,1-19.43,0,12.89,12.89,0,0,1,0-18.44,14.72,14.72,0,0,1,19.43,0,12.89,12.89,0,0,1,0,18.44Zm-14.7-13.93a6.75,6.75,0,0,0-2,4.84,6.28,6.28,0,0,0,2,4.58,7,7,0,0,0,5,2,6.68,6.68,0,0,0,6.94-6.65,6.68,6.68,0,0,0-2-4.73,7.35,7.35,0,0,0-4.95-2A7.09,7.09,0,0,0,336.55,542.18Z"/><path d="M359.2,559.21V534.57h6.39l11.79,15.07V534.57h6.39v24.64h-6.39l-11.79-15.07v15.07Z"/></g></svg>