<?xml version="1.0" encoding="utf-8"?>
<!-- Generator: Adobe Illustrator 22.1.0, SVG Export Plug-In . SVG Version: 6.00 Build 0)  -->
<svg version="1.1" id="Layer_1" xmlns="http://www.w3.org/2000/svg" xmlns:xlink="http://www.w3.org/1999/xlink" x="0px" y="0px"
	 viewBox="0 0 500 500" style="enable-background:new 0 0 500 500;" xml:space="preserve">
<style type="text/css">
	.st0{fill:#FFFFFF;}
	.st1{fill:#1E1E1E;}
</style>
<circle class="st0" cx="250" cy="250" r="250"/>
<g>
	<g>
		<path class="st1" d="M115.5,329.6h-7.2V216.6h7.2V329.6z"/>
		<path class="st1" d="M189.9,329.6l-1.8-12.5h-0.6c-4,5.1-8.1,8.7-12.2,10.8c-4.2,2.1-9.1,3.2-14.9,3.2c-7.8,0-13.8-2-18.1-6
			c-4.3-4-6.5-9.5-6.5-16.5c0-7.7,3.2-13.7,9.6-17.9c6.4-4.3,15.7-6.5,27.9-6.8l15-0.4v-5.2c0-7.5-1.5-13.2-4.6-17
			c-3.1-3.8-8-5.7-14.7-5.7c-7.3,0-14.9,2-22.7,6.1l-2.7-6.2c8.7-4.1,17.2-6.1,25.7-6.1c8.7,0,15.1,2.3,19.4,6.8
			c4.3,4.5,6.4,11.5,6.4,21.1v52.5H189.9z M160.8,324.5c8.4,0,15.1-2.4,19.9-7.2c4.9-4.8,7.3-11.5,7.3-20.1v-7.8l-13.8,0.6
			c-11.1,0.5-19,2.3-23.7,5.2c-4.7,2.9-7.1,7.5-7.1,13.7c0,4.9,1.5,8.8,4.5,11.5C151.1,323.2,155.3,324.5,160.8,324.5z"/>
		<path class="st1" d="M254.1,249.1c11,0,19.4,3.5,25,10.4c5.6,7,8.4,17.1,8.4,30.5c0,13.1-2.9,23.3-8.8,30.4s-14.2,10.7-24.8,10.7
			c-5.6,0-10.7-1.2-15.2-3.5c-4.5-2.3-8.1-5.6-10.7-9.9h-0.7l-2,11.9h-4.5V216.6h7.2V245c0,4.3-0.1,8.2-0.3,11.8l-0.2,6.2h0.5
			c3-4.7,6.6-8.2,10.9-10.5C243.1,250.2,248.2,249.1,254.1,249.1z M254,255.6c-9.3,0-16,2.7-20,8c-4,5.3-6,14.1-6,26.4v1.2
			c0,11.9,2.1,20.5,6.3,25.6c4.2,5.2,10.7,7.8,19.6,7.8c8.6,0,15.1-3,19.5-9c4.4-6,6.5-14.6,6.5-25.8
			C279.9,267.1,271.2,255.6,254,255.6z"/>
		<path class="st1" d="M341.3,331.1c-11.5,0-20.4-3.5-26.8-10.6c-6.4-7.1-9.6-17-9.6-29.7c0-12.6,3.1-22.7,9.3-30.3
			c6.2-7.6,14.6-11.4,25.1-11.4c9.3,0,16.6,3.2,22,9.7c5.4,6.5,8.1,15.3,8.1,26.4v5.8h-56.9c0.1,10.9,2.6,19.1,7.6,24.8
			s12.1,8.6,21.3,8.6c4.5,0,8.5-0.3,11.9-0.9c3.4-0.6,7.7-2,13-4.1v6.5c-4.5,1.9-8.6,3.3-12.4,4C350,330.7,345.8,331.1,341.3,331.1z
			 M339.1,255.5c-7.6,0-13.7,2.5-18.3,7.5s-7.3,12.2-8.1,21.7h48.8c0-9.2-2-16.3-6-21.5C351.7,258.1,346.2,255.5,339.1,255.5z"/>
		<path class="st1" d="M398.2,329.6H391V216.6h7.2V329.6z"/>
	</g>
	<g>
		<path d="M108.5,169l4.3,16l5.3-16l5.1,0l4.8,16l4.7-16l6.7,0l-8,24.8l-6.6,0l-4.5-14.4l-4.8,14.3l-6.5,0l-7.3-24.8L108.5,169z"/>
		<path d="M161.3,178.4l9.3,0l0-9.3l6.5,0l-0.1,24.8l-6.5,0l0-10l-9.3,0l0,10l-6.4,0l0.1-24.8l6.4,0L161.3,178.4z"/>
		<path d="M201.6,169.3l-0.1,24.8l-6.4,0l0.1-24.8L201.6,169.3z"/>
		<path d="M229,174.8l-0.1,19.3l-6.4,0l0.1-19.3l-5.3,0l0-5.5l17,0.1l0,5.5L229,174.8z"/>
		<path d="M264.1,175l-7.7,0l0,4.1l7.3,0l0,5.5l-7.3,0l0,4.3l7.7,0l0,5.5l-14.1,0l0.1-24.8l14.1,0L264.1,175z"/>
	</g>
</g>
</svg>
