<?xml version="1.0" encoding="utf-8"?>
<!-- Generator: Adobe Illustrator 22.1.0, SVG Export Plug-In . SVG Version: 6.00 Build 0)  -->
<svg version="1.1" id="Layer_1" xmlns="http://www.w3.org/2000/svg" xmlns:xlink="http://www.w3.org/1999/xlink" x="0px" y="0px"
	 viewBox="0 0 500 500" style="enable-background:new 0 0 500 500;" xml:space="preserve">
<style type="text/css">
	.st0{fill:#1E1E1E;}
</style>
<g>
	<path class="st0" d="M71.8,302c-11.3,0-20.1-3.6-26.5-10.7c-6.4-7.1-9.6-17-9.6-29.8c0-13.1,3.3-23.3,10-30.6
		c6.6-7.3,15.7-10.9,27.2-10.9c6.8,0,13.4,1.2,19.6,3.6l-2,6.4c-6.8-2.3-12.8-3.4-17.8-3.4c-9.7,0-17,3-22,9c-5,6-7.5,14.6-7.5,25.8
		c0,10.7,2.5,19,7.5,25c5,6,12,9,20.9,9c7.2,0,13.8-1.3,20-3.9v6.7C86.6,300.8,79.9,302,71.8,302z"/>
	<path class="st0" d="M176.2,261c0,12.9-3.1,22.9-9.4,30.2C160.6,298.4,152,302,141,302c-6.9,0-13-1.7-18.3-5
		c-5.3-3.3-9.3-8.1-12.1-14.4c-2.8-6.2-4.2-13.5-4.2-21.7c0-12.9,3.1-22.9,9.4-30.1c6.2-7.2,14.8-10.8,25.7-10.8
		c10.9,0,19.4,3.6,25.5,10.9C173.2,238.3,176.2,248.3,176.2,261z M113.9,261c0,10.9,2.4,19.3,7.2,25.4c4.8,6.1,11.5,9.1,20.2,9.1
		c8.7,0,15.5-3,20.2-9.1c4.8-6.1,7.2-14.5,7.2-25.4c0-10.9-2.4-19.4-7.2-25.4c-4.8-6-11.6-9-20.3-9s-15.4,3-20.2,9
		C116.3,241.6,113.9,250,113.9,261z"/>
	<path class="st0" d="M227,220.1c5.7,0,10.7,1,14.8,3.1c4.2,2.1,7.9,5.6,11.2,10.7h0.4c-0.3-6.1-0.4-12.1-0.4-17.9v-28.4h7.1v113.1
		h-4.7l-1.8-12.1H253c-6,9-14.6,13.5-25.9,13.5c-10.9,0-19.2-3.4-25-10.2c-5.8-6.8-8.6-16.7-8.6-29.6c0-13.7,2.9-24.1,8.6-31.3
		C207.8,223.7,216.1,220.1,227,220.1z M227,226.6c-8.6,0-15.1,3-19.4,9.1c-4.3,6.1-6.5,14.8-6.5,26.4c0,22.4,8.7,33.6,26.1,33.6
		c8.9,0,15.5-2.6,19.6-7.8c4.2-5.2,6.2-13.7,6.2-25.6V261c0-12.2-2-21-6.1-26.3C242.8,229.3,236.2,226.6,227,226.6z"/>
	<path class="st0" d="M285.7,199.7c0-4.6,1.5-7,4.6-7c1.5,0,2.7,0.6,3.5,1.8c0.8,1.2,1.3,2.9,1.3,5.2c0,2.2-0.4,3.9-1.3,5.2
		c-0.8,1.3-2,1.9-3.5,1.9C287.2,206.7,285.7,204.4,285.7,199.7z M293.9,300.6h-7.2v-79h7.2V300.6z"/>
	<path class="st0" d="M375.4,300.6v-51.2c0-7.9-1.7-13.7-5-17.3c-3.3-3.6-8.5-5.4-15.5-5.4c-9.4,0-16.4,2.4-20.7,7.2
		c-4.4,4.8-6.6,12.5-6.6,23.2v43.6h-7.2v-79h6.1l1.4,10.8h0.4c5.1-8.2,14.3-12.4,27.4-12.4c17.9,0,26.9,9.6,26.9,28.8v51.7H375.4z"
		/>
	<path class="st0" d="M469.7,221.6v5l-16.3,1c4.4,5.4,6.5,11.4,6.5,17.9c0,7.6-2.5,13.8-7.6,18.5s-11.9,7.1-20.4,7.1
		c-3.6,0-6.1-0.1-7.6-0.4c-2.9,1.5-5,3.3-6.5,5.3c-1.5,2-2.3,4.2-2.3,6.5c0,2.5,1,4.4,2.9,5.5c1.9,1.2,5.1,1.7,9.6,1.7h13.8
		c8.6,0,15.1,1.7,19.7,5.2c4.6,3.5,6.8,8.6,6.8,15.4c0,8.3-3.4,14.8-10.1,19.3c-6.8,4.5-16.4,6.8-28.9,6.8c-9.9,0-17.6-1.9-23.1-5.7
		c-5.4-3.8-8.2-9.2-8.2-16c0-5.4,1.7-9.9,5-13.5c3.4-3.6,7.9-6,13.7-7.3c-2.4-1-4.3-2.5-5.7-4.3c-1.4-1.9-2.1-4-2.1-6.4
		c0-5.3,3.4-9.9,10.1-14c-4.6-1.9-8.2-4.9-10.8-8.9c-2.6-4-3.9-8.7-3.9-13.9c0-7.9,2.5-14.2,7.5-19c5-4.8,11.8-7.2,20.3-7.2
		c5.2,0,9.2,0.5,12.1,1.5H469.7z M405.8,314c0,10.8,8.1,16.3,24.2,16.3c20.7,0,31.1-6.6,31.1-19.8c0-4.7-1.6-8.2-4.9-10.3
		c-3.2-2.1-8.5-3.2-15.8-3.2h-12.9C413,296.9,405.8,302.6,405.8,314z M411.8,246.2c0,6.1,1.9,10.8,5.6,14.2c3.7,3.4,8.7,5,14.9,5
		c6.6,0,11.6-1.7,15.1-5c3.5-3.3,5.3-8.2,5.3-14.5c0-6.7-1.8-11.8-5.4-15.1c-3.6-3.4-8.7-5-15.1-5c-6.3,0-11.3,1.8-14.9,5.4
		C413.6,234.8,411.8,239.8,411.8,246.2z"/>
</g>
<g>
	<path d="M48.9,182.3l10.4,0l0,5.5l-21.2-0.1l11.8-19.3l-9.7,0l0-5.5l20.5,0.1L48.9,182.3z"/>
	<path d="M90.7,168.6l-7.7,0l0,4.1l7.3,0l0,5.5l-7.3,0l0,4.3l7.7,0l0,5.5l-14.1,0l0.1-24.8l14.1,0L90.7,168.6z"/>
	<path d="M117.7,163.2c1.9,0,4.2,0.3,6.1,2.2c1.4,1.5,2.1,3.6,2.1,5.6c0,2.1-0.8,4-2,5.2c-1,0.9-2.3,1.5-3.4,1.7l7.7,10.2l-8,0
		l-6.1-9.5l0,9.5l-6.4,0l0.1-24.8L117.7,163.2z M114,174.3l1.2,0c1,0,2.3-0.3,3.1-1c0.5-0.5,0.8-1.3,0.8-2.1c0-0.7-0.3-1.6-0.8-2.1
		c-0.6-0.6-1.7-1-3.1-1l-1.2,0L114,174.3z"/>
	<path d="M166.1,185c-2.5,2.4-6.1,3.7-9.8,3.6c-3.7,0-7.3-1.3-9.8-3.7c-2.6-2.5-3.9-6-3.9-9.3c0-3.3,1.3-6.8,3.9-9.3
		c2.5-2.4,6.1-3.7,9.8-3.6c3.7,0,7.3,1.3,9.8,3.7c2.6,2.5,3.9,6,3.9,9.3C170,179.1,168.7,182.5,166.1,185z M151.3,171
		c-1.3,1.3-2,3.1-2,4.9c0,2.2,1,3.7,2,4.6c1.2,1.2,2.9,2,5,2c2.2,0,3.8-0.8,5-1.9c1.2-1.1,2-2.9,2-4.8c0-1.9-0.8-3.6-2-4.8
		c-1.4-1.3-3.3-2-5-2C154.6,169,152.7,169.6,151.3,171z"/>
</g>
</svg>
