<svg id="Logo" xmlns="http://www.w3.org/2000/svg" viewBox="0 0 148.81 39.08"><defs><style>.cls-1{fill:#a1a1a1;}</style></defs><title>logo-dexus-grey</title><path class="cls-1" d="M54.81,31.28a.5.5,0,0,0-.7,0s0,0,0,0a7.45,7.45,0,0,1-6,2.66c-4.24,0-7.11-3-7.59-7.17H61.18a.52.52,0,0,0,.51-.51h0c-.2-10.86-6.69-15.51-13.8-15.51-8,0-13.75,5.92-13.75,14.17s5.92,14.23,13.92,14.23a14.3,14.3,0,0,0,10.1-3.84.5.5,0,0,0,0-.71h0ZM47.94,16A7,7,0,0,1,55,22.44H40.47c.72-3.82,3.47-6.45,7.47-6.45ZM22.66,34.52c-1.44,2.69-5.08,4.66-9,4.66C5.8,39.18.06,33.2.06,25S5.68,10.79,13.51,10.79c4,0,7.77,2,9.27,4.72-.06-1.86-.06-4.07-.06-6.16V.61a.5.5,0,0,1,.5-.5h4.92a.5.5,0,0,1,.5.5V38a.5.5,0,0,1-.5.5h-5a.5.5,0,0,1-.5-.5ZM6.16,25c0,5.14,3.41,9.09,8.37,9.09S22.9,30.09,22.9,25s-3.47-9-8.37-9-8.37,3.88-8.37,9Zm92.22,3.71V12a.5.5,0,0,1,.5-.5h5a.5.5,0,0,1,.5.5V27.88c0,4.25,2.81,6.16,6.34,6.16S117,32.13,117,27.88V12a.5.5,0,0,1,.5-.5h4.92a.5.5,0,0,1,.5.5V28.66c0,5.68-4.48,10.52-12.25,10.52S98.38,34.34,98.38,28.66Zm44.33,2.27c0-1.91-1.55-2.63-5-3.83l-1.55-.54c-4.66-1.61-7.65-3.64-7.65-7.95,0-4.48,4.18-7.83,10.1-7.83a15.42,15.42,0,0,1,9.91,3.39.5.5,0,0,1,.07.7l-2.63,3.36a.48.48,0,0,1-.69.09,11.4,11.4,0,0,0-6.6-2.57c-2.21,0-4,1-4,2.57s.95,2,3.35,2.87l3.16,1.13c5.38,1.92,7.71,4.55,7.71,8.55,0,3.83-3.4,8.31-10.93,8.31a16.37,16.37,0,0,1-10.46-3.64.51.51,0,0,1-.08-.69L130,31.3a.5.5,0,0,1,.7-.11h0a13.19,13.19,0,0,0,7.25,3c3.34,0,4.78-1.62,4.78-3.29Zm-50.1,3.31a.5.5,0,0,1,0,.7l-3.53,3.52a.48.48,0,0,1-.7,0l-8.11-8.11a1.09,1.09,0,0,1-.36-.85v-9a1.11,1.11,0,0,1,.36-.85l8.11-8.11a.48.48,0,0,1,.7,0L92.61,15a.51.51,0,0,1,0,.71l-7.47,7.46a1,1,0,0,0-.35.85v1.88a1,1,0,0,0,.36.85Zm-20-7.47a1,1,0,0,0,.35-.85V24a1,1,0,0,0-.35-.85l-7.47-7.46a.51.51,0,0,1,0-.71l3.53-3.52a.5.5,0,0,1,.7,0l8.11,8.11a1.11,1.11,0,0,1,.36.85v9a1.09,1.09,0,0,1-.36.85l-8.11,8.11a.48.48,0,0,1-.7,0l-3.52-3.52a.5.5,0,0,1,0-.71Z" transform="translate(-0.06 -0.11)"/></svg>