<svg id="Layer_1" data-name="Layer 1" xmlns="http://www.w3.org/2000/svg" xmlns:xlink="http://www.w3.org/1999/xlink" viewBox="0 0 500 500"><defs><style>.cls-1{fill:none;}.cls-2{fill:url(#linear-gradient);}</style><linearGradient id="linear-gradient" x1="59.87" y1="250.31" x2="404" y2="250.31" gradientUnits="userSpaceOnUse"><stop offset="0" stop-color="#5bffce"/><stop offset="0.16" stop-color="#3febc1"/><stop offset="0.37" stop-color="#24d6b5"/><stop offset="0.58" stop-color="#10c8ac"/><stop offset="0.79" stop-color="#04bfa7"/><stop offset="1" stop-color="#00bca5"/></linearGradient></defs><title>sliding apps home</title><g id="_Group_" data-name="&lt;Group&gt;"><g id="_Group_2" data-name="&lt;Group&gt;"><path class="cls-1" d="M311.55,294.34a12.77,12.77,0,0,0-12.74,12.74V293.71a12.74,12.74,0,0,0-25.47,0V280.35a12.74,12.74,0,1,0-25.47,0V239.87a12.74,12.74,0,0,0-25.47,0v79.89l-18,.29a8.61,8.61,0,0,0-8.61,8.61v56.7A11.66,11.66,0,0,0,202.61,396l10.45,4.83a11.66,11.66,0,0,1,6.78,10.59v.05h84.73v-3.2a10.27,10.27,0,0,1,3.09-7.33l13-12.69a12.18,12.18,0,0,0,3.66-8.7V307.08A12.77,12.77,0,0,0,311.55,294.34Z"/></g><g id="_Group_3" data-name="&lt;Group&gt;"><path class="cls-1" d="M324.12,417.06H200.38a2,2,0,0,0-2,2v33.31H326.12V419.06A2,2,0,0,0,324.12,417.06Z"/></g><g id="_Group_4" data-name="&lt;Group&gt;"><path class="cls-1" d="M101.62,220.2A18.24,18.24,0,1,1,83.38,202,18.24,18.24,0,0,1,101.62,220.2Z"/></g><g id="_Group_5" data-name="&lt;Group&gt;"><path class="cls-1" d="M252.2,71.76A18.24,18.24,0,1,1,234,53.52,18.23,18.23,0,0,1,252.2,71.76Z"/></g><g id="_Group_6" data-name="&lt;Group&gt;"><path class="cls-1" d="M141.89,111.56a18.24,18.24,0,1,1-18.23-18.24A18.23,18.23,0,0,1,141.89,111.56Z"/></g><g id="_Group_7" data-name="&lt;Group&gt;"><path class="cls-1" d="M353.67,103.33a18.24,18.24,0,1,1-18.24-18.24A18.24,18.24,0,0,1,353.67,103.33Z"/></g><g id="_Group_8" data-name="&lt;Group&gt;"><path class="cls-1" d="M398.72,220.2A18.23,18.23,0,1,1,380.49,202,18.24,18.24,0,0,1,398.72,220.2Z"/></g><g id="_Group_9" data-name="&lt;Group&gt;"><path class="cls-2" d="M331.39,452.37H320.84v-30H203.66v30H193.11V419.06a7.28,7.28,0,0,1,7.27-7.27h12.09a6.73,6.73,0,0,0-3.33-3.42l-10.7-4.94a17.28,17.28,0,0,1-10-15.64V329.71a14.12,14.12,0,0,1,14.1-14.1h13.11V238.76a18.33,18.33,0,0,1,36.65,0v24.87a18.31,18.31,0,0,1,25.87,13.79,18.32,18.32,0,0,1,26.09,13.69,18.33,18.33,0,0,1,26.31,16.49v74.19a17.86,17.86,0,0,1-5.34,12.68l-13.27,13a5.29,5.29,0,0,0-1.58,3.75v.58h13.75a7.28,7.28,0,0,1,7.27,7.27Zm-108-40.58h76.45v-.58a15.86,15.86,0,0,1,4.75-11.29l13.27-13a7.21,7.21,0,0,0,2.17-5.14V307.6a7.77,7.77,0,1,0-15.54,0v17.79H293.91V293.91a7.77,7.77,0,1,0-15.53,0v31.48H267.83V280.22a7.77,7.77,0,1,0-15.54,0v45.17H241.73V238.76a7.77,7.77,0,0,0-15.53,0V344.57H215.64v-18.4H202.53a3.54,3.54,0,0,0-3.55,3.54v58.08a6.71,6.71,0,0,0,3.88,6.06l10.71,4.94A17.29,17.29,0,0,1,223.37,411.79Zm-22-160.36A46.18,46.18,0,0,1,216,176.28a46.54,46.54,0,0,1,35.93,0,46.19,46.19,0,0,1,24.55,60.48l-9.72-4.11A35.64,35.64,0,0,0,247.82,186a35.89,35.89,0,0,0-27.71,0,35.57,35.57,0,0,0-11.31,58Zm179.15-7.72A23.51,23.51,0,1,1,404,220.2,23.53,23.53,0,0,1,380.49,243.71Zm0-36.47a13,13,0,1,0,13,13A13,13,0,0,0,380.49,207.24ZM83.38,243.71a23.51,23.51,0,1,1,23.51-23.51A23.53,23.53,0,0,1,83.38,243.71Zm0-36.47a13,13,0,1,0,13,13A13,13,0,0,0,83.38,207.24Zm90,18.5H117V215.19h56.41Zm121.08,0-.05-10.55,52.17-.26.05,10.55ZM182,179.2l-40.48-40.38,7.45-7.47,40.48,40.38ZM278.64,171l-7.49-7.44,39.16-39.46,7.49,7.43ZM229.79,152.3l-.12-49,10.55,0,.12,49ZM123.66,135.07a23.51,23.51,0,1,1,23.51-23.51A23.54,23.54,0,0,1,123.66,135.07Zm0-36.47a13,13,0,1,0,13,13A13,13,0,0,0,123.66,98.6Zm211.77,28.24a23.51,23.51,0,1,1,23.51-23.51A23.54,23.54,0,0,1,335.43,126.84Zm0-36.47a13,13,0,1,0,13,13A13,13,0,0,0,335.43,90.37ZM234,95.27a23.51,23.51,0,1,1,23.52-23.51A23.53,23.53,0,0,1,234,95.27Zm0-36.47a13,13,0,1,0,13,13A13,13,0,0,0,234,58.8Z"/></g></g></svg>