<svg id="Layer_1" data-name="Layer 1" xmlns="http://www.w3.org/2000/svg" xmlns:xlink="http://www.w3.org/1999/xlink" viewBox="0 0 500 500"><defs><style>.cls-1{fill:none;}.cls-2{fill:url(#linear-gradient);}</style><linearGradient id="linear-gradient" x1="38.44" y1="259.28" x2="482" y2="259.28" gradientUnits="userSpaceOnUse"><stop offset="0" stop-color="#5bffce"/><stop offset="0.16" stop-color="#3febc1"/><stop offset="0.37" stop-color="#24d6b5"/><stop offset="0.58" stop-color="#10c8ac"/><stop offset="0.79" stop-color="#04bfa7"/><stop offset="1" stop-color="#00bca5"/></linearGradient></defs><title>sliding apps home</title><g id="_Group_" data-name="&lt;Group&gt;"><g id="_Group_2" data-name="&lt;Group&gt;"><rect class="cls-1" x="69.92" y="138.53" width="383.49" height="273.39"/></g><g id="_Group_3" data-name="&lt;Group&gt;"><path class="cls-1" d="M467.2,460.57H56a1.86,1.86,0,0,1-1.83-1.51l-8.81-45.81a2.14,2.14,0,0,1,2.1-2.54H232.83l9.58,9.58h38.32l9.58-9.58H475.73a2.14,2.14,0,0,1,2.1,2.54L469,459.06A1.86,1.86,0,0,1,467.2,460.57Z"/></g><g id="_Group_4" data-name="&lt;Group&gt;"><rect class="cls-1" x="126.42" y="57.99" width="270.31" height="310.13"/></g><g id="_Group_5" data-name="&lt;Group&gt;"><rect class="cls-1" x="126.42" y="57.99" width="270.31" height="51.45"/></g><g id="_Group_6" data-name="&lt;Group&gt;"><path class="cls-2" d="M465.84,466.06H54.59a7.37,7.37,0,0,1-7.22-6l-8.8-45.8a7.63,7.63,0,0,1,7.49-9.06H233.75l9.58,9.58h33.78l9.57-9.58H474.37a7.63,7.63,0,0,1,7.49,9.06l-8.8,45.81A7.36,7.36,0,0,1,465.84,466.06ZM58.15,458v0Zm-.56-2.91H462.85l7.47-38.89H291.23l-9.58,9.58H238.78l-9.57-9.58H50.11ZM458.9,388.33h-11V144H417.36V133h33.16a8.39,8.39,0,0,1,8.38,8.39Zm-386.39,0h-11V141.43A8.39,8.39,0,0,1,69.92,133h36.19v11H72.51Zm329.7-14.72H120.93V52.51H402.21Zm-31.16-11h20.19V111.09l-20.19,15Zm-29.82,0h18.85V134.21l-18.85,14Zm-29.83,0h18.86V156.34l-18.86,14Zm-29.82,0h18.85V178.47l-18.85,14Zm-29.83,0H270.6v-162L254.83,212.3l-3.08-3Zm-29.82,0h18.85V198.77l-18.85-18.14Zm-29.83,0H211V182.91L192.1,198.84Zm-29.82,0h18.85V208.12l-18.85,15.93Zm-30.37,0H151.3V233.33l-19.39,16.39Zm0-247.72V235.36l49.22-41.61v-2.48h2.93l34.48-29.13L255.75,198l104.33-77.4v-1.41H362l29.25-21.71v-34H131.91V104H336.68v11ZM251.55,89.66h-20.8v-11h20.8Zm-37,0h-20.8v-11h20.8Zm-37,0h-20.8v-11h20.8Z"/></g></g></svg>