<svg id="Layer_1" data-name="Layer 1" xmlns="http://www.w3.org/2000/svg" xmlns:xlink="http://www.w3.org/1999/xlink" viewBox="0 0 500 500"><defs><style>.cls-1{fill:none;}.cls-2{fill:url(#linear-gradient);}</style><linearGradient id="linear-gradient" x1="38" y1="246.44" x2="474.61" y2="246.44" gradientUnits="userSpaceOnUse"><stop offset="0" stop-color="#5bffce"/><stop offset="0.16" stop-color="#3febc1"/><stop offset="0.37" stop-color="#24d6b5"/><stop offset="0.58" stop-color="#10c8ac"/><stop offset="0.79" stop-color="#04bfa7"/><stop offset="1" stop-color="#00bca5"/></linearGradient></defs><title>sliding apps home</title><g id="_Group_" data-name="&lt;Group&gt;"><g id="_Group_2" data-name="&lt;Group&gt;"><rect class="cls-1" x="43.78" y="47.7" width="244.49" height="411.33" rx="20.65" ry="20.65"/></g><g id="_Group_3" data-name="&lt;Group&gt;"><path class="cls-1" d="M226.55,269.77a61.6,61.6,0,0,1-7.66,18.43l18.78,25.19-13.85,13.82-25.15-18.83A61.76,61.76,0,0,1,180.22,316l-4.54,31.07-19.57,0L151.66,316a62,62,0,0,1-18.43-7.68L108,327.05,94.22,313.19l18.85-25.13a62.06,62.06,0,0,1-7.62-18.46L74.38,265l0-19.56,31.1-4.44a62,62,0,0,1,7.68-18.42L94.46,197.41l13.87-13.8,25.12,18.86a61.68,61.68,0,0,1,18.29-7.56l4.5-31.08h19.57l4.5,31.08a61.84,61.84,0,0,1,18.43,7.65l25.18-18.79,13.83,13.84-18.82,25.16a61.72,61.72,0,0,1,7.64,18.44l31.08,4.52V265.3ZM166,227.54a27.92,27.92,0,1,0,27.91,27.92A27.92,27.92,0,0,0,166,227.54Z"/></g><g id="_Group_4" data-name="&lt;Group&gt;"><g id="_Group_5" data-name="&lt;Group&gt;"><path class="cls-1" d="M433.16,173.67V154.1l-31.08-4.52a61.72,61.72,0,0,0-7.64-18.44L413.27,106,399.43,92.14l-25.17,18.8a61.76,61.76,0,0,0-18.44-7.66L351.33,72.2H331.76l-4.5,31.08A62,62,0,0,0,309,110.85L283.85,92,270,105.78,288.72,131A62.18,62.18,0,0,0,281,149.42l-31.09,4.43,0,19.57L281,178a61.84,61.84,0,0,0,7.62,18.45l-18.85,25.14,13.81,13.86,25.2-18.77a61.64,61.64,0,0,0,18.43,7.68l4.45,31.09,19.57,0,4.54-31.08a61.61,61.61,0,0,0,18.45-7.63l25.14,18.84,13.86-13.83-18.78-25.18a61.92,61.92,0,0,0,7.66-18.44Z"/></g><g id="_Group_6" data-name="&lt;Group&gt;"><path class="cls-1" d="M369.45,163.83a27.92,27.92,0,1,1-27.91-27.92A27.92,27.92,0,0,1,369.45,163.83Z"/></g></g><g id="_Group_7" data-name="&lt;Group&gt;"><path class="cls-1" d="M73,438.38v-370A20.65,20.65,0,0,1,93.63,47.69H64.42A20.65,20.65,0,0,0,43.78,68.34v370A20.65,20.65,0,0,0,64.42,459H93.63A20.65,20.65,0,0,1,73,438.38Z"/></g><g id="_Group_8" data-name="&lt;Group&gt;"><path class="cls-2" d="M267.61,464.89H64.42A26.45,26.45,0,0,1,38,438.46v-370A26.46,26.46,0,0,1,64.42,42H267.61A26.46,26.46,0,0,1,294,68.43H282.49a14.89,14.89,0,0,0-14.88-14.87H64.42A14.89,14.89,0,0,0,49.55,68.43v35.91h189v11.55h-189V391.78H282.49V265.33H294V438.46A26.46,26.46,0,0,1,267.61,464.89ZM49.55,403.33v35.13a14.89,14.89,0,0,0,14.87,14.88H267.61a14.9,14.9,0,0,0,14.88-14.88V403.33Zm131.12-50.47-29.56,0-4.63-32.27a67.22,67.22,0,0,1-12.85-5.36l-26.16,19.47L86.6,313.73l19.56-26.09a67.23,67.23,0,0,1-5.32-12.88L68.6,270l.06-29.57,32.27-4.6A66.89,66.89,0,0,1,106.3,223L86.84,196.84l21-20.85,26.08,19.57a67.49,67.49,0,0,1,12.69-5.25l4.67-32.26h29.57l4.67,32.26a67.77,67.77,0,0,1,12.86,5.34l26.13-19.51,20.9,20.92-19.53,26.11A67.18,67.18,0,0,1,231.17,236l32.26,4.69,0,29.57L231.15,275a68.19,68.19,0,0,1-5.35,12.86L245.29,314l-20.93,20.89-26.1-19.55a67.91,67.91,0,0,1-12.88,5.33Zm-19.55-11.57h9.57l4.38-30,3.84-.89a56,56,0,0,0,16.72-6.92L199,301.4l24.3,18.19,6.77-6.76L211.91,288.5l2.07-3.34a55.79,55.79,0,0,0,7-16.71l.91-3.83,30-4.33v-9.56l-30-4.37-.9-3.83A55.65,55.65,0,0,0,214,225.81L212,222.46l18.18-24.31-6.76-6.76L199,209.55l-3.34-2.08A56.09,56.09,0,0,0,179,200.53l-3.84-.9-4.34-30h-9.57l-4.34,30-3.83.9a56.1,56.1,0,0,0-16.58,6.86l-3.36,2.07-24.27-18.23L102.08,198l18.11,24.35-2.08,3.35a55.93,55.93,0,0,0-7,16.7l-.91,3.83-30,4.28,0,9.56,30,4.41.89,3.83A55.87,55.87,0,0,0,118,285l2.06,3.35-18.21,24.29,6.75,6.77,24.35-18.12,3.34,2.08a56.07,56.07,0,0,0,16.71,7l3.83.9Zm180.42-41.63V288.11a125,125,0,0,0,25-2.53l2.31,11.32A136.9,136.9,0,0,1,341.54,299.66ZM166,289.15a33.7,33.7,0,1,1,33.69-33.69A33.72,33.72,0,0,1,166,289.15Zm0-55.84a22.15,22.15,0,1,0,22.14,22.15A22.17,22.17,0,0,0,166,233.31Zm251.47,43.15L411,266.89a125.52,125.52,0,0,0,18.39-15.18l8.17,8.17A136.92,136.92,0,0,1,417.49,276.46Zm-61.3-15.22-29.57,0L322,228.93a67.58,67.58,0,0,1-12.86-5.36L283,243,262.12,222.1,281.68,196a67.76,67.76,0,0,1-5.32-12.88l-32.24-4.73.06-29.57,32.27-4.61a67.76,67.76,0,0,1,5.36-12.85l-19.45-26.17,21-20.85,26.07,19.58a67.9,67.9,0,0,1,12.7-5.26l4.67-32.26h29.57L361,98.68A68.08,68.08,0,0,1,373.86,104L400,84.52l20.9,20.92-19.53,26.11a67.59,67.59,0,0,1,5.34,12.87L439,149.1l0,29.58-32.26,4.64a67.81,67.81,0,0,1-5.35,12.86l19.49,26.14-20.93,20.89-26.1-19.55A67.64,67.64,0,0,1,360.9,229Zm-19.55-11.58h9.57l4.38-30,3.83-.89a55.83,55.83,0,0,0,16.73-6.92l3.35-2.07L398.8,228l6.77-6.76-18.14-24.34,2.07-3.34a56,56,0,0,0,6.95-16.71l.9-3.83,30-4.33V159.1l-30-4.37-.9-3.83a56,56,0,0,0-6.93-16.72l-2.07-3.35,18.18-24.3-6.76-6.77-24.33,18.16-3.34-2.07a55.78,55.78,0,0,0-16.72-6.94l-3.83-.91-4.34-30h-9.57l-4.35,30-3.83.91A56.14,56.14,0,0,0,312,115.76l-3.35,2.07L284.38,99.6l-6.78,6.75,18.11,24.35L293.63,134a55.84,55.84,0,0,0-7,16.71l-.91,3.83-30,4.28,0,9.57,30,4.4.9,3.84a55.84,55.84,0,0,0,6.9,16.73l2.07,3.35L277.36,221l6.76,6.78,24.34-18.13,3.34,2.08a56.07,56.07,0,0,0,16.71,7l3.83.91Zm130.05-33-10.64-4.5a123.29,123.29,0,0,0,7.24-23.32l11.32,2.32A135.47,135.47,0,0,1,466.69,216.7ZM341.54,197.52a33.7,33.7,0,1,1,33.69-33.69A33.73,33.73,0,0,1,341.54,197.52Zm0-55.83a22.14,22.14,0,1,0,22.14,22.14A22.16,22.16,0,0,0,341.54,141.69Zm121.75-2.91a123.56,123.56,0,0,0-18.7-44.43,123.95,123.95,0,0,0-103-54.8V28a137,137,0,0,1,27.36,2.76,135.76,135.76,0,0,1,68.68,37,138,138,0,0,1,16.59,20.1,135.39,135.39,0,0,1,20.44,48.58Zm-258-52.62H126.79V74.6h78.46Z"/></g></g></svg>