<svg id="Layer_1" data-name="Layer 1" xmlns="http://www.w3.org/2000/svg" xmlns:xlink="http://www.w3.org/1999/xlink" viewBox="0 0 500 500"><defs><style>.cls-1{fill:none;}.cls-2{fill:url(#linear-gradient);}</style><linearGradient id="linear-gradient" x1="31" y1="247.5" x2="470" y2="247.5" gradientUnits="userSpaceOnUse"><stop offset="0" stop-color="#5bffce"/><stop offset="0.16" stop-color="#3febc1"/><stop offset="0.37" stop-color="#24d6b5"/><stop offset="0.58" stop-color="#10c8ac"/><stop offset="0.79" stop-color="#04bfa7"/><stop offset="1" stop-color="#00bca5"/></linearGradient></defs><title>sliding apps home</title><g id="_Group_" data-name="&lt;Group&gt;"><g id="_Group_2" data-name="&lt;Group&gt;"><path class="cls-1" d="M403.42,145.8l-44.53-44.53a1.48,1.48,0,0,0-2.08,0l-97.54,97.12L208.36,250,111,347.12a1.48,1.48,0,0,0,0,2.08l44.53,44.53a1.48,1.48,0,0,0,2.08,0l95-94.08,54.5-53.86,96.34-97.91A1.48,1.48,0,0,0,403.42,145.8Z"/></g><g id="_Group_3" data-name="&lt;Group&gt;"><path class="cls-1" d="M137.41,375.65l83.71-83.51L286.45,226l98.78-98.37-26.34-26.35a1.48,1.48,0,0,0-2.08,0l-97.54,97.12L208.36,250,111,347.12a1.48,1.48,0,0,0,0,2.08Z"/></g><g id="_Group_4" data-name="&lt;Group&gt;"><path class="cls-1" d="M378.57,353,355.73,375.8a2.3,2.3,0,0,1-3.24,0L128.61,151.92l-6.74-31a1.78,1.78,0,0,1,2.28-2.29l30.54,7.2L378.57,349.72A2.3,2.3,0,0,1,378.57,353Z"/></g><g id="_Group_5" data-name="&lt;Group&gt;"><path class="cls-2" d="M250.5,467C129.47,467,31,368.53,31,247.5S129.47,28,250.5,28,470,126.47,470,247.5H458.46c0-114.67-93.29-208-208-208s-208,93.29-208,208,93.29,208,208,208Zm23.32-1.22L272.6,454.3A207.84,207.84,0,0,0,298,450l2.63,11.24A221.31,221.31,0,0,1,273.82,465.78ZM316.29,457l-3.45-11A207.71,207.71,0,0,0,346.47,432l5.34,10.23A218.75,218.75,0,0,1,316.29,457Zm56.47-27.15-6.43-9.58a208.42,208.42,0,0,0,50-47.24l9.2,7A220.07,220.07,0,0,1,372.76,429.82ZM154.45,401.64a7.17,7.17,0,0,1-5.13-2.13L104.8,355a7.24,7.24,0,0,1,0-10.24l97.4-97.17,8.15,8.18-21,20.92,14.95,14.95-8.16,8.16-15-15-16.63,16.6,15,15-8.16,8.16-15-15-16.64,16.59,15,15-8.16,8.16-15-15L116,349.88l38.46,38.46,92-91.07,8.12,8.2-95,94.07A7.14,7.14,0,0,1,154.45,401.64Zm-3-10.31,0,0Zm6,0h0ZM113,346.82h0Zm241.16,35.41a8,8,0,0,1-5.7-2.35L123.33,154.8l-7-32.39a7.55,7.55,0,0,1,9.41-9.33l31.91,7.52,225,225a8.08,8.08,0,0,1,0,11.4l-22.84,22.84A8,8,0,0,1,354.11,382.23Zm-17-30,17,17L372,351.34l-17-17ZM141.5,156.64,328.93,344.08l17.92-17.92L159.41,138.72Zm-12.69-31,4.88,22.46,17.25-17.25ZM441.18,356.31l-10-5.73a207.33,207.33,0,0,0,13.67-28.86l10.78,4.12A220.85,220.85,0,0,1,441.18,356.31ZM464.39,297l-11.24-2.59a209.49,209.49,0,0,0,4.45-27.89l11.5,1A219.28,219.28,0,0,1,464.39,297ZM309.11,251.55l-8.22-8.1,93.35-94.87L355.75,110.1l-17.86,17.79L353,143l-8.16,8.16L329.71,136l-16.65,16.58,15.14,15.14L320,175.91l-15.15-15.15-16.65,16.57,15.18,15.2-8.16,8.16-15.2-15.21-18.8,18.72L253.12,196,350.65,98.9a7.44,7.44,0,0,1,10.24,0l44.52,44.53a7.23,7.23,0,0,1,0,10.25Zm88.14-100h0Zm0-6-.06.06Zm-38.41-38.49,0,0S358.81,107.07,358.81,107.06Zm-6.09,0a0,0,0,0,1,0,0Z"/></g></g></svg>