<svg id="Layer_1" data-name="Layer 1" xmlns="http://www.w3.org/2000/svg" xmlns:xlink="http://www.w3.org/1999/xlink" viewBox="0 0 500 500"><defs><style>.cls-1{fill:none;}.cls-2{fill:url(#linear-gradient);}</style><linearGradient id="linear-gradient" x1="10" y1="257.73" x2="490.7" y2="257.73" gradientUnits="userSpaceOnUse"><stop offset="0" stop-color="#5bffce"/><stop offset="0.16" stop-color="#3febc1"/><stop offset="0.37" stop-color="#24d6b5"/><stop offset="0.58" stop-color="#10c8ac"/><stop offset="0.79" stop-color="#04bfa7"/><stop offset="1" stop-color="#00bca5"/></linearGradient></defs><title>sliding apps home</title><g id="_Group_" data-name="&lt;Group&gt;"><g id="_Group_2" data-name="&lt;Group&gt;"><path class="cls-1" d="M489.31,334.42l-82.07-82.07a2.13,2.13,0,0,0-2.31,0l-82.07,82.07a1.36,1.36,0,0,0,1,2.32h36.24V459.41h92.05V336.74h36.24A1.36,1.36,0,0,0,489.31,334.42Z"/></g><g id="_Group_3" data-name="&lt;Group&gt;"><path class="cls-1" d="M322.86,334.42a1.36,1.36,0,0,0,1,2.32h36.24V459.41H389.2V268.08Z"/></g><g id="_Group_4" data-name="&lt;Group&gt;"><path class="cls-1" d="M402.24,167.14,288.32,53.22a1.85,1.85,0,0,0-1.61-.47,1.83,1.83,0,0,0-1.6.47L171.19,167.14a1.89,1.89,0,0,0,1.34,3.22h50.3V459.41H350.6v-289h50.3A1.89,1.89,0,0,0,402.24,167.14Z"/></g><g id="_Group_5" data-name="&lt;Group&gt;"><rect class="cls-1" x="113.83" y="232.88" width="129.74" height="229.87"/></g><g id="_Group_6" data-name="&lt;Group&gt;"><path class="cls-1" d="M138.14,139.76,50.37,102.13a1.52,1.52,0,0,0-2.11,1.4V462.74h90.8V141.15A1.51,1.51,0,0,0,138.14,139.76Z"/></g><g id="_Group_7" data-name="&lt;Group&gt;"><path class="cls-2" d="M490.7,468.47H10V457H41.27V103.53a7.24,7.24,0,0,1,10.09-6.66l87.77,37.63a7.22,7.22,0,0,1,4.39,6.65v85.72H242a7.33,7.33,0,0,1,7.32,7.32V457h92.33V246.3h11.46V457h85V330.36h33.74l-76.57-76.57L376.07,273l-8.1-8.1,22.21-22.21a7.4,7.4,0,0,1,10.2,0l86.88,86.89a7.16,7.16,0,0,1-5.07,12.23H449.56V457H490.7ZM143.52,457h94.32V238.32H143.52Zm-51.9,0h40.44V183.18H91.62Zm-38.9,0H80.16V183.18H52.72ZM479.16,337.67h0ZM52.72,171.73h79.34v-27.8l-79.34-34ZM134.61,145h0ZM206.5,438.59H153.9V427.13h52.6Zm0-40.06H153.9V387.08h52.6Zm0-36.95H155.39V350.13H206.5Zm0-38.92H155.39V311.21H206.5Zm0-38.92H155.39V272.28H206.5Zm146.58-50.86H341.62v-70h45.91L284.68,60,181.83,162.88h45.91v47.24H216.29V174.33H172.5a7.58,7.58,0,0,1-5.36-13L279.28,49.24a7.55,7.55,0,0,1,5.4-2.24h0a7.56,7.56,0,0,1,5.4,2.25L402.23,161.38a7.59,7.59,0,0,1-5.37,13H353.08Zm41.05-63.4h0Zm-218.9,0h0ZM282,57.33h0Z"/></g></g></svg>