<svg id="Layer_1" data-name="Layer 1" xmlns="http://www.w3.org/2000/svg" xmlns:xlink="http://www.w3.org/1999/xlink" viewBox="0 0 500 500"><defs><style>.cls-1,.cls-2{fill:none;}.cls-2{stroke-miterlimit:10;stroke-width:13px;stroke:url(#linear-gradient);}</style><linearGradient id="linear-gradient" x1="7.66" y1="252.1" x2="491.5" y2="252.1" gradientUnits="userSpaceOnUse"><stop offset="0" stop-color="#5bffce"/><stop offset="0.16" stop-color="#3febc1"/><stop offset="0.37" stop-color="#24d6b5"/><stop offset="0.58" stop-color="#10c8ac"/><stop offset="0.79" stop-color="#04bfa7"/><stop offset="1" stop-color="#00bca5"/></linearGradient></defs><title>sliding apps home</title><g id="_Group_" data-name="&lt;Group&gt;"><g id="_Group_2" data-name="&lt;Group&gt;"><path class="cls-1" d="M288.17,217.24a6.76,6.76,0,1,1-2-4.78A6.74,6.74,0,0,1,288.17,217.24Z"/></g><g id="_Group_3" data-name="&lt;Group&gt;"><path class="cls-1" d="M249.09,212.48A19.4,19.4,0,0,0,238,230v40.88h22.17V230A19.39,19.39,0,0,0,249.09,212.48Z"/></g><g id="_Group_4" data-name="&lt;Group&gt;"><path class="cls-1" d="M249.09,212.48A19.4,19.4,0,0,0,238,230v40.88h22.17V230A19.39,19.39,0,0,0,249.09,212.48Z"/></g><g id="_Group_5" data-name="&lt;Group&gt;"><path class="cls-1" d="M249.09,212.48a19.9,19.9,0,0,0-2.89,1.73A19.39,19.39,0,0,1,254.38,230v40.88h5.8V230A19.39,19.39,0,0,0,249.09,212.48Z"/></g><g id="_Group_6" data-name="&lt;Group&gt;"><path class="cls-1" d="M268.43,280.63v6.87a6.11,6.11,0,0,0,3.5,5.53,6.11,6.11,0,0,0,3.49-5.53v-6.87Z"/></g><g id="_Group_7" data-name="&lt;Group&gt;"><path class="cls-1" d="M245.6,280.63v6.87a6.11,6.11,0,0,0,3.49,5.53,6.11,6.11,0,0,0,3.5-5.53v-6.87Z"/></g><g id="_Group_8" data-name="&lt;Group&gt;"><path class="cls-1" d="M222.77,280.63v6.87a6.11,6.11,0,0,0,3.49,5.53,6.11,6.11,0,0,0,3.5-5.53v-6.87Z"/></g><g id="_Group_9" data-name="&lt;Group&gt;"><path class="cls-1" d="M276.74,276.72h-9.63V259a8.41,8.41,0,0,1,4.82-7.6h0a8.42,8.42,0,0,1,4.81,7.6Z"/></g><g id="_Group_10" data-name="&lt;Group&gt;"><path class="cls-1" d="M254.05,276.72h-9.62V259a8.4,8.4,0,0,1,4.81-7.6h0a8.4,8.4,0,0,1,4.81,7.6Z"/></g><g id="_Group_11" data-name="&lt;Group&gt;"><path class="cls-1" d="M231.16,276.72h-9.63V259a8.4,8.4,0,0,1,4.81-7.6h0a8.41,8.41,0,0,1,4.82,7.6Z"/></g><g id="_Group_12" data-name="&lt;Group&gt;"><circle class="cls-1" cx="249.53" cy="235.73" r="4.52"/></g><g id="_Group_13" data-name="&lt;Group&gt;"><path class="cls-2" d="M447.24,75A34.62,34.62,0,1,1,437.1,50.48,34.52,34.52,0,0,1,447.24,75ZM288.93,349.74h15.69V140.3a99.26,99.26,0,0,0-56.77-89.71h0a99.26,99.26,0,0,0-56.77,89.71V349.74H206m-50.79-61.06a43.12,43.12,0,0,0-24.65-39h0a43.11,43.11,0,0,0-24.65,39v90.94h49.3Zm-42.56,111v35.21a31.31,31.31,0,0,0,17.91,28.3h0a31.32,31.32,0,0,0,17.9-28.3V399.66m80.93,0v35.21a31.31,31.31,0,0,0,17.91,28.3h0a31.32,31.32,0,0,0,17.9-28.3V399.66m80.93,0v35.21a31.33,31.33,0,0,0,17.91,28.3h0a31.32,31.32,0,0,0,17.9-28.3V399.66m6.34-111a43.12,43.12,0,0,0-24.66-39h0a43.12,43.12,0,0,0-24.65,39v90.94h49.31Zm-116.54,0a43.12,43.12,0,0,0-24.65-39h0a43.12,43.12,0,0,0-24.65,39v90.94h49.3Zm-116.53,26,35.86-37.78m-35.86,73.64,35.86-37.79m149.4,1.93-35.86-37.78m35.86,73.64-35.86-37.79M247.85,146.53A23.16,23.16,0,1,0,271,169.68,23.16,23.16,0,0,0,247.85,146.53Zm-49.31-44.82h98.67M109.65,322.07H159m67.2,0h49.33m67.21,0h49.33m76.07-16.25a57.64,57.64,0,0,0-40.76-98.39m-10.14,30.24a37.14,37.14,0,1,0-63.41-26.27H327.89M63.81,180.9a29.08,29.08,0,1,0-49.65-20.57m159-10.33H149.29a39.42,39.42,0,1,0-78.83,0"/></g></g></svg>